<?xml version="1.0" encoding="utf-8"?>
<!-- Generator: Adobe Illustrator 19.2.0, SVG Export Plug-In . SVG Version: 6.00 Build 0)  -->
<svg version="1.1" id="Layer_1" xmlns="http://www.w3.org/2000/svg" xmlns:xlink="http://www.w3.org/1999/xlink" x="0px" y="0px"
	 viewBox="0 0 402 221.1" style="enable-background:new 0 0 402 221.1;" xml:space="preserve">
<style type="text/css">
	.st0{fill:#C8142D;}
	.st1{fill:#59595B;}
	.st2{fill:none;}
</style>
<g>
	<g>
		<path class="st0" d="M132.4,188.8c2.6,0,4.7-0.8,6.4-2.5c1.7-1.7,2.5-3.8,2.5-6.4v-26.8c0-2.6-0.8-4.7-2.5-6.4
			c-1.7-1.7-3.8-2.5-6.4-2.5H96.7c-2.6,0-4.7,0.8-6.4,2.5c-1.7,1.7-2.5,3.8-2.5,6.4l0,4.5h8.9v-4.5h35.7v8.9H96.7
			c-2.6,0-4.7,0.8-6.4,2.5c-1.7,1.7-2.5,3.8-2.5,6.4v8.9c0,2.6,0.8,4.7,2.5,6.4c1.7,1.7,3.8,2.5,6.4,2.5L132.4,188.8L132.4,188.8z
			 M96.7,171h35.7v8.9H96.7V171z"/>
	</g>
	<path class="st0" d="M162.1,188.8v-35.7h35.7v8.9h8.9v-8.9c0-2.6-0.8-4.7-2.5-6.4c-1.7-1.7-3.8-2.5-6.4-2.5h-35.7
		c-2.6,0-4.7,0.8-6.4,2.5c-1.7,1.7-2.5,3.8-2.5,6.4v35.7H162.1z"/>
	<path class="st0" d="M223.2,188.8v-35.7h35.7v8.9h8.9v-8.9c0-2.6-0.8-4.7-2.5-6.4c-1.7-1.7-3.8-2.5-6.4-2.5h-35.7
		c-2.6,0-4.7,0.8-6.4,2.5c-1.7,1.7-2.5,3.8-2.5,6.4v35.7H223.2z"/>
	<path class="st0" d="M277.3,186.3c1.7,1.7,3.8,2.5,6.4,2.5h35.7c2.6,0,4.7-0.8,6.4-2.5c1.7-1.7,2.5-3.8,2.5-6.4V171
		c0-2.6-0.8-4.7-2.5-6.4c-1.7-1.7-3.8-2.5-6.4-2.5h-35.7v-8.9h35.7v4.5h8.9l0-4.5c0-2.6-0.8-4.7-2.5-6.4c-1.7-1.7-3.8-2.5-6.4-2.5
		h-35.7c-2.6,0-4.7,0.8-6.4,2.5c-1.7,1.7-2.5,3.8-2.5,6.4v8.9c0,2.6,0.8,4.7,2.5,6.4s3.8,2.5,6.4,2.5h35.7v8.9h-35.7v-4.5h-8.9v4.5
		C274.8,182.5,275.6,184.6,277.3,186.3"/>
	<g>
		<path class="st1" d="M120,73.7C120,73.8,120,73.5,120,73.7"/>
		<path class="st1" d="M121.1,73.6c0-0.2-0.1-0.8-0.1-1.2c0-0.3-0.1-0.6-0.1-0.7c0-0.2-0.1-1.2-0.1-1.2s-0.2-1.7-0.3-2.1
			c0-0.3-0.4-2.3-0.7-3.8c-0.1-0.6-0.2-1.1-0.2-1.4c-0.1-0.5-0.3-1.6-0.6-2.6c-0.2-0.8-0.4-1.5-0.4-1.8c-0.2-0.7-0.7-2.4-1-3.3
			c-0.1-0.2-0.1-0.4-0.2-0.7c-0.2-0.6-0.5-1.3-0.8-2.1c-0.5-1.2-0.9-2.5-1.1-2.8c-0.3-0.7-1.7-3.7-2-4.3c-0.3-0.6-1.8-3.5-2.2-4.2
			c-0.2-0.5-1-1.6-1.5-2.5c-0.2-0.4-0.7-1.2-0.8-1.3c-0.3-0.5-1.3-1.7-1.6-2.2c-0.3-0.4-2-2.5-2.3-2.9c-0.3-0.4-1.6-1.9-1.9-2.3
			c-0.2-0.3-0.8-1-1.3-1.5c-0.2-0.2-0.4-0.5-0.5-0.5c-0.2-0.2-0.8-0.8-0.8-0.8s-0.8-0.8-1-1c-0.2-0.2-1.9-1.8-2.6-2.5
			c-0.1-0.1-0.4-0.4-0.8-0.7c-1.7-1.3-5.3-4-6-4.5c-0.9-0.6-5.4-3.4-5.7-3.5c-0.5-0.1-0.4-0.2-1.7-0.9c-0.4-0.2-0.9-0.4-1.5-0.7
			c-1-0.5-5.1-2.2-5.7-2.4C75,11,69.1,9.2,68.2,9c-0.7-0.1-1.3-0.3-2-0.4c-0.4-0.1-2.6-0.5-4.3-0.7c-1.2-0.2-1.7-0.3-2.1-0.3
			c-1-0.1-2.4,0-2.7,0c-0.3,0-1.2,0.1-1.4,0.1c-0.2,0-1.5,0.2-1.8,0.2c-0.3,0-2.7,0.4-3.1,0.5c-0.4,0.1-2.6,0.5-3.3,0.7
			C46.8,9.1,45,9.5,45,9.5c-0.1,0-3.7,1.1-4.3,1.3C40.1,11,39.9,11,39,11.4c-0.9,0.4-4.8,1.8-5.5,2.1c-0.7,0.4-4.4,2-5.5,2.6
			c-1.1,0.6-2.2,1.3-3.1,1.7c-0.8,0.5-2.8,1.6-3.2,1.9c-0.4,0.3-1.9,1-2.3,1.3c-0.4,0.2-1.4,1-1.9,1.3c-0.5,0.3-1.7,1-2,1.2
			c-0.3,0.2-1.7,1.2-1.9,1.3c-0.3,0.2-2,1.6-2.8,2.2c-0.8,0.6-4.4,3.5-4.4,3.5c0.1,0.1,0.6,0.7,0.7,0.8c0.1,0.1,0.8,1.3,1,1.4
			c0.1,0.1,1.9,2.4,2.2,2.8c0.3,0.3,1.1,1.6,1.2,1.7c0.1,0.1,0.8,1.2,1,1.4c0.2,0.2,1.1,1.9,1.2,2c0.1,0.1,0.8,1.3,0.8,1.5
			c0,0.2,0.6,1.2,0.7,1.3c0,0.1,2,2.9,2.1,3.1c0.1,0.2,0.4,1,0.5,1.1c0,0.1,0.4,0.5,0.4,0.7c0,0.2,0.5,1.3,0.8,1.6
			c0.2,0.3,1.7,3.5,1.9,3.8c0.1,0.2,0.9,2,1,2.1c0.1,0.1,0.2,0.5,0.2,0.7c0,0.2,1,2.5,1,2.5s0.2,0.4,0.3,0.7
			c0.1,0.3,0.2,0.6,0.2,0.8c0,0.2,0.3,0.9,0.4,1.1c0.1,0.2,0.2,0.5,0.2,0.5s0.3,0.8,0.5,1.3c0.2,0.5,1.2,2.8,1.2,2.8
			s0.1,0.4,0.1,0.7c0,0.2,1.3,3.5,1.4,3.6c0.1,0.1,0.6,1.6,0.5,1.7c0,0.1,0.4,1.1,0.4,1.2c0.1,0.1,0.2,0.5,0.2,0.7
			c0,0.2,0.3,0.9,0.3,1c0,0.1,0.5,1.7,0.6,1.8c0,0.1,0.1,0.5,0.2,0.8c0,0.1,0.4,1,0.4,1.2c0,0.2,0.2,1.7,0.3,1.9
			c0.1,0.2,0.5,1.3,0.5,1.6c0,0.3,0.2,1.1,0.2,1.4c0.1,0.3,0.4,1.2,0.4,1.5c0.1,0.3,0.6,2.1,0.7,2.6c0.1,0.5,0.3,2.5,0.3,2.9
			c0,0.4,0.3,1.1,0.3,1.5c0,0.4,0.1,1.2,0.1,1.7c0,0.2,0.3,1.4,0.3,1.4s0.1,0.3,0.1,0.4c0,0.1,0.2,1.4,0.2,1.4l-0.1,0.8l0.2,0.8
			l0.1,0.4c0,0,0.5,1.6,0.5,1.7c0,0.1,0,0.8,0,0.9c0,0.1,0.2,2.2,0.2,2.5c0,0.3,0,2,0,2.4c0,0.4,0.1,2.2,0.1,2.3
			c0,0.1,0.2,1.8,0.2,2.1c0,0.3,0,1-0.1,1.2c0,0.1-0.1,0.7-0.1,0.8c0,0.1,0.2,0.9,0.1,1c0,0.1,0,0.5-0.1,0.7c0,0.1,0.1,1.3,0.1,1.3
			s0.1,0.8,0.2,1.1c0,0.3,0.1,0.6,0.1,0.6l-0.1,0.5c0,0-0.1,2.1-0.1,2.4c0,0.3-0.1,1.6-0.2,1.6c-0.1,0.1,0,1.6,0,1.6
			c0,0.1,0,1.9-0.1,2c-0.1,0.1,0,0.9,0,1c0,0.2-0.2,2.6-0.2,2.7c0,0.1,0,1.3,0,1.5c0,0.1,0,1.2-0.1,1.4c-0.1,0.2-0.2,0.8-0.2,1.1
			c0,0.2,0,0.8,0,1c0,0.1-0.3,1.1-0.4,1.5c0,0.3-0.5,1.8-0.6,2.1c-0.1,0.3-0.2,1.7-0.2,1.7s-0.3,1.6-0.4,2.1
			c-0.2,0.5-0.5,2.8-0.5,2.8s2.3,0.2,2.6,0.2c0.3,0,4.9-0.2,5.4-0.3c0.5-0.1,3.9-0.2,4.3-0.3c0.4-0.1,2.5-0.3,2.7-0.4
			c0.2,0,0.7-0.1,0.7-0.1s1.5-0.2,1.8-0.2c0.2-0.1,0.6-0.1,0.9-0.2c0.3,0,1-0.2,1.1-0.2c0.2,0,1.2-0.2,1.4-0.2
			c0.3,0,1.1-0.1,1.3-0.1c0.2,0,0.7-0.2,0.8-0.2c0.1,0,0.9-0.1,1-0.2s3.8-0.8,4-0.9c0.2,0,1.2-0.4,1.4-0.4c0.3-0.1,0.9-0.2,1-0.3
			c0.2-0.1,0.9-0.3,1.1-0.4c0.2,0,1.3-0.3,1.5-0.4c0.2-0.1,1.4-0.4,1.4-0.4s1.3-0.4,1.7-0.5c0.5-0.1,3-1.1,3.5-1.3
			c0.5-0.2,2.7-1,2.8-1.1c0.1-0.1,2.1-0.9,2.4-1c0.3-0.1,1.5-0.6,1.7-0.7c0.3-0.1,1.7-0.9,2.2-1.2c0.3-0.2,1.5-0.7,1.7-0.8
			c0.2-0.1,1-0.6,1.2-0.7c0.2-0.1,0.8-0.4,1.1-0.6c0.3-0.2,1.6-1,1.8-1.1c0.2-0.1,1.1-0.7,2-1.3c0.5-0.3,1.8-1.2,2.1-1.5
			c0.4-0.2,0.9-0.7,1.3-0.9c0.3-0.2,1.4-1,1.6-1.2c0.2-0.2,1-0.8,1-0.8l1.3-1c0,0,0.5-0.3,0.7-0.5c0.2-0.2,1.4-1.2,1.9-1.6
			c0.7-0.6,1.9-1.7,2.3-2.1c0.4-0.4,3.2-3.2,3.5-3.6c0.3-0.4,3-3.2,3.3-3.7c0.1-0.2,0.4-0.5,0.8-0.9c0.6-0.7,1.4-1.7,1.6-2
			c0.1-0.1,0.2-0.3,0.4-0.6c0.6-0.8,1.4-1.9,1.6-2.1c0.3-0.3,1.7-2.3,1.9-2.7c0.2-0.4,0.8-1.3,0.8-1.4c0.1-0.2,0.7-0.9,0.8-1.1
			c0.1-0.2,0.5-0.8,0.6-1c0.1-0.2,0.4-0.6,0.5-0.8c0.1-0.2,0.3-0.5,0.5-0.7c0.1-0.2,0.4-0.6,0.5-0.8c0.1-0.2,0.5-1,0.5-1
			s0.4-1.5,0.5-1.6c0-0.2,0.2-0.7,0.3-1c0.1-0.3,0.5-2.1,0.6-2.6c0.1-0.4,0.3-1.7,0.4-2.3c0-0.2,0-0.3,0.1-0.3
			c0.1-0.2,0.3-1.4,0.3-1.6c0-0.2,0-0.7,0-0.9c0-0.2,0.2-1.5,0.3-1.9c0-0.1,0-0.1,0-0.2c0.1-0.7,0.2-2.4,0.3-3.2
			c0-0.6,0.1-1.8,0.2-2.8c0-0.2,0-0.4,0-0.6c0-0.1,0-0.3,0-0.4C121.3,77.5,121.2,74.1,121.1,73.6 M109.4,46.6
			c0.1-0.1,0.3-0.5,0.4-0.5c0.1-0.2,0.2-0.3,0.3-0.4c0.1-0.1,0.3-0.5,0.4-0.6c0.1-0.1,0.2-0.2,0.3-0.3c0.1-0.1,0.3-0.5,0.4-0.6
			c0,0,1.1,1.8,1.3,2.1c0.2,0.3,1.1,2.3,1.4,2.8c0.2,0.5,1.2,2.8,1.3,3c0.5,1.3,0.7,1.9,1.1,3c0.3,0.9,0.8,2.1,0.9,2.4
			c0.1,0.3,0.6,2.1,0.8,2.6c0.1,0.5,0.6,2.8,0.7,3.2c0.1,0.4,0.6,3.2,0.6,3.4c0,0.2,0.2,1.7,0.2,1.8c0,0.1,0.1,0.6,0.1,0.7
			c0,0.1,0.2,1.2,0.2,1.6c0,0.2,0.1,0.4,0.1,0.6c0,0.1,0,0.7-0.1,0.8c-0.1,0.2-0.3,0.6-0.4,0.8c-0.1,0.2-0.4,1-0.5,1.2
			c0,0.2-0.2,0.7-0.3,0.9c0,0.1-0.2,0.5-0.3,0.6c-0.1,0.2-0.7,1.2-0.8,1.3c-0.1,0.1,0-0.8,0-0.9c0-0.2,0-0.4,0.1-0.6
			c0-0.2,0-0.4,0-0.5c0-0.1,0-0.5,0-0.5c0,0,0-0.4,0.1-0.6c0-0.1,0-0.5,0-0.7c0-0.3,0.1-1.1,0.1-1.2c0-0.2,0.1-0.5,0-0.6
			c0-0.1,0-1.7,0-1.9c0-0.2,0.1-0.4,0-0.5c0-0.2,0-0.6,0-0.8c0-0.3,0-1,0-1.2c0-0.4,0-1,0-1.3c0-0.3-0.1-1.4-0.1-1.6
			c0-0.2-0.1-1.4-0.2-1.5c0-0.2-0.1-0.6-0.2-0.7c-0.1-0.1-0.1-0.6-0.1-0.7c0-0.1-0.1-1.2-0.2-1.4c0-0.2-0.2-0.8-0.2-0.9
			c0-0.2-0.4-2.1-0.5-2.3c-0.1-0.2-0.6-2.3-0.7-2.5c-0.1-0.2-0.1-0.3-0.1-0.5c0-0.2-0.1-0.2-0.2-0.3c-0.1-0.1-0.1-0.3-0.1-0.4
			c-0.1-0.1-0.1-0.1-0.2,0c0,0-0.2,0.5-0.3,0.6c0,0.1,0,0.9,0,1.1c0,0.1,0.1,1,0.1,1.3c0,0.1,0.1,0.8,0.1,0.9
			c0.1,0.4,0.2,0.9,0.2,1.2c0,0.2,0.2,1.1,0.2,1.3c0.1,0.3,0.2,0.8,0.2,1c0.1,0.3,0.2,0.7,0.2,1.1c0,0.1,0.1,1,0.2,1.3
			c0.1,0.2,0.3,1.4,0.3,1.7c0,0.1,0.1,0.6,0.1,0.7c0,0.3,0.1,0.9,0,1.2c0,0.1,0,0.9,0,1.2c0,0.1,0,0.5,0,0.7c0,0.2,0.1,0.6,0.1,0.9
			c0,0.2,0,1.1,0,1.2c0,0.1,0,0.5,0,0.8c0,0.1-0.1,0.5-0.1,0.9c0,0.1-0.1,0.9-0.1,1s0,2.2,0,2.3c0,0.1-0.1,0.5-0.1,0.9
			c0,0.1,0,0.6-0.1,0.7c0,0.2,0,0.7-0.1,1.1c0,0.2-0.1,1-0.1,1.2c0,0.1-0.1,0.3-0.2,0.4c-0.1,0.1-0.1,0.1-0.2,0.2
			c-0.1,0.1-0.1,0.2-0.3,0.4c-0.1,0.2-0.2,0.3-0.3,0.4c0,0.1-0.2,0.4-0.3,0.5c-0.1,0.1,0-0.4,0-0.5c0-0.2,0-0.3,0-0.4
			c0-0.1,0-0.2,0-0.3c0-0.1,0-0.1,0-0.2c0-0.1,0-0.3,0.1-0.5c0-0.2,0-0.8,0-0.9c0-0.1-0.1-0.3-0.1-0.4c0-0.1,0-0.5,0-0.7
			c0-0.2,0-0.4,0-0.6c0-0.2,0-0.5,0-0.6c-0.1-0.2,0-0.2,0-0.4c0-0.1,0-0.4,0-0.6c0-0.3,0.1-0.4,0-0.7c0-0.2-0.1-0.4-0.1-0.6
			c0-0.1-0.1-0.6-0.1-0.7c0-0.1-0.1-0.3-0.1-0.5c0-0.2,0-0.4,0-0.7c0-0.3-0.1-1-0.1-1.2c0-0.2-0.1-0.6-0.1-0.8c0-0.2-0.1-1-0.2-1.2
			c0-0.1-0.1-0.4-0.2-0.4c0-0.1-0.1-0.3-0.1-0.5c0-0.2,0-0.4,0-0.5c0-0.2-0.3-1.2-0.4-1.3c-0.1-0.1-0.3-1.2-0.3-1.4
			c0-0.2-0.2-0.7-0.2-0.8c0-0.2-0.2-1.1-0.2-1.3c-0.1-0.2-0.2-0.6-0.2-0.8c-0.1-0.2-0.1-0.4-0.2-0.6c0-0.2-0.2-0.6-0.3-0.8
			c-0.1-0.2-0.3-1.9-0.3-2c-0.1-0.4-0.3-1.6-0.3-1.8c0-0.2-0.3-1-0.4-1.1c-0.1-0.3-0.3-0.6-0.4-0.8c-0.1-0.2-0.7-0.9-0.8-1
			c-0.1-0.1-0.3-0.2-0.3-0.3c-0.1-0.1-0.4-0.8-0.4-0.9c-0.1-0.1-0.2-0.4-0.3-0.5c-0.1-0.1-0.3-0.5-0.3-0.7c0-0.1-0.2-0.4-0.3-0.5
			c-0.1-0.1-0.1-0.3-0.1-0.4c0-0.1-0.5-1-0.5-1.1c-0.1-0.1-0.1-0.3-0.1-0.3c0,0,0.2-0.1,0.2-0.1c0,0,0.3-0.2,0.3-0.2
			c0,0,0.5-0.3,0.6-0.4c0.1-0.1,0.4-0.4,0.5-0.5C109,46.9,109.3,46.7,109.4,46.6 M102.5,84.9c-0.1-0.1-0.1-0.1-0.2-0.1
			c0,0-0.5,0.3-0.6,0.4c-0.2,0.1-0.5,0.3-0.7,0.5c-0.1,0.1-0.4,0.3-0.5,0.5c-0.1,0.1-0.5,0.8-0.7,1.1c0,0.1-0.4,1-0.5,1.2
			c-0.1,0.2-0.1,0.6-0.1,0.7c0,0.2-0.2,0.3-0.3,0.2c-0.1-0.1,0-0.7,0-0.9c0-0.1,0-0.5,0-0.8c0-0.2,0-0.5,0-0.5c0,0,0.1-0.3,0.1-0.4
			c0-0.1-0.1-0.7,0-0.9c0-0.2-0.2-1.3-0.2-1.4c0-0.1-0.2-0.7-0.1-0.9c0-0.2-0.1-1-0.2-1.3c0-0.2-0.1-1.1-0.1-1.3
			c0-0.3-0.1-0.6,0-0.9c0-0.3,0-0.6,0-0.7c0-0.1,0-0.3-0.1-0.6c0-0.1-0.1-0.6-0.2-0.8c0-0.2-0.3-1.5-0.3-1.7c0-0.2-0.4-2.1-0.4-2.3
			c0-0.2-0.6-2.8-0.6-2.9c-0.1-0.1-0.1-0.4-0.1-0.6s-0.1-0.4-0.1-0.6c0-0.2-0.3-1.1-0.4-1.3c0-0.2-0.4-1.3-0.4-1.5
			c0-0.2-0.2-0.5-0.3-0.8c0-0.1-0.1-0.5-0.1-0.6c-0.1-0.3-0.4-1-0.5-1c0-0.1-0.2-0.5-0.3-0.8c0-0.1-0.3-0.7-0.4-0.8
			c-0.1-0.1-0.3-0.7-0.4-0.8c0-0.1-0.5-1.5-0.6-1.6c-0.1-0.1-0.6-1.4-0.7-1.6c0-0.1-0.2-0.6-0.3-0.7c-0.1-0.1,0-0.2,0-0.3
			c0-0.1,0.1-0.1,0.1-0.1c0-0.1,0.4-0.4,0.6-0.4c0.1-0.1,0.3-0.2,0.4-0.3c0.2-0.1,0.6-0.3,0.8-0.4c0.3-0.1,0.8-0.4,0.9-0.5
			c0.2-0.1,0.7-0.5,1-0.7c0.3-0.1,1.8-1.1,2-1.1c0.2,0,0.7-0.3,0.8-0.4c0.1-0.1,0.3-0.3,0.5-0.4c0.1-0.1,0.5-0.3,0.6-0.4
			c0.1-0.1,0.7-0.4,0.8-0.5c0.1,0,0.8-0.5,0.9-0.6c0.1-0.1,0.4-0.3,0.5-0.4c0.1,0,0.5-0.3,0.7-0.4c0.2-0.1,0.4-0.4,0.5-0.5
			c0-0.1,0.3-0.3,0.5-0.4c0.2-0.1,1-0.8,1.1-0.9c0.1-0.1,0.1-0.1,0.2-0.2c0.1,0,0.2,0,0.2,0.1c0.1,0.1,0.2,0.1,0.3,0.2
			c0.1,0.1,0.3,0.5,0.4,0.7c0.1,0.2,0.6,1.2,0.6,1.3c0,0.1-0.6,0-0.8,0.3c-0.1,0.2-0.3,0.5-0.2,0.7c0,0.3,0.4,0.8,0.5,1
			c0.1,0.1,0.5,0.3,0.7,0.3c0.1,0,0.4,0,0.5-0.1c0.2-0.1,0.2,0,0.3,0.1c0.1,0.1,0,0.1,0.1,0.4c0.1,0.2,0.2,0.5,0.3,0.7
			c0.1,0.3,0.2,0.8,0.4,1c0.1,0.3,0.1,0.5,0.2,0.6c0,0.1,0.1,0.3,0.2,0.5c0,0.2,0.3,0.7,0.3,0.8c0,0.1,0.2,0.7,0.3,1
			c0.1,0.2,0.1,0.5,0.2,0.7c0.1,0.2,0.1,0.3,0.1,0.5c0,0.2,0.1,1.3,0,1.4c-0.1,0.1-0.1,0.7-0.1,0.8c0,0.1,0,0.4,0,0.6
			c0,0.2-0.2,1.1-0.3,1.4c0,0.3-0.2,0.6-0.2,0.7c-0.1,0.2-0.1,0.3-0.2,0.5c0,0.1-0.2,0.5-0.4,0.6c-0.1,0.1-0.3,0.3-0.4,0.3
			c-0.1,0-0.1-0.3-0.1-0.5c0-0.2,0-0.3,0-0.5c0-0.3,0-0.3,0-0.6c0.1-0.2,0-0.3,0-0.4c0-0.1,0-0.2,0-0.4c0.1-1.1-0.3-1.5-0.3-1.5
			s-0.1-0.1-0.2,0c-0.1,0.1-0.2,0.2-0.3,0.4c-0.1,0.2-0.2,0.3-0.4,0.5c-0.1,0.2-0.2,0.2-0.2,0.4c0,0.1-0.1,0.3-0.1,0.5
			c0,0.2-0.1,0.5-0.1,0.7c0,0.1,0,0.3,0,0.6c0,0.1,0.1,0.4,0.1,0.5c0,0.1,0,0.4-0.1,0.6c0,0.2,0.2,1.1,0.2,1.2
			c-0.1,0.1-0.2,0-0.2-0.2c0-0.1-0.2-0.1-0.3-0.1c-0.1,0-0.2,0-0.3,0c-0.1,0-0.1,0-0.3,0c-0.1,0-0.6,0.5-0.7,0.6
			c-0.1,0.1-0.4,0.6-0.5,0.7c-0.1,0.1-0.1,0.3-0.1,0.4c0,0.1-0.2,0.2-0.3,0.4c-0.1,0.2-0.2,0.4-0.3,0.5c-0.1,0.1-0.1,0.6-0.2,0.6
			c-0.1,0-0.2,0.4-0.3,0.6c0,0.1-0.1,0.2-0.2,0.3c-0.1,0.1-0.3,0.3-0.4,0.5c-0.1,0.2-0.1,0.4-0.2,0.6c0,0.1-0.2,0.5-0.2,0.5
			c-0.1,0.1-0.2,0.5-0.2,0.7c0,0.2-0.3,1.2-0.4,1.4c0,0.2-0.1,0.9-0.2,1c0,0.1,0.2,1.9,0.3,2.3c0.1,0.4,0.4,1.3,0.4,1.3
			c0,0.1,0.2,0.2,0.3,0.3c0.1,0,0.4-0.1,0.6-0.3c0.2-0.1,0.7-0.4,1-0.6c0.2-0.2,0.7-0.5,0.9-0.7c0.2-0.1,0.5-0.5,0.6-0.6
			c0.1-0.1,0.3-0.3,0.4-0.4c0.1-0.1,0.4-0.5,0.5-0.5c0.1-0.1,0.2-0.2,0.2-0.3c0.1-0.1,0.1-0.2,0.2-0.3c0.1-0.1,0.2,0,0.2,0.1
			c0,0.1,0.1,0.7,0.1,0.9c0,0.1,0,0.3-0.1,0.5c0,0.2-0.1,0.5-0.1,0.7c0,0.2,0,0.3,0,0.6c0,0.2-0.1,0.3-0.1,0.5c0,0.2-0.3,0.7-0.4,1
			c-0.1,0.2-0.1,0.6-0.2,0.9c-0.1,0.2-0.2,0.6-0.3,0.7c-0.1,0-0.3,0.3-0.4,0.7c-0.1,0.1-0.3,0.8-0.3,0.9c-0.1,0.1-0.1,0.3-0.2,0.5
			c-0.1,0.1-0.4,0.8-0.5,0.9c-0.1,0.1-0.3,0.3-0.5,0.5c-0.2,0.1-0.6,0.2-0.7,0.3c-0.1,0.1-0.6,0-0.6,0.1c-0.1,0-0.1-0.1-0.1-0.1
			c0-0.1-0.1-0.5,0-0.6c0-0.1,0.2-0.6,0.1-0.7C102.5,85.7,102.6,85.1,102.5,84.9 M98.6,92.6c0-0.1,0.1-0.6,0.1-0.7
			c0-0.3,0-0.5,0-0.7c0-0.2,0-0.3,0.1-0.4c0,0,0.1-0.1,0.2-0.1c0,0.1,0,0.5,0,0.6c0,0.1,0,0.3,0.1,0.4c0,0.1,0.1,0.2,0.2,0.2
			c0.1,0,0.2,0.2,0.3,0.2c0.1,0,0.2,0,0.3,0.1c0.2,0,0.5,0,0.4,0.1c0,0.1-0.4,0.3-0.5,0.4c-0.5,0.3-1,0.6-1.1,0.7
			c-0.1,0-0.1-0.1-0.1-0.2C98.6,92.9,98.6,92.7,98.6,92.6 M87.2,82.2c0,0.1,0,0.4-0.1,0.5c-0.1,0.1,0.1,0.4,0,0.5
			c0,0.1-0.2,1.2-0.2,1.3c-0.1,0.1-0.3,1.1-0.3,1.3c0,0.1-0.1,0.2-0.1,0.3c-0.1,0.1-0.2,0.4-0.3,0.5c-0.1,0.1-0.1,0.2-0.2,0.3
			c-0.1,0.1-0.2,0.2-0.3,0.4c-0.1,0.1-0.2,0.1-0.2,0.2c0,0.1-0.3,0.3-0.5,0.5c-0.1,0.1-0.3,0.3-0.4,0.4c-0.2,0.2-0.2,0.3-0.3,0.4
			c-0.1,0.1-0.2,0.1-0.4,0.3c-0.1,0.1-0.2,0.2-0.3,0.3c-0.1,0.1-0.3,0.2-0.4,0.2c-0.1,0-0.3,0.1-0.4,0.2c-0.1,0-0.2,0.1-0.3,0.1
			c-0.2,0-0.8-0.1-1-0.3c-0.1-0.1-0.1-0.1-0.2-0.2c0-0.1,0-0.2,0.1-0.3c0.1-0.2,0.1-0.2,0.1-0.3c0-0.1,0.2-0.3,0.2-0.5
			c0-0.1,0.5-1,0.5-1.1c0.1-0.1,0.1-0.3,0.2-0.4c0.2-0.1,0.3-0.5,0.4-0.6c0.1-0.1,0.3-0.5,0.4-0.5c0.1,0,0.1-0.2,0.1-0.2
			c0-0.1,0.3-0.3,0.3-0.3c0.2-0.2,0.4-0.8,0.5-0.9c0.1-0.1,0.1-0.1,0.1-0.2c0-0.1,0.1-0.2,0.2-0.2c0.1,0,0.2-0.2,0.2-0.3
			c0-0.1,0.4-0.4,0.5-0.7c0.1-0.1,0.9-1.7,1-1.8c0.1-0.1,0.3-0.4,0.3-0.5c0,0,0.1-0.2,0.2-0.2c0.1-0.1,0.6-1,0.7-1.1
			c0,0,0.2-0.3,0.2-0.4c0-0.1,0.2-0.4,0.3-0.4c0.1-0.1,0.2-0.4,0.3-0.6c0.1-0.2,0.7-0.4,0.7-0.4c0.3-0.1,0.3,0,0.3,0.1
			c0,0.1,0.1,0.5,0,0.6c-0.1,0.1-0.1,0.1-0.2,0.2c-0.1,0.1-0.1,0.2-0.2,0.2c-0.1,0.1-0.2,0.2-0.2,0.3c0,0.1-0.4,0.7-0.4,0.8
			c-0.1,0.1-0.1,0.4-0.3,0.5c-0.1,0-0.2,0.5-0.3,0.5c-0.1,0.1-0.1,0.5-0.1,0.5c-0.1,0.1-0.3,0.9-0.2,1C87.2,82,87.2,82.1,87.2,82.2
			 M84,97.5c0.1-0.1,0.1-0.3,0.2-0.5c0.1-0.1,0.3-0.4,0.4-0.7c0.1-0.2,0.5-0.6,0.6-0.7c0-0.1,1.3-1.8,1.3-2c0-0.1,0.2-0.3,0.2-0.4
			c0-0.1,1.4-2.5,1.5-2.6c0.1-0.1,0.2-0.3,0.3-0.4c0.1-0.2,0.2-0.3,0.3-0.4c0.1-0.1,0.2-0.5,0.3-0.6c0.1-0.1,0.5-1.4,0.6-1.5
			c0.1-0.1,0.1-0.4,0.2-0.6c0.1-0.3,0.4-1.1,0.5-1.3c0-0.2,0.2-0.3,0.2-0.4c0-0.1,0.1-0.4,0.1-0.5c0-0.2,0.1-0.7,0-0.8
			C90.7,84,91,82.7,91,82.5c0.1-0.3,0.2-0.7,0.1-0.9c0-0.2,0-0.3,0.1-0.4c0.1-0.1,0-0.5,0.1-0.7c0-0.2,0.2-0.4,0.3-0.6
			c0.1-0.2,0.1-0.4,0.2-0.5c0-0.1,0.1-0.3,0.1-0.5c0.1-0.1,0-0.4,0-0.5c0-0.1,0.1-0.2,0.2-0.4c0.1-0.2,0.1-0.3,0-0.5
			c0-0.1,0.1-0.1,0.1-0.2c0-0.1,0.1-0.4,0.1-0.6c0-0.2,0.1-0.5,0.2-0.5c0.1-0.1,0-0.2,0.1-0.4c0-0.2,0.1-0.2,0.1-0.3
			c0.2-1-0.3-1.2-0.3-1.4c0-0.2-0.1-0.1-0.3-0.2c-0.2-0.1-0.3,0-0.4,0c-0.2,0-0.4,0.2-0.7,0.4c-0.2,0.2-0.3,0.3-0.5,0.4
			c-0.2,0-0.5-0.6-0.5-0.7c0-0.1-0.1-0.2-0.2-0.3c0-0.1-0.3-0.2-0.4-0.2c-0.1,0-0.4,0.1-0.5,0.1c-0.1,0-0.7,0.3-0.8,0.5
			c-0.1,0.1-0.8,0.7-0.8,0.8c-0.1,0.1-0.3,0.4-0.4,0.6c-0.1,0.1-0.2,0.2-0.3,0.4s-0.2,0.3-0.3,0.4c-0.1,0.1-0.1,0.2-0.2,0.4
			c-0.1,0.1-0.1,0.2-0.2,0.3c-0.1,0.1-0.2,0.3-0.4,0.4c-0.1,0.1-0.1,0.1-0.1,0.2c0,0.1-0.1,0.2-0.2,0.4c-0.1,0.1-0.3,0.4-0.4,0.5
			c-0.1,0.2-0.1,0.3-0.3,0.4c-0.1,0.1-0.2,0.1-0.2,0.2c0,0.1-0.2,0.2-0.3,0.3c-0.1,0.1,0,0.2-0.1,0.3c-0.1,0.1-1,1.2-1,1.3
			c0,0.1-0.3,0.4-0.4,0.5c-0.1,0.1-0.1,0.2-0.2,0.3c-0.1,0.1-0.1,0.3-0.1,0.3c0,0.1-0.2,0.2-0.3,0.3c-0.1,0.1-0.1,0.4-0.2,0.5
			c-0.1,0.1-0.2,0.3-0.4,0.4c-0.1,0.1-0.7,1-0.8,1c-0.1,0-0.2,0.3-0.2,0.4c0,0.1,0,0.1-0.2,0.2c-0.1,0.1-0.3,0.5-0.4,0.6
			c-0.1,0.1-0.2,0.4-0.3,0.5c-0.1,0.1-0.2,0.3-0.2,0.5c-0.1,0.1-0.1,0.2-0.2,0.3c-0.1,0.1-0.2,0.3-0.3,0.4c-0.1,0.1-0.1,0.3-0.1,0.4
			c0,0.1-0.2,0.3-0.3,0.4c-0.1,0.2-0.4,0.8-0.5,0.9c-0.1,0.2-0.2,0.4-0.3,0.5c-0.1,0.1-0.2,0.3-0.2,0.5c0,0.1-0.1,0.3-0.2,0.6
			c-0.1,0.3-0.1,1.5,0.2,2.1c0.1,0.1,0.1,0.2,0.3,0.3c0.1,0.1,0.1,0.1,0.2,0.2c0.1,0.1,0.3,0.1,0.3,0.2c0.1,0.1,0.3,0.1,0.4,0.1
			c0.2,0,0.4,0,0.5,0c0.2,0,1.6-0.1,1.7-0.2c0.2-0.1,0.5-0.1,0.7-0.2c0.1,0,0.5-0.2,0.8-0.3c0.2-0.1,0.8-0.4,0.9-0.5
			c0.1-0.1,0.2-0.2,0.4-0.2c0.1,0,0.1,0.2,0.1,0.4c0,0.1-1.4,2.5-1.5,2.7c-0.2,0.1-0.5,0.9-0.5,1c0,0.1-1.6,2.1-1.6,2.3
			c-0.1,0.1-0.4,0.5-0.5,0.6c-0.1,0.2-0.5,0.7-0.6,0.9c-0.1,0.1-1.6,2-1.6,2.1c0,0.2-0.4,0.5-0.5,0.6c-0.1,0.1-0.8,0.8-0.9,0.9
			c-0.1,0.1-0.5,0.2-0.6,0.3c-0.2,0-2.3,0.8-2.4,0.9c-0.1,0.1-0.3,0.1-0.4,0c-0.1-0.1,0-0.3,0-0.4c0-0.2,0-2.4,0.1-2.6
			c0-0.2,0-0.2,0.1-0.3c0.1-0.1,0-0.6,0-0.8c0-0.2-0.1-1.4-0.1-1.7c-0.1-0.2-0.1-0.5-0.1-0.7c0-0.2,0-0.3,0-0.4c0-0.1,0-0.2,0-0.4
			c0-0.2,0.1-0.9,0.1-1.1c0-0.2-0.2-0.6-0.2-0.8c0-0.2,0-0.6-0.1-0.7c-0.1-0.2-0.3-1.8-0.3-2c0-0.2,0.1-0.5,0.1-0.6
			c0.1-0.1-0.3-1.9-0.4-2.2c-0.1-0.2-0.2-0.4-0.2-0.5c-0.1-0.1-0.2-0.5-0.2-0.7c-0.1-0.2-0.4-2.4-0.4-2.6c0-0.2-0.1-1.1-0.1-1.2
			c0-0.1-0.8-3.5-0.8-3.7c0-0.2,0-0.7,0-0.8c-0.1-0.4-0.7-2.7-0.9-2.9c-0.1-0.1-0.2-0.3-0.3-0.4c-0.1-0.1-0.7-2-0.7-2.2
			c-0.1-0.2-0.6-1.6-0.8-1.7c-0.2-0.1-0.8-2.1-0.9-2.1c0-0.1,0.3-0.2,0.3-0.2s0.3,0,0.5-0.1c0.1,0,0.5-0.2,0.7-0.3
			c0.2,0,0.5-0.2,0.6-0.3c0.1-0.1,0.4-0.2,0.5-0.2c0.1,0,0.6-0.2,0.7-0.3c0.2-0.1,0.9-0.3,1-0.4c0.1-0.1,0.5-0.3,0.7-0.4
			c0.2,0,0.5-0.2,0.7-0.3c0.1-0.1,0.9-0.4,1-0.5c0.1-0.1,0.2-0.2,0.4-0.2c0.2,0,0.5-0.2,0.6-0.3c0.2,0,1.6-0.7,1.9-0.8
			c0.2-0.1,1.4-0.7,1.5-0.8c0.1-0.1,0.6-0.5,0.7-0.5c0.5-0.4,1.7-0.9,1.7-0.9c0.1,0,0.9-0.2,1-0.2c0.1,0,0.8-0.4,1-0.6
			c0.2-0.2,2-0.9,2.2-1c0.2-0.1,0.5-0.4,0.5-0.5c0.1,0,0.8-0.6,0.9-0.6c0.1,0,0.5-0.2,0.5-0.2c0,0,1.2-0.6,1.3-0.7
			c0.1-0.1,0.5-0.3,0.6-0.3c0.1,0,1.9-1,1.9-1c0.1,0,0.2,0.2,0.2,0.2c0,0.1,0,0.2,0.1,0.4c0.1,0.1,0.1,0.2,0.1,0.4
			c0,0.1,0.8,1.9,0.9,2.3c0.1,0.4,1,2.5,1,2.8c0,0.3,0.5,1.5,0.5,1.7c0,0.1,0.2,0.5,0.2,0.7c0,0.2,0.1,0.4,0.1,0.4
			c0,0.1,0.7,1.9,0.7,2.1c0,0.2,0.3,1.4,0.3,1.5c0,0.2,0.2,0.5,0.2,0.7c0,0.2,0.1,0.3,0.1,0.4c0.1,0.1,0.3,1.1,0.3,1.4
			c0,0.3,0.2,1.2,0.3,1.4c0,0.3,0.2,0.9,0.2,1.1c0.1,0.2,0.1,0.6,0.2,0.7c0,0.3,0.2,0.9,0.2,1.1c0,0.2,0.1,0.5,0.1,0.7
			c0,0.2,0.4,2.2,0.4,2.4c0.1,0.3,0.2,2.4,0.2,2.5c0,0.1,0,0.4,0,0.5c0,0.1,0,0.7,0.1,0.9c0,0.2,0.2,1.6,0.1,1.7c0,0.1,0,2.2,0,2.5
			c0,0.3-0.1,2.1-0.2,2.3c-0.1,0.1-0.2,2.3-0.2,2.3s-0.4,0.3-0.7,0.3c-0.2,0.1-1.6,0.8-1.8,0.8c-0.2,0.1-0.9,0.4-1,0.4
			c-0.1,0-2.9,1.4-3,1.5c-0.1,0.1-0.9,0.4-1.1,0.5c-0.1,0-1.1,0.5-1.3,0.6c-0.3,0.1-0.6,0.3-0.9,0.5c-0.2,0.1-1,0.5-1.3,0.6
			c-0.4,0.1-0.3,0.1-0.5,0.1c-0.1,0-1.6,0.6-1.7,0.6c-0.2,0.1-0.5,0.2-0.6,0.2c-0.3,0.1-0.8,0.4-1,0.4c-0.2,0,0.1-0.4,0.2-0.5
			c0.3-0.3,1.9-2.5,1.9-2.7c0-0.1,0.1-0.1,0.2-0.2C83.9,97.7,83.9,97.6,84,97.5 M56.7,49.9c-0.1-0.1-0.5-0.6-0.6-0.7
			c-0.1-0.1-0.3-0.3-0.4-0.3c-0.2-0.2-0.4-0.4-0.3-0.3c0,0.1-0.4-0.4-0.5-0.5c-0.1-0.1-0.2-0.4-0.3-0.5c0-0.1-0.1-0.3-0.1-0.4
			c0-0.2-0.2-0.3-0.2-0.4c-0.1-0.1-0.3-0.5-0.4-0.7c0-0.1-0.1-0.2-0.2-0.3c-0.1-0.1-0.5-0.7-0.6-0.8c-0.1-0.1-0.4-0.3-0.5-0.4
			c-0.2-0.1-0.3-0.4-0.4-0.5c-0.1-0.1-0.6-0.8-0.7-0.9c-0.1-0.1-0.2-0.5-0.2-0.5c0-0.2-0.2-0.4-0.2-0.5c0-0.1-0.3-0.4-0.4-0.5
			c-0.1-0.1-1.3-1.9-1.4-2c-0.1-0.1-0.4-0.2-0.5-0.3c-0.1,0-0.5-0.6-0.5-0.6s0.2-0.1,0.5-0.3c0.3-0.2,0.8-0.5,1.1-0.6
			c0.3-0.2,1-0.6,1.3-0.8c0.3-0.1,0.7-0.4,0.7-0.4c0.1-0.1,0.2-0.1,0.4-0.2c0.1,0,0.5-0.2,0.8-0.3c0.3-0.1,1.7-0.9,2.1-1.1
			c0.4-0.2,2.5-1.3,2.8-1.5c0.4-0.2,2.9-1.5,3.1-1.6c0.2-0.1,0.3-0.2,0.4-0.2c0.1-0.1,0.5-0.3,0.7-0.3c0.2-0.1,1.1-0.6,1.4-0.8
			c0.3-0.2,0.7-0.3,0.9-0.4c0.3-0.1,1.6-0.8,1.8-1c0.3-0.2,1.1-0.6,1.2-0.7c0.1-0.1,0.4-0.3,0.4-0.3s0.5,0.4,0.5,0.5
			c0.1,0,1.1,1.1,1.3,1.2c0.1,0.1,1.1,1.2,1.2,1.3c0.1,0.2,0.6,0.8,0.8,0.9c0.2,0.2,0.7,0.8,0.9,0.9c0.2,0.2,0.7,0.6,0.8,0.8
			c0.1,0.1,0.7,0.8,0.8,0.9c0.1,0.2,0.4,0.4,0.5,0.6c0.1,0.1,0.2,0.4,0.3,0.6c0.1,0.1,0.5,0.6,0.6,0.7c0.1,0.1,0.4,0.4,0.5,0.4
			c0.1,0,0.3,0.4,0.5,0.6c0.2,0.2,0.4,0.5,0.6,0.6c0.1,0.1,0.7,0.9,0.8,1s0.7,0.9,0.8,1.1c0.1,0.1,0.3,0.4,0.4,0.4
			c0.2,0.1,0.2,0.3,0.3,0.4c0.1,0.1,0.3,0.5,0.5,0.6c0.1,0.1,0.3,0.4,0.4,0.6c0.1,0.2,0.3,0.5,0.4,0.6c0.2,0.1,1.3,1.9,1.4,2
			c0.1,0.1,0.6,0.9,0.7,1c0.2,0.2,0.2,0.3,0.3,0.5c0,0.1,0.2,0.3,0.2,0.4c0,0.1,0.4,0.6,0.5,0.7c0.1,0.1,0.4,0.9,0.6,1.1
			c0.2,0.2,0.3,0.5,0.3,0.6c0,0.1,0.2,0.4,0.3,0.5c0.1,0.1,0.3,0.5,0.3,0.5s0.5,1,0.6,1.1c0.1,0.1,0.3,0.5,0.4,0.6
			c0.1,0.2,0.2,0.3,0.3,0.4c0.1,0.1,0.5,0.7,0.5,0.8s0.4,0.5,0.3,0.6c0,0.1,0.3,0.6,0.4,0.7c0.1,0.1,0.2,0.4,0.3,0.5
			c0.1,0.1,0.2,0.4,0.3,0.5c0.1,0.1,0.2,0.4,0.2,0.5c-0.1,0.1,0,0.1-0.1,0.1c-0.1,0.1-0.6,0.3-0.8,0.3c-0.1,0-0.4,0.1-0.6,0.2
			c-0.2,0.1-0.6,0.4-0.8,0.5c-0.2,0.1-0.4,0.3-0.5,0.3c-0.1,0-0.3,0.1-0.5,0.2s-1.5,0.8-1.6,0.9c-0.1,0.1-1.7,0.9-1.7,0.9
			c-0.1,0-1.3,0.6-1.4,0.7c-0.1,0.1-0.8,0.5-0.9,0.6c-0.1,0.1-0.7,0.5-0.8,0.6c-0.1,0.1-0.9,0.4-1,0.4c-0.1,0,0.1-0.2,0.1-0.3
			c0-0.1,0.1-0.3,0.2-0.5c0-0.1,0.1-0.3,0.1-0.4c0-0.1,0.1-0.1,0.1-0.2c0.1-0.1,0.2-1.1,0.1-1.1c0-0.1,0.1-0.1,0.1-0.2
			c0,0,0-0.1,0-0.2c0-0.1,0.1-0.4,0.1-0.5c-0.1-0.1,0.2-1.5,0.2-1.6c0-0.1,0.1-0.3,0.1-0.4s0-0.2,0.1-0.2c0,0,0.1-0.8,0-0.9
			c0-0.1,0-0.2,0-0.3c0-0.1,0-0.2,0.1-0.3c0.1-0.1,0-0.2-0.1-0.3c-0.1-0.1,0.1-0.2,0.1-0.3c0-0.1,0-0.2,0.1-0.3c0-0.1,0-0.4-0.1-0.5
			c-0.1-0.1,0-0.5,0.1-0.6c0.1-0.1-0.1-0.3-0.1-0.4c-0.1-0.1,0-0.3,0.1-0.3c0-0.1-0.2-0.7-0.2-0.8c0-0.1-0.1-0.5,0-0.6
			c0-0.1-0.3-1.7-0.2-1.7c0,0-0.2-1.1-0.3-1.2c-0.2-0.4-0.6-1-0.6-1.6c0-0.1,0-0.7,0-0.8s-0.1-0.7-0.2-0.8c-0.1-0.1-0.1-0.2-0.2-0.4
			c-0.1-0.1-0.3-0.5-0.4-0.5c-0.1-0.1-0.7-0.6-0.8-0.5c-0.1,0-0.4,0-0.5-0.1c-0.2,0-0.1,0.1-0.3,0.1c-0.1,0-0.5,0.3-0.7,0.3
			c-0.2,0-0.2-0.1-0.3-0.1c-0.1-0.1-0.8-0.7-1.4-0.7c-0.1,0-0.3,0-0.5,0c-0.1,0-0.5,0.2-0.7,0.2c-0.9,0.2-2.2,1.2-2.2,1.3
			c0,0.1-0.1,0.1-0.2,0.2c0,0.1-0.4,0.4-0.6,0.6c-0.1,0.1-0.4,0.9-0.5,0.9c0,0.1,0,0.2-0.1,0.3c0,0.1,0,0.3-0.1,0.3
			c-0.1,0.1,0,0.1-0.1,0.2c-0.1,0.1-0.1,0.3-0.1,0.4c0,0.1-0.1,0.4-0.1,0.5c-0.1,0.1-0.1,0.3-0.1,0.5c0,0.1,0,0.4-0.1,0.4
			c-0.1,0,0,0.1,0,0.2c0,0.1-0.2,0.9-0.2,1c-0.1,0.1,0.1,1.2,0.1,1.3c0,0.1-0.1,0.1-0.1,0.2c0,0.1,0,0.2,0,0.3
			c-0.1,0.1,0,0.4,0.1,0.5c0,0-0.1,0.1-0.1,0.2c-0.1,0.1,0,0.6,0,0.7c-0.1,0.1,0.1,0.8,0,0.9c0,0.1,0.1,0.5,0,0.6
			c-0.1,0.1,0,1.1,0,1.2c0,0.1,0,0.5,0,0.6c0,0.1,0.2,0.7,0.1,0.8c0,0.1,0.1,0.5,0,0.6c-0.1,0.1,0,0.5,0,0.6
			c-0.1,0.1,0.1,0.3,0.2,0.4c0.1,0.1,0.1,0.7,0.1,0.8c0,0.1,0.1,0.6,0.1,0.7c0,0,0.2,0.5,0.1,0.5c-0.1,0,0,0.2,0,0.3
			c0,0,0.2,0.2,0.1,0.3c0,0,0.2,1,0.3,1c0.1,0.1,0.1,0.2,0.2,0.3c0,0.1,0.1,0.2,0.1,0.2c0,0,0.2,0.4,0.2,0.5c0,0.1,0.4,0.9,0.4,0.9
			c0,0,0.6,1,0.7,1c0.1,0,0,0.2,0,0.3c0,0.1-0.3,0.1-0.3,0.2c-0.1,0-0.3,0.1-0.4,0.2c-0.1,0.1-0.4,0.2-0.4,0.2
			c-0.1,0-0.4,0.3-0.4,0.3c-0.1,0.1-0.6,0.4-0.7,0.4c-0.1-0.1-0.4,0.1-0.4,0c-0.1,0-0.8,0.4-1,0.4c-0.2,0.1-0.5,0.3-0.5,0.4
			c0,0.1-0.3,0.3-0.3,0.2c0-0.1-0.2-0.3-0.2-0.4c0-0.1-0.1-0.2-0.1-0.3c0-0.1-0.2-0.4-0.2-0.5c-0.1-0.1-0.4-0.9-0.4-1
			c0-0.1-0.3-0.7-0.3-0.8c0-0.1-0.5-1-0.5-1.2c-0.1-0.2-0.3-0.6-0.4-0.7c-0.2-0.4-0.3-0.7-0.3-0.8c0-0.1-0.1-0.5-0.2-0.8
			c0-0.1-0.3-0.8-0.4-0.9c-0.1-0.1-0.6-1.3-0.8-1.5c-0.1-0.1-0.7-1.1-0.8-1.2c0-0.1-0.3-0.5-0.3-0.6c0-0.1-0.4-1-0.5-1.1
			c-0.1-0.1-0.4-0.5-0.4-0.6c0-0.1-0.1-0.2-0.2-0.3c0-0.1,0-0.1,0-0.2c0-0.1-0.1-0.3-0.2-0.4c-0.1-0.1-0.4-0.7-0.5-0.8
			c0-0.1-0.2-0.2-0.3-0.3c-0.1-0.1-0.1-0.1-0.2-0.2c0-0.1-0.1-0.2-0.2-0.2c-0.1,0-0.4-0.6-0.4-0.7c0-0.1-0.3-0.5-0.4-0.6
			c0-0.1-0.2-0.2-0.2-0.3C57,50.9,57,50.8,57,50.7c0-0.1,0-0.1,0-0.2C57,50.4,56.7,50,56.7,49.9 M46.7,18.1c0-0.1-0.2-0.7-0.3-0.8
			c-0.1-0.1-0.1-0.2,0-0.2c0-0.1,0-0.3,0-0.4c0-0.1,0-0.2-0.1-0.2c0-0.1-0.1-0.1-0.1-0.2c0.1-0.1,0-0.2-0.1-0.2
			c-0.1-0.1-0.1-0.1-0.1-0.2c0-0.1,0-0.2,0.1-0.2c0,0,0-0.1-0.1-0.2c-0.1-0.1,0.1-0.2,0.1-0.2c0,0,0.1-0.2,0.1-0.2
			c0-0.1,0.1-0.2,0-0.3c0-0.1,0-0.1,0.1-0.1c0.1,0,0.3,0,0.3,0.1c0.1,0,0.3,0.1,0.3,0.1c0.1,0,0.1,0,0.2,0c0.1,0,1,0.4,1.1,0.5
			c0.1,0.1,1,0.5,1.1,0.5c0.1,0.1,0.9,0.5,1.3,0.7c0.1,0.1,0.7,0.3,0.9,0.3c0.1,0,0.4,0.1,0.5,0.2c0.1,0,0.4,0.2,0.5,0.2
			c0.1,0,0.7,0.4,0.8,0.4c0.1,0,1,0.5,1.1,0.6c0.1,0,0.4,0.1,0.5,0.2c0.1,0,0.5,0.3,0.6,0.4c0,0.1,0.8,0.5,0.9,0.6
			c0.1,0.1,1.7,1.2,1.9,1.3c0.2,0.1,0.7,0.5,0.8,0.5c0.1,0.1,1.9,1.4,2,1.4c0.1,0.1,1.5,1.2,1.6,1.2c0.1,0.1,1.1,0.8,1.1,0.9
			c0.1,0.1,0.3,0.2,0.5,0.3c0.1,0,0.3,0.2,0.4,0.3c0.1,0.1,0.5,0.4,0.6,0.5c0.2,0.2,0.4,0.3,0.5,0.3c0,0,0.2,0.2,0.3,0.2
			c0.1,0.1,0.3,0.1,0.3,0.2c0,0.1-0.2,0.1-0.2,0.2c-0.1,0-0.1,0.1-0.2,0.1c-0.1,0-0.3,0.2-0.4,0.2c0,0-0.3,0.1-0.3,0.2
			c-0.1,0-0.2,0.1-0.2,0.1s-0.2,0-0.3,0.1c-0.1,0.1-0.6,0.3-0.8,0.4c-0.3,0.1-0.5,0.3-0.7,0.4c-0.1,0.1-0.4,0.2-0.4,0.2
			c-0.1,0-0.2,0.2-0.4,0.2c-0.1,0-0.3,0.2-0.4,0.2c-0.1,0-0.3,0.2-0.4,0.2c-0.1,0.1-0.4,0.3-0.5,0.3c-0.1,0.1-0.3,0.2-0.3,0.2
			c-0.1,0-0.7,0.4-0.8,0.4c-0.1,0-0.5,0.3-0.6,0.3c-0.1,0-0.7,0.3-0.8,0.4c-0.1,0.1-1.2,0.6-1.3,0.6c-0.1,0-0.5,0.2-0.6,0.3
			c-0.1,0-0.4,0.2-0.6,0.3c-0.1,0.1-0.3,0.2-0.4,0.3c0,0.1-0.4,0.2-0.5,0.3c-0.1,0-0.1,0-0.2-0.1c0-0.1,0.1-0.1,0.1-0.1
			c0,0,0.2-0.4,0.2-0.4c0.1,0,0.2-0.3,0.3-0.4c0.1,0,0.3-0.7,0.2-0.8c-0.1-0.1,0-0.3,0.1-0.3c0,0,0.1-0.3,0.1-0.4
			c0-0.1-0.1-0.1-0.1-0.2c0-0.1,0.1-0.2,0.1-0.3c0.1-0.1,0.1-0.3,0.1-0.4c0-0.1,0-0.2,0-0.3c0-0.1,0-0.2,0-0.3c0-0.1-0.1-0.3,0-0.4
			c0-0.1-0.1-0.2-0.1-0.3c0-0.1,0.1-0.1,0.2-0.2c0-0.1-0.1-0.1-0.1-0.2c0-0.1,0-0.5-0.1-0.7c0-0.1-0.1-0.3-0.1-0.4
			c0-0.1,0-0.2-0.1-0.3c-0.1-0.1-0.1-0.2-0.1-0.3c0-0.1-0.1-0.1,0-0.2c0-0.1-0.1-0.3-0.2-0.4c0-0.1-0.2-0.3-0.2-0.4
			c0-0.1,0-0.2,0-0.3c0-0.1-0.1-0.3-0.2-0.4c-0.1-0.1-0.1-0.2-0.1-0.3c0-0.2,0-0.3-0.2-0.4c-0.2-0.1-0.1-0.3-0.1-0.4
			c0-0.1-0.2-0.3-0.2-0.3c0,0-0.2-0.2-0.1-0.3c0-0.1-0.1-0.3-0.2-0.4c-0.1-0.2-0.4-0.8-0.4-0.9c0,0-0.2-0.2-0.2-0.2
			c0-0.1-0.3-0.6-0.4-0.6c-0.1-0.1-0.4-0.3-0.4-0.4c0-0.1-0.3-0.3-0.3-0.4c-0.1-0.2-1-0.6-1.2-0.7c-0.2-0.1-0.5-0.3-0.6-0.3
			c-0.2,0-0.2,0-0.3,0c-0.1,0-0.2,0-0.3,0c-0.1,0-0.2,0-0.3,0c-0.1,0-0.7,0.2-0.8,0.3c-0.1,0.1-0.4,0.3-0.4,0.4
			c0,0.1-0.2,0.1-0.2,0.2c-0.1,0.1,0,0.2-0.1,0.2c0,0-0.1,0.1-0.2,0.2c-0.1,0.1,0.1,0.1,0,0.2c-0.1,0.1,0,0.3,0,0.4
			c0,0.1-0.6,0-0.7,0s-0.1-0.5-0.2-0.5c-0.1,0-0.3-0.9-0.3-1c-0.1-0.1-0.1-0.2-0.1-0.3c0-0.1,0-0.2,0-0.2
			C46.8,18.2,46.7,18.2,46.7,18.1 M47.5,20.4c0.1,0,0.4,0,0.4,0s0.4-0.1,0.4,0c0,0.2,0.1,0.4,0.1,0.6c0,0.1,0.1,0.3,0.2,0.4
			c0.3,0.3,0.7,0.6,0.8,0.7c0.1,0.1,0.5,0.3,0.6,0.4c0.1,0.1,0.3,0.2,0.4,0.3c0.2,0.1,0.4,0.1,0.6,0.1c0.1,0,0.3-0.1,0.4-0.2
			c0.1-0.1,0.2,0,0.3,0.1c0.1,0.1,0.5,0.3,0.6,0.5c0,0,0.1,0.3,0.1,0.4c-0.1,0.1,0.1,0.2,0,0.2c0,0,0.1,0.2,0.1,0.2
			c0,0.1,0.1,0.4,0.1,0.5c0,0.1,0.1,0.3,0.1,0.4c0,0.1,0.2,0.2,0.2,0.3c0,0.1,0,0.2,0,0.2c0,0.1,0.1,0.2,0.2,0.3
			c0,0.1,0,0.4,0.1,0.5c0.1,0.1,0,0.4,0,0.4c0,0.1,0,0.2,0,0.3c0,0.1,0.1,0.3,0.1,0.3c0,0,0.1,0.2,0.1,0.5c0,0.1,0,0.5,0,0.6
			c0,0.1-0.1,1.1-0.1,1.2c0,0.1,0,0.5-0.1,0.5c-0.1,0-0.1-0.4-0.1-0.5c0-0.1-0.2-0.2-0.3-0.4c-0.1-0.1-0.4-0.3-0.4-0.4
			c0-0.1,0-0.2,0-0.3c0-0.1-0.5-0.4-0.6-0.5c-0.1-0.1-0.3-0.3-0.3-0.4c0-0.1-0.1-0.1-0.1-0.2c0-0.1-0.3-0.3-0.4-0.4
			c-0.1-0.1-0.3-0.5-0.2-0.6c0-0.1-0.3-0.4-0.3-0.5c0,0-0.2-0.3-0.2-0.5c-0.1-0.2-0.5-1-0.6-1.1c-0.1-0.1-0.5-0.7-0.6-0.8
			c0-0.1-0.3-0.8-0.4-0.9c0-0.1-0.1-0.2-0.1-0.3c-0.1-0.1-0.2-0.4-0.3-0.4c-0.4-0.5-0.4-1.1-0.5-1.1C47.5,20.6,47.4,20.5,47.5,20.4
			 M92,33.1c-0.1,0.1,0.1,0.3,0,0.4c0,0.1,0.1,0.3,0.1,0.4c-0.1,0.1,0,0.3,0,0.5c0,0.1,0.4,0.9,0.3,1c-0.1,0.1,0.2,0.5,0.1,0.6
			C92.3,36,93,37.2,93,37.3c0,0.1,0.2,0.6,0.3,0.6c0.1,0.1,0.1,0.2,0.1,0.3c0,0.1,0.1,0.2,0.1,0.3c0.1,0.1,0.1,0.3,0.1,0.4
			c-0.1,0.1,0,0.1,0,0.3c0,0.1-0.5,0.5-0.5,0.7c0,0.1,0,0.1-0.1,0.2c-0.1,0.1-0.3,0.4-0.4,0.4c-0.1,0.1-0.5,0.4-0.6,0.4
			c-0.1,0.1-0.2,0.1-0.3,0c-0.1,0-0.2-0.2-0.2-0.3c0-0.1,0-0.2,0-0.3c0-0.1-0.2-0.6-0.1-0.7c0-0.1,0-0.2-0.1-0.3
			c-0.1-0.1-0.1-0.5-0.1-0.6c0-0.1-0.1-0.3-0.1-0.4c0-0.1,0-0.2-0.1-0.3c0-0.1-0.1-0.2-0.2-0.3c-0.1-0.2-0.2-0.2-0.2-0.4
			c0-0.1-0.1-0.4-0.2-0.5c-0.1-0.1-0.2-0.3-0.2-0.4C90,35.9,90,36,90,35.9c0-0.1-0.1-0.2-0.2-0.3c-0.1-0.2-0.3-0.4-0.4-0.5
			c-0.2-0.1-0.2-0.4-0.3-0.5c-0.1-0.1-0.5-0.4-0.6-0.4c-0.1,0-0.2,0-0.3,0.1c-0.1,0.1-0.4,0.4-0.6,0.5c-0.3,0.2-0.1,0.2-0.2,0.3
			c-0.1,0.1-0.2,0.2-0.4,0.5c-0.1,0.2,0.1,0.5,0.2,0.6c0.1,0.1,0.2,0.5,0.2,0.8c0,0.1,0.2,0.3,0.3,0.4s0.1,0.3,0.1,0.4
			c0.1,0.1,0.3,0.4,0.3,0.5c0.3,0.5,0.5,1.3,0.5,1.4c0,0.1,0.1,0.6,0.1,0.7c0,0.1,0.1,0.7,0.1,0.8c0,0.1,0.1,0.8,0.2,1
			c0.1,0.1,0.2,1,0.2,1.1c0,0.1,0.1,0.3,0,0.4c0,0.1-0.1,0.3,0,0.4c0.1,0.1-0.1,0.2-0.2,0.3c-0.1,0-0.2,0.3-0.3,0.3
			c-0.2,0.2-0.5,0.7-0.6,0.9c-0.1,0.1-0.2,0.2-0.2,0.3c0,0.1-0.4,0.6-0.3,0.7c0.1,0.1-0.1,0.2-0.2,0.3c-0.1,0.1,0,0.1-0.1,0.3
			c0,0.1,0,0.3-0.1,0.3c-0.1,0-0.2,0.4-0.3,0.5C87,48.1,87,48.3,87,48.5c0,0.1-0.1,0.2-0.2,0.1c-0.1,0,0-0.2,0-0.3
			c0-0.1-0.1-0.3-0.2-0.4c-0.1-0.1-0.2-0.3-0.3-0.4c-0.1-0.1-0.5-0.7-0.6-0.9c-0.1-0.2-0.2-0.4-0.2-0.5c0-0.1-0.2-0.4-0.3-0.6
			c-0.1-0.1-0.5-0.7-0.6-0.8c-0.1-0.1-0.1-0.2-0.2-0.3c-0.1-0.1-0.2-0.2-0.2-0.3c0-0.1-0.1-0.1-0.1-0.2c0-0.1-0.3-0.4-0.4-0.6
			c-0.1-0.1-0.3-0.4-0.3-0.4c-0.1,0-0.2-0.3-0.2-0.4c-0.1-0.1-0.3-0.5-0.4-0.6c-0.1-0.1-0.2-0.2-0.2-0.3c0-0.1-1.5-2-1.6-2.1
			c-0.1-0.1-0.3-0.3-0.3-0.3c-0.1,0-0.3-0.2-0.4-0.3c-0.1-0.1-0.2-0.3-0.3-0.4c0-0.1-0.4-0.6-0.5-0.7c-0.1-0.1-0.2-0.1-0.3-0.2
			c0-0.1-0.4-0.5-0.5-0.7c-0.1-0.1-0.8-0.8-0.8-0.9c-0.1-0.2-0.7-0.6-0.9-0.8c-0.2-0.3-0.8-1.1-1-1.3c-0.1-0.1-0.6-0.6-0.6-0.7
			c0-0.1-0.3-0.3-0.4-0.4c-0.1-0.1-0.6-0.6-0.7-0.8c-0.1-0.1-0.4-0.4-0.5-0.5c-0.1-0.1-0.9-0.9-1-1c-0.1-0.1-0.7-0.8-0.7-0.9
			c0-0.1-1.3-1.1-1.4-1.1c-0.1,0-1.2-1.1-1.2-1.1c0,0,0.2-0.1,0.2-0.1c0.1,0,0.3-0.1,0.5-0.1c0.2-0.1,0.8-0.4,0.9-0.4
			c0.1,0,0.3-0.2,0.5-0.2c0.2,0,0.7-0.3,0.8-0.4c0.1-0.1,0.7-0.4,0.8-0.4c0.1,0,1.6-0.8,1.8-0.9c0.2-0.1,1-0.5,1-0.5
			c0.1,0,0.8-0.4,0.9-0.4c0,0,0.5-0.3,0.7-0.4c0.1-0.1,0.3-0.1,0.3-0.1s0.3-0.1,0.5-0.2c0.2-0.1,0.8-0.4,0.9-0.5
			c0.1-0.1,0.4-0.2,0.4-0.2s0.3-0.2,0.4-0.2c0.1,0,0.7-0.3,0.9-0.4c0.2-0.1,0.7-0.4,0.7-0.4s0.2,0.1,0.3,0.2
			c0.1,0.1,0.4,0.3,0.5,0.4c0,0.1,0.5,0.5,0.7,0.6c0.2,0.1,0.8,0.6,1.1,0.8c0.2,0.2,1.4,1.2,1.5,1.3c0.1,0.1,0.6,0.4,0.7,0.5
			c0.1,0.1,0.4,0.4,0.4,0.5c0,0.1,1.3,1.2,1.8,1.6c0.5,0.5,1.7,1.7,2,1.9c0.3,0.2,1.7,1.9,1.9,2c0.1,0.1,0.2,0.2,0.1,0.2
			c-0.1,0-0.5,0.3-0.5,0.3c0,0.1-0.2,0.5-0.2,0.6C92,32.7,92.1,33,92,33.1 M94.5,43c0.1,0.1,0,0.1,0,0.2c0,0.1,0,0.3,0,0.4
			c0,0.1,0,0.1,0,0.3c0.1,0.2,0.1,0.6,0.1,0.7c0,0.2,0,0.3,0,0.5c0,0.3-0.1,0.4,0.1,0.6c0.1,0.2,0.2,0.5,0.2,0.6
			c-0.1,0.1,0,0.2,0,0.3c0,0.2,0,0.1,0.1,0.3c0.1,0.2,0.1,0.4,0,0.5c0,0.1,0.1,0.2,0.1,0.5s-0.1,0.1,0,0.3c0,0.1,0.2,0.3,0.2,0.5
			c-0.1,0.2-0.1,0.6-0.1,0.7c-0.1,0.1,0,0.2,0.1,0.3c0,0.2-0.1,0.3,0,0.4c0,0.1,0,0.1,0,0.2c0,0.1,0,0.2-0.1,0.3
			c-0.1,0.2-0.1,0.2-0.1,0.4c0,0.1-0.1,0.2-0.1,0.4c0,0.2-0.1,0.2,0,0.3c0.1,0.2,0.1,0.3,0.1,0.3c0,0.1,0.1,0.1,0.2,0.1
			c0,0.1-0.2,0.2-0.4,0.3c-0.1,0-0.1,0.1-0.2,0.1c-0.1,0-0.5,0.2-0.7,0.4c-0.2,0.1-1.6,1-2,1.3c-0.1,0.1-0.6,0.3-0.6,0.4
			c-0.1,0.1-0.3,0.2-0.5,0.1c-0.1-0.1-0.3-0.5-0.4-0.6c-0.1-0.1-0.7-1.4-0.8-1.5c-0.1-0.2-0.2-0.3-0.3-0.4c-0.1-0.1-0.3-0.5-0.4-0.6
			c0-0.1,0-0.2-0.1-0.2c-0.1,0-0.2,0-0.2-0.2c0-0.1-0.2-0.2-0.1-0.2c0,0,0.2-0.1,0.3-0.1c0.1-0.1,0.3-0.2,0.4-0.3
			c0.1-0.1,0.2-0.2,0.4-0.3c0-0.1,0.2-0.2,0.2-0.3c0-0.1,0-0.3,0.1-0.3c0.1-0.1,0.1-0.2,0.1-0.2c0-0.1-0.1-0.2,0.1-0.3
			C90,49,90,48.9,90,48.7c0-0.1,0.2-0.4,0.2-0.5c0-0.1,0.3-0.6,0.4-0.7c0.1-0.1,0.1-0.2,0.2-0.3c0.1-0.1,0-0.2,0.2-0.3
			c0.1-0.1,0.2-0.1,0.1-0.3c0-0.1,0-0.2,0.1-0.3c0.1-0.1,0.2-0.3,0.2-0.4c0-0.1,0-0.2,0.2-0.2c0.2-0.1,0.5-0.4,0.5-0.5
			c0-0.1,0.1-0.1,0.2-0.2c0.1-0.1,0.3-0.2,0.3-0.3c0-0.1,0.1-0.2,0.2-0.3c0.1-0.1,0.2-0.2,0.2-0.3c0-0.1,0.1-0.2,0.2-0.2
			c0.1,0,0.3-0.3,0.3-0.4c0.1-0.1,0.1-0.1,0.2-0.2c0.1-0.1,0-0.2,0.1-0.3c0.1-0.1,0.1-0.1,0.1-0.3c0.1-0.1,0.1-0.2,0.1-0.3
			c0-0.1,0.1-0.2,0.2-0.2c0.1,0,0.2,0.1,0.3,0.2c0.1,0.1,0.2,0.1,0.1,0.2C94.6,42.9,94.4,42.9,94.5,43 M98.1,49.9c0-0.1,0-0.2,0-0.3
			c0-0.1-0.2-0.7-0.2-0.9c0-0.2-0.1-0.3,0-0.4c0.1-0.1-0.1-0.4-0.1-0.5c0-0.1-0.2-0.9-0.2-1c0-0.1,0-0.3-0.1-0.4
			c-0.1-0.1-0.1-0.4-0.1-0.6c0-0.1,0-0.4,0-0.5c0-0.1,0-0.2,0-0.3c0-0.1-0.2-0.9-0.2-1c0-0.1,0-0.6,0-0.6c0-0.1-0.1-0.3-0.1-0.4
			c0-0.2,0.1-0.3,0-0.4c-0.1-0.2,0.1-0.6,0.1-0.7c0-0.1,0-0.1,0-0.2c0-0.1,0-0.1,0-0.2c0-0.1-0.1-0.2-0.1-0.4c0-0.2,0-0.8,0-1
			c0-0.2-0.1-0.6-0.1-0.7c0-0.1-0.1-0.5-0.2-0.6c-0.1-0.1-0.1-0.4-0.2-0.5c-0.1-0.1-0.2-0.2-0.2-0.3c-0.1-0.1-0.1-0.3-0.2-0.3
			c-0.1-0.1-0.1-0.2-0.2-0.2c-0.1,0-0.3-0.7-0.4-0.7c-0.1-0.1-0.2-0.8-0.2-0.8c0-0.1-0.2-1.2-0.2-1.3c0-0.1-0.2-0.5-0.2-0.6
			c0,0,0.2,0.1,0.3,0.2c0.1,0.1,0.8,1.1,1,1.3c0.2,0.2,1,1.2,1.1,1.4c0.2,0.2,1,1.3,1.1,1.5c0.2,0.2,0.8,1.2,1,1.4
			c0.1,0.2,0.6,0.9,0.8,1.2c0.2,0.3,0.8,1.4,1.1,1.8c0.3,0.4,0.7,0.9,0.8,1.2c0.1,0.2,0.5,0.9,0.6,1c0,0.1,0.4,1.1,0.5,1.1
			c0.1,0.1,0.2,0.1,0.2,0.2c0,0.1,0.1,0.3,0.1,0.4c0,0.1,0.1,0.2,0,0.2c-0.1,0-0.3,0.3-0.6,0.4c-0.1,0-0.3,0.2-0.5,0.4
			c-0.1,0-0.3,0.3-0.4,0.4c-0.1,0-0.3,0.2-0.4,0.3c-0.1,0.1-0.1,0.1-0.2,0.2c-0.1,0-0.4,0.3-0.4,0.2c0-0.1-0.7,0.4-0.8,0.5
			c-0.1,0.1-0.2,0.1-0.2,0.2c0,0.1-0.1,0.1-0.2,0.2c-0.1,0.1-0.2,0.2-0.3,0.2c-0.1,0-0.7,0.2-0.8,0.3c-0.1,0.1-0.6,0.5-0.7,0.5
			c-0.1,0-0.1-0.2,0-0.3C98.1,50.1,98,50,98.1,49.9 M76.5,54.5c0,0.1,0,0.6,0,0.8c0,0.2,0,0.3,0,0.4c-0.1,0.1,0,1.2-0.2,1.3
			c-0.1,0.1-0.1,0.9-0.3,1.3c-0.1,0.1,0,0.3-0.1,0.4c-0.1,0.1-0.2,0.5-0.3,0.7c0,0.2,0,0.5-0.1,0.7c-0.1,0.2-0.3,0.3-0.3,0.4
			c0,0.1,0,0.2-0.1,0.3c-0.1,0.1-0.3,0.1-0.5,0.1c-0.2,0-0.4-0.1-0.5-0.3c-0.1-0.1-0.2-0.1-0.2-0.2c-0.1-0.1-0.5-0.6-0.6-0.6
			c-0.1,0-0.3-0.1-0.3-0.3c-0.1-0.2-0.3-0.4-0.3-0.5c0-0.2-0.1-0.3-0.2-0.5c-0.1-0.1-0.1-0.4-0.1-0.5c0-0.3-0.3-1.2-0.4-1.4
			c-0.1-0.2-0.2-0.8-0.3-1c-0.1-0.1-0.1-0.5-0.1-0.7c0-0.2-0.1-0.3-0.2-0.5c-0.1-0.2,0-0.7-0.1-0.9c0-0.3-0.1-1-0.1-1.1
			c0-0.1,0-0.3,0-0.4c-0.1-0.1,0-0.5,0-0.7c0-0.1,0-1.1,0-1.3c0-0.3,0.1-0.9,0-1c-0.1-0.2,0-1.1,0-1.2c0-0.1,0.1-0.6,0.1-0.7
			c0-0.1,0-0.2,0-0.2c0.1-0.1,0-0.4,0.1-0.5c0.1-0.2,0.5-0.7,0.5-0.7c0-0.1,0.7-0.4,0.7-0.4c0-0.1,0.1,0,0.1-0.1
			c0.1,0,0.1,0.1,0.1,0.2c0.1,0,0,0.2,0,0.2c0,0.1,0,0.1-0.1,0.2c-0.1,0.1,0.4,1.2,0.5,1.4c0.2,0.2,0.6,0.7,0.7,0.7
			c0.1,0.1,0.4,0.2,0.6,0.2c0.2,0,0.2,0,0.4,0c0.2,0,0.3,0.1,0.5,0c0.1,0,0.3-0.1,0.4-0.1c0.1,0,0.1,0.2,0.1,0.4
			c0,0.1,0.2,0.8,0.2,1c0,0.1,0,0.2,0,0.3c-0.1,0.1,0,0.2,0,0.3c0,0.1,0.2,0.8,0.2,0.9c0,0.1,0,0.7,0.1,0.8c0.1,0.1,0.1,0.7,0.1,0.8
			c0,0.1,0.2,0.9,0.2,0.9c-0.1,0.1-0.1,0.2-0.1,0.4c0,0-0.1,0.2-0.1,0.2C76.4,54.4,76.5,54.5,76.5,54.5 M105.5,88.2
			c0.1-0.1,0.4-0.6,0.4-0.7c0-0.1,0.2-0.5,0.3-0.7c0.1-0.3,0.2-0.4,0.3-0.5c0.1-0.2,0.3-0.6,0.3-0.8c0-0.2,0.3-0.6,0.3-0.7
			c0-0.2,0.3-0.6,0.4-0.9c0.1-0.2,0.2-0.5,0.3-0.8c0.1-0.3,0.2-0.4,0.3-0.5c0.1-0.1,0.1-0.2,0.1-0.3c0-0.1,0.2-0.4,0.2-0.5
			c0-0.2,0.2-0.8,0.2-1c0-0.4,0-0.4,0.1-0.6c0.1-0.2,0.2-0.9,0.3-1c0-0.1,0.1-0.5,0.1-0.6c0-0.2,0.2-0.6,0.2-0.8c0-0.3-0.1-0.7,0-1
			c0.1-0.3,0-0.9,0-1c0-0.1,0-0.2,0-0.3c0-0.1-0.1-0.4-0.1-0.5c0-0.2,0-0.3-0.1-0.4c0-0.2-0.1-0.5-0.2-0.8c0-0.2-0.2-0.7-0.3-0.8
			c0-0.1-0.2-0.1-0.3-0.1c-0.1,0-0.3,0.2-0.4,0.3c-0.1,0.1-0.2,0.2-0.4,0.3c-0.1,0.1-0.5,0.4-0.6,0.5c-0.1,0.1-0.2,0.3-0.3,0.4
			c-0.1,0.1-0.2,0.3-0.4,0.5c-0.1,0.1-0.5,0.5-0.6,0.7c-0.2,0.2-0.3,0.4-0.3,0.4c0,0.1-0.4,0.4-0.5,0.5c0,0.1-0.1,0.1-0.2,0.2
			c-0.1,0.1-0.2,0.2-0.2,0.2c-0.1,0.1-0.1,0.1-0.2,0.2c-0.1,0.1-0.1,0.1-0.2,0.1c-0.1,0-0.1-0.2-0.1-0.4c0-0.1,0.2-0.2,0.2-0.3
			c0-0.1,0-0.2,0.1-0.3c0-0.1,0-0.2,0.1-0.3c0-0.1,0.1-0.2,0.1-0.4c0-0.1,0-0.2,0-0.3c0-0.1,0-0.1,0-0.2c0-0.1,0.1-0.3,0.1-0.4
			c0-0.1,0-0.3,0.1-0.3c0-0.1,0-0.2,0-0.2s0.4-0.9,0.4-0.9c0-0.1,0.1-0.2,0.1-0.3c0-0.2,0-0.2,0.1-0.3c0-0.1,0.1-0.2,0.1-0.3
			c0.1-0.1,0.1-0.2,0.1-0.3c0-0.1,0.1-0.2,0.1-0.2c0,0,0.1-0.1,0.1-0.2c0-0.1,0-0.1,0-0.1c0.1-0.1,0.2-0.2,0.3-0.1
			c0.1,0.1,0.1,0.3,0.1,0.4c0,0.1-0.1,0.3-0.1,0.4c0,0.1-0.2,0.4-0.2,0.5c-0.1,0.5,0.2,1,0.2,1.1c0,0.1,0.2,0.2,0.3,0.2
			c0.3,0,0.8-0.6,0.9-0.7c0.1-0.1,0.1-0.2,0.2-0.3c0-0.1,0.1-0.2,0.2-0.4c0-0.1,0.1-0.3,0.1-0.4c0-0.1,0-0.2,0.1-0.4
			c0.1-0.2,0-0.3,0.1-0.4c0-0.1,0-0.2,0-0.3c0-0.1-0.2-0.5,0.1-0.3c0.1,0,0.1,0,0.3,0c0.3,0,0.7-0.5,0.8-0.6
			c0.1-0.1,0.5-0.8,0.6-0.9c0.1-0.1,0.2-0.3,0.2-0.4c0.1-0.1,0.2-0.3,0.3-0.4c0.1-0.1,0.3-0.4,0.4-0.6c0.1-0.1,0.1-0.3,0.1-0.4
			c0.1-0.1,0.1-0.5,0.2-0.6c0.1-0.1,0.1-0.4,0.1-0.5c0-0.2,0-0.2,0-0.4c0.1-0.2,0-0.2,0.1-0.4c0-0.1,0.1-0.3,0.1-0.4
			c0-0.1,0.1,0.1,0,0.3c-0.1,0.2,0,0.2,0,0.3c0,0.1,0.1,0.5,0.1,0.6c0,0.2,0.1,0.7,0.1,0.9c0,0.2,0.3,1.6,0.4,1.9
			c0.1,0.2,0.2,1.1,0.2,1.2c0,0.1,0.1,1,0.1,1.3c0,0.2,0.1,0.8,0.1,0.9c0,0.1,0.2,1.4,0.2,1.5c0,0.1,0,0.6,0,0.7
			c0,0.1,0,0.3,0.1,0.5c0,0.3,0.1,1.8,0.1,2.3c0,0.5,0.1,1.9,0.1,2.4c0,0.6,0,2.2,0,2.4c0,0.2,0.1,0.2,0.1,0.3
			c0,0.1-0.3,0.3-0.4,0.3c-0.1,0-0.3,0.1-0.4,0.2c-0.1,0.1-0.6,0.4-0.7,0.4c-0.1,0-0.6,0.5-0.7,0.6c-0.2,0.2-0.3,0.3-0.4,0.4
			c-0.1,0.1-0.3,0.3-0.5,0.4c-0.2,0.2-0.4,0.3-0.5,0.4c-0.1,0.1-0.7,0.5-0.8,0.6c-0.1,0.1-0.2,0.1-0.3,0.3c-0.2,0.1-0.2,0.1-0.3,0.2
			c-0.1,0.1-0.7,0.5-0.8,0.7c-0.1,0.1-0.2,0.2-0.3,0.3c-0.1,0.1-0.3,0.3-0.5,0.4c-0.1,0.1-0.3,0.1-0.4,0.2c-0.1,0.1-0.4,0.3-0.5,0.4
			c-0.1,0.1-0.3,0.1-0.3,0C105.1,88.8,105.5,88.4,105.5,88.2 M86.6,19.7c0-0.1,0.1-0.1,0.2-0.1c0.1,0,0.2-0.1,0.3-0.1
			c0.1,0,0.2-0.1,0.4-0.1c0.2-0.1,0.3-0.1,0.5-0.2c0.2,0,0.3-0.1,0.4-0.1c0.4,0.2,1.1,0.7,1.2,0.8c0.7,0.5,2,1.3,2.3,1.6
			c0.5,0.4,1.1,0.7,1.4,1c0.3,0.2,0.7,0.5,1.2,0.9c1,0.8,2.1,1.7,2.8,2.2c0.2,0.2,1.7,1.7,1.8,1.7c0.1,0.1,1.2,1.2,1.7,1.7
			c0.1,0.1,1.1,1.3,1.1,1.4c0.3,0.4,0.7,0.9,0.9,1.2c0.1,0.1,0.1,0.1,0.2,0.2c0.1,0.1,0.1,0.1,0.1,0.1c0,0-0.1,0.3-0.1,0.4
			c0,0.1,0,0.2,0,0.4c0,0.1-0.1,0.2-0.1,0.4c0,0.1,0,0.1-0.1,0.2c-0.1,0-0.1-0.1-0.2-0.2c0-0.1-0.1-0.2-0.2-0.4
			c-0.1-0.1-0.1-0.3-0.2-0.4c-0.1-0.2-0.1-0.2-0.2-0.3c0-0.1-0.1-0.3-0.2-0.4c0-0.1-0.3-0.4-0.3-0.5c-0.1-0.2-0.2-0.4-0.3-0.5
			c-0.1-0.1-0.2-0.3-0.3-0.4c0-0.1-0.3-0.4-0.4-0.5c-0.1-0.1-0.2-0.3-0.3-0.3c-0.1-0.1-0.2-0.3-0.3-0.5c-0.1-0.2-0.5-0.6-0.6-0.7
			c-0.1-0.1-0.3-0.4-0.4-0.5c-0.1-0.1-0.3-0.5-0.5-0.6c-0.2-0.1-0.5-0.2-0.6-0.1c-0.1,0.1-0.1,0.1-0.2,0.2c-0.1,0.1,0,0.5,0.2,0.7
			c0.1,0.1,0.4,0.5,0.4,0.6c0,0.1,0.7,1,0.8,1.2c0.1,0.1,0.4,0.5,0.5,0.7c0.1,0.1,0.3,0.4,0.3,0.6c0.1,0.1,0.6,0.9,0.6,1
			c0.1,0.1,0.3,0.6,0.3,0.7c0.1,0.1,0.2,0.4,0.3,0.8c0.2,0.3,0.2,0.4,0.3,0.6c0,0.1,0.2,0.4,0.3,0.7c0.1,0.2,0.2,0.6,0.3,0.7
			c0.1,0.1,0.1,0.6,0.1,0.8s0,0.4,0,0.5c0,0.1-0.1,0.5-0.1,0.6c0.1,0.8,0.7,1.4,0.7,1.5c0,0.1,0.4,0.3,0.6,0.3c0.1,0,0.2,0,0.3,0
			c0.3-0.1,0.4-0.3,0.6-0.4c0.1-0.1,0.2-0.3,0.2-0.4c0-0.2,0-0.6,0-0.6c0-0.2,0.1-0.9,0.1-1c0.1-0.3,0.1-0.6,0.1-0.9
			c0-0.1,0.1-0.4,0-0.6c0-0.1-0.1-0.2,0-0.4c0-0.1-0.1-0.3-0.1-0.3c0-0.1-0.1-0.2,0-0.1c0.2,0.3,0.5,0.6,0.6,0.7
			c0,0.1,0.3,0.4,0.4,0.4c0,0.1,0.2,0.3,0.3,0.3c0,0.1,0.2,0.3,0.3,0.4c0.1,0.1,0.3,0.5,0.4,0.6c0.1,0.1,0.3,0.4,0.3,0.6
			c0.1,0.1,0.2,0.4,0.3,0.5c0.1,0.2,0.6,1.2,0.7,1.3c0,0.2,0.3,0.6,0.4,0.8c0.1,0.2,0.1,0.2,0.2,0.5c0.1,0.3,0.5,1.2,0.5,1.3
			c0.1,0.2,0.1,0.4,0.1,0.5c0,0.1-0.3,0.3-0.4,0.4c-0.1,0.1-0.2,0.2-0.3,0.2c0,0-0.1,0.2-0.2,0.2c-0.1,0.1-0.4,0.4-0.6,0.5
			c-0.1,0.1-0.3,0.3-0.4,0.4c-0.1,0.1-0.4,0.4-0.5,0.6c-0.2,0.1-0.4,0.3-0.4,0.4c0,0.1-0.1,0.1-0.1,0.2c0,0.1-0.1,0.1-0.2,0.1
			c-0.1,0-0.2-0.1-0.2-0.1c-0.1-0.1-0.1-0.2-0.1-0.3c0-0.1-0.4-0.7-0.4-0.8c0-0.1-0.2-0.4-0.3-0.5c-0.1-0.1-0.2-0.4-0.3-0.5
			c0-0.1-0.6-1-0.6-1.1c0-0.1-0.2-0.3-0.4-0.6c-0.1-0.2-0.7-1-0.9-1.3c-0.2-0.3-0.5-0.8-0.7-1.1c-0.2-0.3-0.8-1.1-0.9-1.2
			c-0.1-0.1-0.2-0.2-0.3-0.2c-0.1-0.1-0.1-0.1-0.2-0.3c-0.1-0.1-0.3-0.3-0.3-0.4c-0.1-0.1-0.1-0.3-0.2-0.4c0-0.1-0.5-0.8-0.7-1
			c-0.1-0.2-0.6-0.7-0.7-0.8c-0.1-0.1-0.4-0.2-0.4-0.3C98.1,34.2,98,34.1,98,34c0-0.1-0.2-0.3-0.3-0.4c-0.1-0.1-0.3-0.4-0.4-0.5
			c-0.1-0.1-0.4-0.5-0.5-0.6c-0.1-0.1-0.2-0.1-0.4-0.3c-0.1-0.1-0.5-0.7-0.5-0.7c-0.1,0-0.1-0.2-0.2-0.4c-0.1-0.1-1-1.1-1.2-1.3
			c-0.1-0.2-0.8-0.8-0.9-0.9c-0.1-0.1-0.2-0.4-0.3-0.5c-0.1-0.1-1-0.9-1.1-1c-0.1,0-0.9-0.9-1-1c-0.1-0.1-0.2-0.1-0.3-0.2
			c-0.1-0.1-0.4-0.3-0.4-0.4c-0.1-0.1-0.1-0.2-0.1-0.3c-0.1,0-0.2-0.1-0.3-0.2c-0.1-0.1-0.5-0.4-0.6-0.4c-0.1,0-0.6-0.4-0.7-0.5
			c-0.1-0.1-0.2-0.1-0.3-0.1c-0.1,0-0.2-0.2-0.3-0.2c-0.1-0.1-0.2-0.1-0.2-0.1c0,0,0-0.1-0.1-0.2c0-0.1-0.9-0.8-0.9-0.9
			c-0.1-0.1-1.1-0.8-1.1-0.8c-0.1-0.1-0.4-0.3-0.5-0.4c-0.1-0.1-1-0.8-1.1-0.8c-0.1,0-0.4-0.2-0.4-0.3c0,0,0.4-0.1,0.4-0.1
			s0.7-0.3,0.9-0.3c0.1,0,0.3-0.1,0.3-0.1c0,0,0.1,0,0.3,0c0.1,0,0.4-0.1,0.5-0.2C86.4,19.9,86.5,19.9,86.6,19.7 M85.8,17.7
			c0.2,0.1,0.3,0.2,0.3,0.2l-0.8,0.3c0,0-0.3-0.2-0.4-0.3c-0.1-0.1-0.3-0.3-0.4-0.3c-0.1-0.1-0.4-0.4-0.5-0.5
			c-0.1,0-0.2-0.2-0.3-0.3c-0.1-0.1-0.3-0.2-0.3-0.3c-0.1-0.1-0.3-0.2-0.3-0.3c-0.1-0.1-0.2-0.2-0.2-0.2S85.6,17.6,85.8,17.7
			 M73.9,14.5c0.1,0,0.3-0.1,0.5-0.1c0.1,0,0.2-0.1,0.2-0.1c0,0,0.2-0.1,0.3-0.2c0.1,0,0,0,0.1-0.2c0.1-0.2-0.1-0.5-0.1-0.5
			c0,0-0.1-0.1-0.1-0.2c0,0,0.2-0.1,0.2-0.1c0.1,0,0.2-0.2,0.2-0.2c0,0-0.2-0.2-0.2-0.2c0,0,0.1,0.1,0.2,0c0,0,0.8,0.3,0.8,0.3
			c0.1,0.1,0.4,0.1,0.4,0.2s0.2,0.1,0.3,0.1c0.1,0,0.4,0.2,0.4,0.2c0,0,0.2,0.1,0.3,0.2c0.1,0,1.5,1,1.5,1c0,0,0.6,0.5,0.7,0.5
			c0,0,1.3,1,1.5,1.1c0.1,0.1,0.4,0.3,0.5,0.4c0.1,0.1,0.5,0.4,0.5,0.5c0,0.1,0.4,0.4,0.5,0.5c0.1,0.1,0.5,0.4,0.6,0.5
			c0.1,0.1,0.3,0.2,0.3,0.3c0,0.1,0.4,0.3,0.4,0.3s-0.1,0.1-0.1,0.1c0,0-0.6,0.2-0.7,0.2c-0.1,0-0.7,0.3-0.8,0.3
			c-0.1,0-0.1,0-0.2-0.1c-0.1-0.1-0.5-0.3-0.6-0.4c-0.1-0.1-0.3-0.2-0.4-0.3c-0.1-0.1-0.7-0.5-0.8-0.6c-0.1,0-0.6-0.5-0.7-0.6
			c-0.1-0.1-0.3-0.2-0.4-0.2c-0.1-0.1-1.4-0.9-1.6-0.9c-0.2-0.1-1.3-0.8-1.5-0.9c-0.2-0.1-0.5-0.2-0.6-0.3c-0.2-0.1-0.4-0.2-0.6-0.3
			c-0.1-0.1-0.7-0.3-0.8-0.3c-0.1,0-0.3-0.1-0.3-0.2C73.7,14.4,73.8,14.5,73.9,14.5 M72.3,11.4c0,0,0.2,0.2,0,0.3
			c-0.2,0-0.4-0.2-0.5-0.2c-0.1-0.1-0.3-0.3-0.3-0.3c0,0,0-0.1,0-0.1L72.3,11.4z M54.8,8.4c0.2,0,0.5,0,0.8-0.1c0.3,0,1.2-0.1,1.7,0
			c0.8,0,2.4,0.1,3.3,0.4c0.2,0.1,1.3,0.3,1.5,0.3l2.3,0.5c0.1,0,0.4,0.1,0.5,0.1c0.1,0,0.3,0.1,0.4,0.1c0.1,0,0.2,0,0.4,0.1
			c0.1,0,0.4,0.1,0.6,0.1c0.2,0,0.3,0,0.4,0.1c0.1,0,0.4,0.2,0.5,0.2c0.1,0.1,0.7,0.3,0.8,0.4c0.1,0.1,0.2,0.1,0.3,0.2
			c0.1,0.1,0.6,0.3,0.7,0.3c0.1,0,0.3,0.2,0.3,0.2c0.1,0.1,0.3,0.2,0.4,0.2c0,0,0.3,0.2,0.4,0.2c0.2,0.1,0.2,0.1,0.3,0.2
			c0.1,0,0.2,0.1,0.3,0.2c0.1,0.1,0.2,0.2,0.2,0.2c0,0.1,0.2,0.2,0.2,0.3c0,0.1,0.1,0.2,0.2,0.2c0.1,0.1,0.4,0.2,0.5,0.2
			c0.1,0,0,0.1,0,0.2c-0.1,0.1-0.2,0.1-0.3,0.1c-0.1,0-0.2,0-0.3-0.1c-0.1,0-0.2-0.1-0.4-0.2c-0.1-0.1-0.6-0.2-0.7-0.3
			c-0.1-0.1-0.5-0.3-0.6-0.3c-0.1-0.1-0.4-0.1-0.6-0.2c-0.1-0.1-0.5-0.2-0.6-0.2c-0.1,0-0.4-0.1-0.5-0.2c-0.1-0.1-1.1-0.4-1.3-0.4
			c-0.2-0.1-0.9-0.2-1-0.2c-0.1,0-0.8-0.2-0.9-0.3c-0.1,0-1-0.3-1.2-0.4c-0.2,0-1.3-0.4-1.4-0.5c-0.1-0.1-0.9-0.2-1.1-0.3
			c-0.2,0-0.6-0.1-0.8-0.2c-0.2,0-0.6-0.1-0.8-0.2c-0.2-0.1-1.5-0.3-1.7-0.3c-0.2,0-0.9-0.1-1.1-0.2S55.2,8.7,55,8.7
			c-0.2,0-1.3-0.2-1.4-0.2C53.4,8.5,54.6,8.4,54.8,8.4 M41.8,11.5c0.1,0,0.3-0.1,0.4-0.1c0.1,0,0.3-0.1,0.4-0.1
			c0.1,0,0.2-0.1,0.4-0.2c0.2-0.1,0.4-0.2,0.6-0.2c0.1,0,0.6-0.2,0.8-0.2c0.1,0,0.4-0.1,0.5-0.1c0.1,0,0.5-0.2,0.7-0.2
			c0.2,0,1.1-0.3,1.4-0.4c0.3-0.1,0.9-0.3,1.1-0.3c0.2,0,1-0.3,1.2-0.4C49.6,9.2,50.5,9,50.7,9c0.1,0,0.6-0.1,0.7-0.1
			c0.2,0,0.8,0.1,0.9,0.1c0.2,0,0.9,0.1,1.1,0.2c0.2,0,1,0.2,1.3,0.3c0.2,0,1.6,0.3,1.9,0.3c0.3,0.1,1.4,0.4,1.5,0.4
			c0.2,0.1,0.8,0.2,1.1,0.3c0.3,0.1,1.6,0.5,1.8,0.6c0.2,0.1,0.6,0.2,0.7,0.2c0.2,0.1,0.4,0.1,0.5,0.1c0.1,0,0.4,0.2,0.5,0.2
			c0.1,0,0.5,0.2,0.6,0.2c0.1,0,0.5,0.2,0.7,0.3c0.2,0.1,0.4,0.1,0.5,0.1c0.1,0,0.3,0.1,0.4,0.1c0.1,0,0.3,0.1,0.5,0.2
			c0.2,0.1,0.5,0.2,0.6,0.3c0.1,0,0.5,0.2,0.8,0.3c0.2,0.1,1.1,0.5,1.2,0.5c0.1,0.1,0.8,0.3,0.9,0.3c0.1,0,0.3,0.1,0.3,0.2
			c0,0,0.8,0.4,0.9,0.4c0.1,0,0.4,0.1,0.5,0.2c0.1,0.1,0.7,0.4,0.9,0.5c0.1,0.1,1,0.5,1.2,0.6c0.2,0.1,1.7,1,1.8,1
			c0.1,0,0.9,0.4,1,0.5c0.1,0.1,0.8,0.5,0.9,0.6c0.1,0.1,0.9,0.6,1.1,0.7c0.2,0.1,0.7,0.5,0.8,0.6c0.1,0.1,1.5,0.9,1.6,1
			c0.1,0.1,0.2,0.1,0.1,0.2c0,0.1-0.2,0.1-0.3,0.1c-0.1,0-1,0.4-1.1,0.4c-0.1,0-0.3,0.2-0.4,0.2c-0.1,0-0.5,0.2-0.6,0.3
			c-0.1,0.1-0.5,0.2-0.6,0.2c-0.1,0-0.4,0.2-0.5,0.2c-0.1,0-0.8,0.3-0.8,0.3s-0.3,0.1-0.5,0.2c-0.1,0.1-1,0.5-1.2,0.6
			c-0.1,0-1.3,0.6-1.4,0.7c-0.1,0-0.3,0.2-0.4,0.3C72.1,23.9,72,24,72,23.9c0,0,0-0.1,0-0.2c0-0.1,0-0.1,0-0.2
			c0-0.1-0.1-0.7-0.2-0.8c-0.1-0.1-0.1-0.1-0.2-0.2c0-0.1-0.2-0.3-0.3-0.4c-0.1-0.1-0.3-0.4-0.3-0.5c0-0.1-0.3-0.3-0.4-0.3
			c-0.1,0-0.2-0.2-0.2-0.3c0-0.1-0.3-0.3-0.2-0.4c0,0-0.1-0.3-0.2-0.4c-0.1-0.1-0.5-0.6-0.6-0.7c0-0.1-0.7-0.8-0.7-0.9
			c-0.8-1-2-2-2-2.1c0,0-0.3-0.3-0.4-0.4c0-0.1-0.2-0.2-0.2-0.3c-0.1-0.1-0.2-0.2-0.3-0.2c-0.1-0.1-1-0.8-1.1-0.9
			c-0.1,0-0.7-0.4-0.7-0.5c0-0.1-0.6-0.5-0.6-0.6c-0.1,0-0.9-0.5-0.9-0.5c0-0.1-0.2-0.1-0.3-0.2c-0.1,0-0.3-0.2-0.4-0.2
			c-0.1,0-0.4-0.2-0.6-0.3c-0.1-0.1-0.8-0.4-0.9-0.4c-0.1,0-0.6-0.2-0.7-0.2c-0.1,0-0.3,0-0.5,0c-0.1,0-0.4,0.1-0.5,0.1
			c-0.1,0-0.4,0.2-0.4,0.2c0,0.1,0,0.1,0.1,0.2c0,0.1,0.4,0.3,0.5,0.3c0.1,0.1,0.6,0.2,0.6,0.3c0,0,0.1,0.1,0,0.1
			c-0.1,0.1-0.4,0.3-0.5,0.4c-0.1,0.1-0.1,0.3-0.2,0.3c-0.1,0-0.1,0.2-0.1,0.3c0,0.1,0.3,0.3,0.3,0.4c0.1,0.1,0.2,0.2,0.3,0.2
			c0.1,0,0.5,0.2,0.6,0.3c0.1,0.1,0.5,0.4,0.6,0.5c0.1,0,0.2,0.2,0.3,0.2c0.1,0.1,0.4,0.2,0.4,0.3c0.1,0,0.1,0.1,0.2,0.2
			c0.1,0,0.2,0.2,0.3,0.2c0.1,0,0.3,0.1,0.4,0.1c0.1,0,0.2-0.2,0.3-0.2c0,0,0.2-0.2,0.2-0.2c0.1,0,0.3,0.1,0.4,0.2
			c0,0.1,0.3,0.3,0.3,0.3c0,0,0.4,0.5,0.5,0.5c0.1,0.1,0.3,0.3,0.4,0.3c0,0,0.2,0.2,0.2,0.3c0,0.1,0.2,0.2,0.3,0.3
			c0.1,0.1,0.2,0.2,0.3,0.3c0.1,0.1,0.2,0.2,0.3,0.3c0.1,0.1,0.1,0.2,0.1,0.2c0,0,0.9,0.9,0.9,0.9c0.1,0,0.5,0.5,0.5,0.6
			c0,0.1,0.1,0.2,0.1,0.3c0.1,0,0.4,0.3,0.4,0.4c0,0.1,0.2,0.2,0.3,0.3c0.1,0.1,0.4,0.5,0.5,0.7c0.1,0.1,0.4,0.8,0.5,0.8
			c0.1,0,0.1,0.2,0.1,0.3c0,0.1,0.3,0.3,0.3,0.3c0,0.1,0.5,0.9,0.5,1c0,0.1,0.3,0.2,0.3,0.3c0,0.1-0.2,0.1-0.3,0.2
			c-0.1,0,0,0.1-0.2,0.1c-0.1,0-0.1,0-0.2,0.1c-0.1,0-0.3,0.1-0.4,0.2c-0.1,0-0.4,0.2-0.5,0.3c-0.1,0.1-0.4,0.2-0.5,0.2
			c-0.1,0.1-0.1,0.1-0.1,0.1c-0.1,0-0.3-0.3-0.4-0.4c-0.1-0.1-0.2-0.2-0.2-0.3c0-0.1-0.2-0.3-0.3-0.4c-0.1-0.1-0.5-0.3-0.6-0.4
			c-0.1-0.1-0.8-0.6-0.9-0.7c-0.1-0.1-0.5-0.4-0.6-0.5c-0.1-0.1-0.5-0.4-0.6-0.4c-0.1,0-0.3-0.1-0.4-0.1c-0.1,0-0.5-0.4-0.6-0.5
			c-0.1-0.1-0.4-0.4-0.4-0.4s-0.1-0.1-0.1-0.1c0,0-0.6-0.4-0.7-0.5c-0.1-0.1-0.5-0.3-0.6-0.3c0,0-0.2-0.1-0.3-0.1
			c-0.1,0-0.1-0.1-0.2-0.1c-0.1,0-0.2-0.1-0.2-0.2c-0.1,0-0.1-0.1-0.2-0.2c0,0-0.1-0.1-0.2-0.2c-0.1,0-0.3-0.3-0.4-0.3
			c-0.1-0.1-0.5-0.3-0.6-0.4c-0.1-0.1-0.6-0.4-0.7-0.5c-0.1-0.1-0.2-0.2-0.3-0.2c-0.1,0-0.2-0.1-0.2-0.1c0-0.1-0.2-0.2-0.3-0.2
			c-0.1,0-0.2-0.1-0.2-0.1c0,0-0.1-0.1-0.2-0.1c-0.1-0.1-0.6-0.3-0.7-0.4c-0.1,0-0.2,0-0.2-0.1c-0.1-0.1-0.5-0.3-0.6-0.4
			c-0.2-0.1-0.3-0.2-0.4-0.2c0,0-0.3-0.2-0.5-0.3c-0.2-0.1-0.6-0.3-0.7-0.4c-0.1,0-0.3,0-0.4-0.1c-0.1,0-0.5-0.3-0.7-0.3
			c-0.2-0.1-0.5-0.3-0.6-0.3c-0.1,0-0.2-0.1-0.3-0.1c-0.1-0.1-0.9-0.5-1-0.5c-0.1-0.1-0.3-0.2-0.4-0.2c-0.1,0-0.4-0.2-0.6-0.2
			c-0.2-0.1-0.4-0.2-0.5-0.2c-0.1-0.1-0.5-0.2-0.6-0.3c-0.1,0-0.4-0.2-0.5-0.2c-0.1,0-0.4-0.2-0.5-0.2c-0.1-0.1-0.6-0.2-0.8-0.3
			c-0.1,0-0.4-0.2-0.5-0.2c-0.1,0-0.3-0.1-0.4-0.1c-0.1,0-0.4-0.1-0.4-0.2c-0.1,0-0.3-0.2-0.4-0.2c-0.1,0-0.4-0.1-0.5-0.2
			c-0.1,0-0.4-0.1-0.6-0.2c-0.1,0-0.6-0.2-0.6-0.2c-0.1,0-0.4-0.2-0.5-0.2c-0.1,0-0.5-0.2-0.6-0.2c-0.1,0-0.4-0.1-0.5-0.1
			c-0.1,0-0.4-0.1-0.5-0.1c-0.1,0-0.1,0-0.2-0.1c-0.1,0-0.2-0.1-0.3-0.1c-0.1,0-0.2-0.1-0.2-0.1C41.3,11.6,41.7,11.5,41.8,11.5
			 M26,18.7c0,0,0.4-0.2,0.5-0.2c0.1-0.1,0.5-0.4,0.6-0.4c0.1,0,0.8,0.2,0.9,0.2c0.4-0.1,1-0.5,1-0.5c0,0,0.1-0.2,0.1-0.2
			c0-0.1,0-0.2,0-0.2c0,0,0.1-0.3,0.3-0.4c0.1,0,0.3-0.1,0.4-0.1c0.1,0,0.3-0.2,0.4-0.2c0.1,0,0.2-0.1,0.3-0.1c0,0,0.2-0.1,0.2-0.1
			c0.1,0,0.2-0.1,0.4-0.2c0.1,0,0.3-0.1,0.4-0.2c0,0,0.3-0.1,0.4-0.2c0.1-0.1,1.3-0.6,1.6-0.8s1.9-0.9,2.1-1
			c0.2-0.1,1.4-0.6,1.7-0.7c0.3-0.1,1.8-0.7,2-0.8c0.2-0.1,0.7-0.3,0.7-0.3c0,0,1.5,0.5,1.5,0.5c0.1,0,0.3,0,0.3,0.1
			c0,0.1,0.4,0.3,0.6,0.3c0.2,0,0.5,0.2,0.6,0.2c0.1,0,0.5,0.1,0.6,0.1c0,0,0.9,0.3,1.1,0.4c0.1,0,0.4,0.1,0.4,0.1s-0.3,0-0.4,0.1
			c-0.5,0.1-0.6,0.4-0.7,0.4c-0.1,0-0.2,0.1-0.2,0.1c-0.1,0.1-0.2,0.4-0.2,0.4s-0.1,0.5-0.1,0.5c0,0.1-0.1,0.3-0.1,0.5
			c0,0.1,0.1,0.2,0.1,0.3c0,0.1,0.2,0.7,0.2,0.8c0,0.1,0.1,0.3,0,0.3c0,0,0,0.2,0,0.3c0,0.2,0.2,0.4,0.2,0.5c0,0.1,0.1,0.4,0.3,0.8
			c0,0.1,0.1,0.2,0.1,0.3c0,0.1,0.2,0.4,0.2,0.5c0,0.1,0.2,0.9,0.2,1c0,0.1,0.1,0.3,0.1,0.3c0,0,0,0,0,0.1s0.1,0.2,0.1,0.3
			c0.1,0.3,0.2,0.3,0.2,0.4c0,0.1,0.1,0.3,0.1,0.3c0,0.1,0.1,0.2,0.1,0.4c0,0.1,0.1,0.3,0.2,0.4c0.1,0,0.5,0.9,0.5,0.9
			c0,0,0.5,1.2,0.6,1.3c0.1,0.1,0.1,0.2,0.2,0.3c0,0.1,0.2,0.6,0.2,0.7c0,0.1,0.3,0.5,0.3,0.6c0,0,0.2,0.3,0.2,0.4
			c0.1,0.1,0.5,0.6,0.5,0.7c0.2,0.1,0.7,0.9,0.8,1c0,0,0.5,0.5,0.5,0.5c0,0.1,0.1,0.2,0.2,0.3c0.1,0.1,0.6,0.6,0.6,0.7
			c0,0.1,0,0.1,0,0.2c0.1,0.1,0.4,0.4,0.4,0.5c0,0.1,0,0.3,0,0.4s0.2,0.4,0.2,0.5c0,0.1,0,0.4,0.1,0.5c0,0.2,0.4,0.9,0.5,1
			c0.1,0.1,0.4,0.4,0.5,0.5c0.1,0.1,0.3,0.1,0.5,0.1c0.1,0,0.5,0,0.4,0c0,0.1-0.3,0.2-0.4,0.3c-0.1,0.1-0.1,0.1-0.3,0.1
			c-0.1,0-0.4,0.2-0.5,0.2c-0.1,0-0.3,0.1-0.4,0.2c-0.1,0-0.7,0.4-0.7,0.4c-0.1,0-0.4,0.3-0.5,0.3c-0.1,0.1-0.9,0.4-1,0.5
			c-0.1,0.1-0.8,0.5-1,0.6c-0.1,0.1-0.2,0.2-0.4,0.3c-0.2,0.1-0.4,0.2-0.5,0.3c-0.1,0-0.8-1-0.9-1.2c0-0.1-0.2-0.3-0.2-0.4
			c-0.1-0.1-0.2-0.3-0.3-0.4c-0.1-0.1-0.4-0.5-0.4-0.5c-0.1,0-0.4-0.3-0.5-0.4c-0.1-0.1-0.7-0.9-0.8-0.9c-0.1,0-0.3-0.3-0.3-0.3
			c0-0.1-0.6-0.5-0.6-0.6c0-0.1-0.8-0.9-0.9-1.1c-0.1-0.1-0.9-1-1.1-1.1c-0.2-0.2-1.9-1.8-2-1.9c0,0-0.4-0.3-0.5-0.4
			c-0.1,0-1.2-0.9-1.3-1.1c-0.1-0.1-1.4-1.2-1.6-1.3c-0.1-0.1-2-1.7-2.2-1.8c-0.2-0.1-2.9-2.2-3.1-2.3c-0.2-0.1-0.9-0.6-0.9-0.7
			c0,0-0.3-0.3-0.4-0.3c-0.1,0-0.4-0.3-0.5-0.3c-0.1,0-0.2-0.1-0.3-0.1c-0.1-0.1-1.1-0.7-1.2-0.7c-0.1,0-0.9-0.5-0.9-0.5
			S25.9,18.8,26,18.7 M22.9,51.3c-0.1,0-0.3-0.3-0.3-0.4c0-0.1-1.3-2.7-1.4-2.7c-0.1,0-0.3-0.9-0.4-1.1c-0.1-0.2-0.9-1.7-0.9-1.7
			c0,0-0.3-0.5-0.3-0.6c0-0.1-0.8-1.5-0.9-1.7c-0.3-0.4-1.1-1.6-1.2-1.6c-0.1,0-0.7-0.9-0.6-0.9c0-0.1-0.5-0.9-0.6-1
			c-0.1-0.1-0.7-0.8-0.7-0.9c0-0.1-0.9-1.7-1-1.7c-0.1,0-0.5-0.5-0.6-0.6c0-0.1-0.5-0.8-0.6-0.8c-0.1,0-0.8-1-0.8-1.1
			c0-0.1-0.8-1.1-0.9-1.2c-0.1-0.1-1.3-1.5-1.4-1.6c-0.1,0-0.2-0.2-0.3-0.3c0-0.1-0.3-0.4-0.3-0.5c-0.1-0.1-0.4-0.5-0.4-0.5
			s0.8-0.5,0.9-0.6c0.1-0.1,0.3-0.3,0.5-0.4c0.1-0.1,1-0.8,1.1-0.9c0.2-0.2,0.4-0.4,0.6-0.5c0.1-0.1,0.8-0.6,0.9-0.6
			c0.1,0,1.5-1.2,1.7-1.3c0.1,0,0.6-0.5,0.8-0.6c0.2-0.1,1.6-1.2,1.7-1.2c0.1-0.1,1.1-0.7,1.1-0.7s0.1-0.1,0.3-0.2
			c0.1,0,0.4-0.2,0.4-0.3c0.1,0,1.2-0.8,1.3-0.8c0.1-0.1,0.5-0.3,0.7-0.4c0.1-0.1,0.6-0.4,0.8-0.6c0.1-0.1,0.8-0.5,0.9-0.5
			c0.1-0.1,0.7-0.4,0.8-0.5c0.1-0.1,0.7-0.5,0.8-0.5c0.1,0,0.2-0.1,0.2-0.1s1.8,1.1,2,1.2c0.2,0.1,0.7,0.5,0.8,0.6
			c0.1,0.1,1.5,1.2,1.7,1.3c0.1,0.1,1.8,1.3,1.9,1.4c0.1,0,0.3,0.1,0.3,0.2c0.1,0.1,0.2,0.3,0.4,0.4c0.2,0.2,1.1,0.9,1.2,1
			c0.1,0.1,0.5,0.5,0.6,0.6c0.2,0.1,0.5,0.5,0.6,0.6c0.1,0.1,0.9,0.7,1,0.8c0.2,0.1,0.8,0.7,1,0.9c0.2,0.2,1.5,1.5,1.7,1.6
			c0.2,0.2,0.8,1,1,1.1c0.2,0.2,0.4,0.4,0.5,0.5c0.1,0.1,0.5,0.5,0.6,0.6c0.1,0.1,0.4,0.4,0.5,0.6c0.1,0.1,0.5,0.5,0.7,0.7
			c0.2,0.2,0.3,0.4,0.4,0.4c0.2,0.1,0.3,0.3,0.5,0.4c0.1,0.1,0.6,0.7,0.7,0.8c0.1,0.1,0.3,0.3,0.4,0.4c0.1,0.1,0.3,0.2,0.3,0.3
			c0.1,0.1,0.4,0.4,0.6,0.7c0.1,0.2,0.6,1.2,0.7,1.3c0.1,0.1,0.1,0.2,0.1,0.2s-2.5,1.4-2.7,1.6c-0.2,0.1-0.4,0.3-0.5,0.3
			c-0.1,0-3.7,2.1-3.8,2.2c-0.2,0-0.5,0.3-0.6,0.4c-0.1,0-1.5,0.8-1.8,0.9c-0.2,0.1-1.2,0.7-1.3,0.8c-0.1,0.1-0.5,0.4-0.6,0.4
			c-0.1,0-0.8,0.4-0.8,0.4l-0.3,0.2c0,0,0.2-0.5,0.3-0.6c0.1-0.1,0.4-0.7,0.5-1c0.1-0.3,0.1-0.8,0.2-1c0.1-0.1,0.1-0.3,0.1-0.6
			c0-0.3,0-0.9,0.1-1c0-0.1-0.1-0.8-0.1-1.2c0-0.6-0.7-1.7-0.9-1.9c-0.2-0.2-0.5-0.4-0.5-0.5c0-0.3,0.3-0.6,0.3-0.7
			c0-0.1,0.1-0.3,0.2-0.5c0.1-0.2,0.2-0.4,0.3-0.7c0-0.2,0.1-0.4,0-0.5c0-0.1,0.1-0.3,0.1-0.5c0-0.3,0-0.8,0-1.1
			c0-0.1,0-0.5,0.1-0.6c0-0.1,0-0.1,0-0.3c0-0.1,0-0.4,0-0.5c0-0.1,0-0.5,0-0.7c0-0.2,0.1-0.4,0.1-0.4c0-0.1,0.2-0.6,0.2-0.7
			c0-0.1-0.1-0.5-0.1-0.6c0-0.1,0-0.2-0.1-0.4c-0.1-0.1-0.2-0.4-0.3-0.6c-0.1-0.1-0.4-0.6-0.4-0.7c0-0.1-1.1-1.2-1.5-1.5
			c-0.1-0.1-0.6-0.1-0.9,0.1c-0.1,0.1-1.2,0.7-1.2,0.8c0,0.1-0.2,0.3-0.2,0.5c0.1,0.2-0.1,0.9-0.1,0.9c0,0.1-0.3,0.3-0.4,0.5
			c-0.1,0.1-0.1,0.2-0.1,0.3c-0.1,0.1-0.1,0.3-0.1,0.4c0,0.1,0,0.3,0,0.4c0,0.1,0.1,0.2,0.1,0.4c0,0.1,0.1,0.6,0.2,0.8
			c0.1,0.1,0.1,0.3,0.2,0.5c0,0.1,0.3,0.4,0.3,0.5c0.1,0.1,0.1,0.3,0.4,0.4c0.1,0.1,0.2,0.1,0.3,0.1c0.1,0,0.4,0.1,0.5,0.1
			c0.1,0,0.1-0.1,0.2,0c0.1,0.1,0.1,0.2,0.1,0.3c-0.1,0.2-0.2,0.5-0.2,0.7c0,0.1,0,0.5-0.1,0.6s0,0.3-0.1,0.4
			c-0.1,0.1-0.1,0.5,0,0.6c0,0.1,0,0.2,0,0.2c-0.1,0-0.5-0.5-0.8-0.6c-0.2-0.1-0.5-0.1-0.7-0.1c-0.1,0-0.4,0-0.6,0
			c-0.3,0-0.6,0-0.7,0c-0.1,0-0.2-0.1-0.3-0.1c-0.2-0.1-0.2-0.4-0.3-0.5c0-0.1-0.2-0.8-0.2-0.9c0-0.1,0-0.5,0-0.6c0-0.1,0-0.1,0-0.2
			c0-0.2,0.1-0.4,0.1-0.5c0-1-0.8-1.3-0.9-1.3c-0.2,0-1,0.2-1.3,0.7c-0.1,0.1-0.1,0.4-0.2,0.4c0,0.1-0.1,0.3-0.2,0.4
			c0,0-0.1,0.2-0.1,0.3c0,0.1,0,0.4-0.1,0.6c0,0.1,0.1,0.9,0.1,0.9c0,0.1,0.2,0.8,0.2,0.9c0,0.1,0,0.7,0,0.9c0.1,0.1,0,0,0,0.2
			c0.1,0.5,0.7,2,1.3,2.1c0.1,0,0.8,0.1,0.9,0.1c0.2,0,0.7,0,0.9,0c0.2,0.1,0.3,0,0.4,0c0.1,0,0.8-0.1,0.9,0
			c0.1,0.1-0.2,0.4-0.3,0.5c-0.1,0.1-0.3,0.3-0.3,0.4c0,0.1-0.1,0.1-0.2,0.3c-0.1,0.1-0.3,0.4-0.3,0.5c0,0.1-0.6,1.1-0.7,1.5
			c-0.1,0.2-0.9,3.1-0.9,3.2c0,0.2,0,0.4,0,0.6c0,0.1,0,0.3,0,0.4c0,0.1,0.2,0.9,0.1,1c0,0.1,0.1,0.3,0.1,0.5c0,0.2,0,0.2,0.1,0.5
			c0,0.2,0.2,0.3,0.2,0.4c0,0.1,0.2,0.3,0.1,0.3c-0.1,0-1,0.5-1.2,0.7C25.4,49.8,23,51.3,22.9,51.3 M29.4,46.9
			c0,0.1-0.1,0.1-0.2,0.2c-0.1,0-0.1,0.1-0.2,0.1c0,0-0.1-0.1-0.1-0.2c0-0.1-0.1-0.3-0.1-0.3c0,0,0-0.3,0-0.3c0-0.1,0-0.4,0-0.4
			c0-0.2,0.1-0.6,0.1-0.7c0.1-0.5,0.2-0.9,0.2-0.9c0-0.1,0.1-0.3,0.1-0.4c0-0.1,0.6-1.6,0.6-1.6c0-0.1,0.1-0.2,0.1-0.2
			c0,0,0.1-0.2,0.2-0.3c0.1-0.2,0.5-0.8,0.7-0.6c0.1,0.1,0.3,0.4,0.2,0.6c0,0-0.1,0.6-0.1,0.6c0,0-0.1,0.2-0.1,0.3
			c0,0.1-0.1,0.3-0.1,0.4c0,0.1,0,0.3-0.1,0.4c0,0.1-0.3,0.6-0.3,0.8c0,0.1-0.2,0.4-0.2,0.4c0,0.1-0.1,0.3-0.2,0.4
			c0,0-0.1,0.2-0.2,0.3c0,0.1-0.1,0.2-0.1,0.3c-0.1,0.2-0.1,0.2-0.1,0.4c0,0.1-0.1,0.2-0.1,0.3c0,0.1,0,0.2,0,0.3
			C29.4,46.8,29.5,46.8,29.4,46.9 M34.4,79.9c-0.2,0.1-0.5,0.2-0.6,0.2c-0.2,0-0.3-0.2-0.3-0.3c0-0.1-0.1-0.6-0.2-0.8
			c-0.1-0.2-0.1-0.8-0.2-1c0-0.3-0.3-1.1-0.4-1.4c-0.1-0.3-0.3-1-0.4-1.4c-0.1-0.4-0.4-1.2-0.5-1.6c-0.1-0.4-0.2-0.9-0.3-1.1
			c-0.1-0.5-0.3-1.2-0.4-1.4c-0.1-0.3-0.2-0.6-0.3-0.8s-0.3-0.6-0.3-0.8c0-0.2-0.1-0.3-0.1-0.5c-0.1-0.2-0.3-0.7-0.4-0.9
			c-0.1-0.2-0.2-0.4-0.3-0.7c-0.1-0.2-0.5-1.3-0.6-1.7c-0.1-0.4-1-2.5-1.2-3.1c-0.2-0.5-0.6-1.6-0.8-1.8c-0.2-0.3-0.5-1.4-0.5-1.6
			c0-0.1-0.2-0.6-0.2-0.7c-0.1-0.4-0.4-1-0.5-1.2c-0.1-0.2-0.2-0.5-0.3-0.7c-0.1-0.3-0.2-0.5-0.3-0.7c-0.1-0.2-0.1-0.4-0.2-0.5
			c-0.1-0.1-0.6-1.3-0.7-1.5c-0.1-0.1-0.3-0.6-0.4-0.7c-0.1-0.1,0-0.2,0-0.2l0.4-0.2c0,0,0.4-0.3,0.6-0.4c0.1-0.1,0.7-0.5,0.8-0.5
			c0.1-0.1,0.6-0.4,0.8-0.5s0.7-0.5,0.8-0.6c0.1-0.1,1.1-0.6,1.2-0.7c0,0,0.2-0.2,0.4-0.2c0.2,0,1.1-0.7,1.6-1
			c0.4-0.3,3.5-2.1,4.2-2.5c0.7-0.4,4.7-2.7,5.6-3.2c0.9-0.5,6.2-3.5,6.2-3.5s1,1.2,1,1.3c0.1,0.1,0.3,0.1,0.3,0.2
			c0.1,0,0.6,0.7,0.6,0.8c0.1,0.1,0.2,0,0.3,0c0,0,0.3,0.4,0.3,0.5c0,0.1,0.2,0.4,0.2,0.4c0,0.1,0.9,1.3,0.9,1.4
			c0,0.1,0.1,0.3,0.1,0.4c0,0.1,1.3,1.9,1.5,2.1c0.1,0.2,0.3,0.3,0.4,0.3c0,0,0.4,0.5,0.4,0.6c0.1,0.1,0.1,0.5,0.1,0.6
			c0,0,0.6,1,0.7,1.2c0.1,0.2,1.4,1.8,1.5,1.8c0.1,0.1,0.8,1.6,1,1.7c0.2,0.2,1.2,2,1.2,2.2c0,0.2,0.4,1.1,0.5,1.3
			c0.1,0.1,1.9,3.7,2,3.9c0.1,0.2,1.1,2.2,1.1,2.3c0,0.1,0.6,1.3,0.6,1.4c0,0.1,0.4,0.4,0.4,0.6c0,0.2,0.4,0.8,0.4,0.9
			c0,0.2,0.9,2.5,0.8,2.6c0,0-0.2,0.1-0.4,0.2c-0.1,0-0.7,0.4-0.9,0.5c-0.2,0.1-0.7,0.3-0.8,0.4c-0.2,0.1-2,0.8-2.2,0.9
			c-0.1,0.1-0.8,0.3-1,0.4c-0.2,0.1-1.5,0.6-1.7,0.7c-0.2,0.1-0.8,0.5-1,0.6c-0.2,0.1-1.3,0.5-1.5,0.6c-0.2,0.1-0.7,0.2-0.8,0.2
			c-0.1,0-0.9,0.4-1.1,0.5C51.2,73.4,50,74,49.8,74c-0.2,0.1-0.8,0.4-1.1,0.5c-0.2,0.1-0.9,0.4-1.3,0.4c-0.3,0.1-0.9,0.3-1,0.3
			c-0.2,0-0.4-0.2-0.3-0.3c0.1-0.1,0.1-0.1,0.2-0.2c0.1-0.1,0.2-0.3,0.2-0.4c0.1-0.1,0.2-0.4,0.3-0.4c0.2-0.2,0.4-0.5,0.5-0.6
			c0.1-0.1,0.3-0.2,0.2-0.3c-0.1-0.1,0.1-0.2,0.2-0.2c0.1-0.2,0.2-0.1,0.1-0.3c0-0.2,0.1-0.4,0.1-0.5c0-0.1,0.2-0.2,0.3-0.3
			c0.1-0.1,0.3-0.5,0.4-0.6c0.1-0.1,0.2-0.1,0.2-0.2c0-0.1,0.1-0.1,0.2-0.2c0.1-0.1,0.3-0.5,0.5-0.8c0.1-0.1,0-0.1,0.2-0.3
			c0.1-0.1,0-0.2,0.1-0.3c0.1-0.1,0.1-0.2,0.1-0.5c0-0.2,0-0.3,0-0.4c0-0.1,0-0.2,0.1-0.3c0.1-0.1,0.2-0.2,0.2-0.2
			c0-0.1-0.1-0.1,0-0.2c0-0.1,0-0.2,0-0.2c0-0.1,0-0.7-0.1-0.8c-0.1-0.1-0.6-1.4-0.8-1.6c-0.2-0.2-0.1-0.4-0.3-0.4
			c-0.2-0.1-0.2-0.1-0.2-0.2c0-0.1-0.2,0-0.3-0.1c-0.1-0.1-0.1-0.1-0.2-0.2c-0.1-0.1-0.2-0.1-0.3,0c-0.1,0-0.2,0-0.2,0
			c0-0.1-0.3-0.2-0.5-0.1c-0.2,0-0.4-0.1-0.6,0c-0.1,0-0.6,0.2-0.7,0.2c-0.2,0.1-0.5,0.3-0.7,0.3c-0.1,0-0.7,0.3-0.7,0.3
			c-0.1,0-0.3,0.2-0.4,0.2c-0.1,0.1-0.6,0.3-0.7,0.4c-0.1,0.1-0.4,0.2-0.5,0.2c-0.1,0-0.3,0-0.5,0.1c-0.2,0.1-0.2-0.1-0.3-0.1
			c-0.2,0-0.2,0-0.3-0.1c-0.1-0.1-0.2-0.1-0.2-0.2c-0.1-0.1-0.2-0.1-0.2-0.3c-0.1-0.2-0.1-0.3-0.1-0.5c0-0.1,0-0.1,0-0.2
			c0-0.1,0.1-0.2,0-0.3c-0.1-0.1,0.1-0.2,0.1-0.2c0.1,0,0.1,0.1,0.1,0.2c0.1,0.1,0.3,0.1,0.4,0.2c0.1,0.1,0.5,0,0.6-0.1
			c0.2-0.1,0.6-0.3,0.7-0.4c0.2-0.1,0.4-0.3,0.5-0.4c0.1-0.1,0.3-0.1,0.4-0.2c0-0.1,0.3-0.2,0.3-0.3c0-0.1,0.1-0.2,0.1-0.3
			c0-0.2,0-0.2,0-0.3c0.1-0.2,0.2-0.3,0.1-0.4c0-0.1,0-0.1,0.1-0.3c0-0.1,0-0.2,0.1-0.3c0-0.2,0-0.3-0.1-0.6c0-0.1-0.1-0.3-0.2-0.5
			c-0.1-0.2-0.2-0.5-0.3-0.6c-0.1-0.1-0.3-0.5-0.4-0.5C43.9,59,43.8,59,43.7,59c-0.2,0-0.3-0.1-0.5,0c-0.2,0-0.4,0-0.5,0.1
			c-0.1,0-0.6,0.3-0.7,0.4c-0.1,0.1-0.5,0.3-0.6,0.4c-0.1,0.2-0.3,0.3-0.4,0.4c-0.4,0.2-0.5,0.3-0.7,0.4c-0.2,0.1-0.5,0.5-0.6,0.5
			c-0.1,0-0.2,0.3-0.3,0.4c-0.1,0.1-0.2,0.2-0.3,0.3c-0.1,0.1,0,0.2-0.1,0.3c-0.1,0.1-0.3,0.2-0.4,0.3c-0.1,0-0.4,0.3-0.5,0.4
			C38,63,38,63.1,38,63.2c-0.1,0.1-0.1,0.3-0.1,0.5c0,0.1,0.1,0.3,0,0.4c-0.1,0.1,0,0.4,0,0.5c0,0.1-0.1,0.5-0.1,0.5
			c0,0.1,0.1,0.8,0.2,1c0.1,0.2,0.3,0.6,0.3,0.7c0,0.1,0.4,1.1,0.4,1.3c0.1,0.2,0.5,0.9,0.6,1c0.1,0.1,0.3,0.3,0.4,0.3
			c0.1,0.1,0.5,0.2,0.6,0.2c0,0,0.2,0,0.3,0c0.1,0,0.4-0.1,0.5-0.1c0.1,0,0.3-0.1,0.4-0.1c0.1,0,1.2-0.4,1.3-0.5
			c0.1-0.1,2-0.8,2.1-0.8c0.1,0,0.4-0.1,0.6-0.1c0.2,0,0.4,0,0.5,0.1c0.1,0.2,0.3,0.2,0.3,0.4c0,0.1,0,0.3,0,0.4s-0.2,0.4-0.3,0.5
			c-0.1,0.1,0,0.5,0,0.6c0,0.1-0.1,0.2-0.2,0.3c-0.1,0.1-0.1,0.3-0.2,0.4c-0.1,0.1-0.2,0.2-0.4,0.4c-0.1,0.1-0.2,0.4-0.3,0.5
			c0,0.1-0.2,0.4-0.2,0.5c0,0.1-0.1,0.2-0.2,0.3c-0.1,0.1-0.2,0.4-0.3,0.5c-0.1,0.1-0.3,0.3-0.4,0.4c-0.2,0.1-0.3,0.2-0.4,0.3
			c-0.1,0.1-0.2,0.3-0.3,0.3c-0.1,0.1-0.1,0.4-0.2,0.4s-0.1,0.2-0.2,0.2c-0.1,0.1-0.2,0.4-0.3,0.5c-0.1,0.1-0.2,0.3-0.4,0.4
			c-0.2,0.1-0.3,0.4-0.5,0.5c-0.2,0.1-0.3,0-0.4,0.1c-0.2,0.1-0.2,0.1-0.5,0.2c-0.3,0.1-0.5,0-0.7-0.1c-0.2-0.1-0.2-0.1-0.4,0
			c-0.2,0,0-0.2,0-0.3c0.1-0.1,0-0.3-0.1-0.5c0-0.2,0-0.2-0.2-0.5c-0.1-0.3-0.2-0.4-0.3-0.5c-0.1-0.1-0.2-0.1-0.3-0.1
			c-0.1,0-0.6,0.2-0.9,0.2c-0.2,0.1-0.6,0.3-0.7,0.4c-0.2,0.1-0.3,0.2-0.5,0.3c-0.3,0.1-0.5,0.2-0.7,0.5c-0.3,0.3-0.2,0.2-0.3,0.4
			c-0.1,0.1-0.2,0.3-0.3,0.4c-0.1,0.1-0.2,0.4-0.3,0.6c-0.1,0.2-0.1,0.4-0.1,0.5c0,0.2-0.1,0.5-0.1,0.7c-0.1,0.3,0,0.7,0.1,0.9
			C35,79.6,34.6,79.8,34.4,79.9 M35.1,86.1c0-0.5-0.1-1.1-0.1-1.2c0-0.1-0.2-1-0.3-1.1c-0.1-0.1-0.1-0.2-0.1-0.3
			c0-0.1,0.1-0.3,0.1-0.3s0.3-0.1,0.4-0.2c0.1,0,0.8-0.3,1.1-0.3c0.3,0,1-0.3,1.3-0.5c0.3-0.1,0.5-0.1,0.8-0.3
			c0.2-0.1,0.5-0.3,0.9-0.4c0.3-0.1,2.5-0.8,3-1c0.6-0.2,5.1-1.8,5.4-2c0.4-0.2,2.1-0.8,2.1-0.8s3.5-1.3,3.7-1.4
			c0.2-0.1,0.6-0.2,0.9-0.3c0.3-0.1,4.4-1.8,4.6-1.9c0.3-0.1,5-2,5.1-2.1c0.1,0,0.4,0.2,0.4,0.2s0.2,0.5,0.3,0.6
			c0,0.2,0.7,2,0.8,2.1c0.1,0.1,0.4,0.8,0.3,0.9c0,0.2,0.3,0.9,0.4,1c0,0.1,0.2,0.5,0.2,0.7c0,0.1,0.3,1.3,0.4,1.5
			c0.1,0.2,0.7,1.6,0.7,1.7c0,0.2,0.1,0.3,0.2,0.6c0,0.1,0,0.3,0,0.4c0,0.1,0,0.4,0,0.4c-0.1,0.1,0.3,1.2,0.3,1.3
			c0,0.1,0.3,0.7,0.2,0.7c0,0.1,0.1,1.6,0.2,1.7c0,0.1,0.2,0.3,0.2,0.4c0,0.1,0,0.3,0,0.5c0,0.2,0.8,4,0.9,4.7
			c0.1,0.6,0.5,5.3,0.6,5.4c0,0.2,0.3,1.8,0.3,2.1c0.1,0.3-0.1,1.4-0.1,1.6c-0.1,0.1,0,1.3,0,1.5c0,0.2-0.1,1.4-0.2,1.5
			c-0.2,0.1-0.1,1.7-0.1,1.7s-0.5,0.2-0.8,0.2c-0.3,0.1-1.4,0.4-1.7,0.5c-0.4,0.1-0.4,0.1-0.6,0.1c-0.2,0-0.6,0.1-0.8,0.2
			c-0.2,0.1-0.2,0-0.7,0.2c-0.5,0.2-0.6,0.3-0.9,0.4c-0.2,0.1-1,0.2-1.4,0.3c-0.4,0.1-0.7,0.1-1,0.2c-0.3,0.1-2.2,0.7-2.6,0.8
			c-0.4,0.1-1.1,0.1-1.3,0.1c-0.3,0-0.7,0.2-1,0.3c-0.3,0.1-0.7,0.2-0.9,0.3c-0.3,0.1-0.5,0.1-0.9,0.2c-0.4,0.1-0.9,0.2-1.1,0.2
			c-0.3,0.1-0.1,0.1-0.2,0.2c-0.1,0.1-0.5,0.1-0.7,0.1c-0.2,0-0.4,0.1-0.5,0c-0.1-0.1,0.1-0.1,0.2-0.1c0-0.1,0.2,0,0.3-0.2
			c0.1-0.1,0.3-0.2,0.5-0.3c0.2-0.1,0.3-0.2,0.4-0.3c0.4-0.2,0.2-0.2,0.4-0.3c0.2-0.1,0.8-0.5,0.9-0.6c0.1-0.1,0.4-0.3,0.4-0.4
			c0-0.2,0.3-0.1,0.5-0.3c0.1-0.1,0.3-0.1,0.5-0.3c0.2-0.2,0.4-0.4,0.5-0.6c0.1-0.2,0.1-0.3,0.2-0.4c0.1-0.1,0.3-0.2,0.5-0.3
			c0.2-0.1,0.3-0.2,0.3-0.3c0-0.1,0.1-0.2,0.2-0.3c0.1-0.1,0.3-0.4,0.4-0.5c0.1-0.1,0.5-0.7,0.6-0.8c0.1-0.2,0.1-0.5,0-0.7
			c0-0.2-0.1-0.7-0.1-0.9c0.1-0.1,0.1-0.3,0.2-0.4c0.1-0.2,0-0.3,0-0.5c0-0.2,0-0.5,0-0.6c0-0.2-0.1-0.7-0.2-1
			c-0.1-0.2-0.1-0.3-0.3-0.5c-0.2-0.2-0.1-0.2-0.3-0.3c-0.2-0.1,0-0.2,0-0.3c0-0.1,0-0.4,0-0.6C59,98,59.1,98,59.2,98
			c0.1-0.1,0.3-0.1,0.4-0.2c0.1-0.2,0.6-0.7,0.7-0.8c0.1-0.1,0.2-0.2,0.3-0.3c0.1-0.1,0.1-0.1,0.1-0.3c0-0.2,0.1-0.2,0.2-0.3
			c0.1-0.1,0.2-0.2,0.2-0.4c0-0.1,0.7-0.9,0.7-1c0-0.1,0.2-0.1,0.2-0.2c0.1,0,0.2-0.3,0.2-0.4c0-0.1,0.6-0.4,0.6-0.5
			c0-0.1,0.2-0.3,0.3-0.4c0.1-0.1,0.3-0.5,0.4-0.7c0.1-0.1,0.2-0.3,0.1-0.4c0-0.2,0-0.1,0.1-0.2c0.1-0.1,0.1-0.4,0.1-0.5
			c0-0.2,0.4-0.5,0.4-0.7c0-0.1,0.6-0.6,0.6-0.8c0-0.2,0.1-0.3,0.2-0.5c0.1-0.2-0.2-2.1-0.3-2.4c0-0.3-0.3-1-0.4-1
			c-0.1,0-0.1-0.5-0.2-0.6c-0.1-0.1-1.1-0.1-1.3,0c-0.2,0.1-1.3,0.4-1.5,0.5c-0.2,0.1-0.3,0.2-0.3,0.3c0,0.1-0.8,0.3-0.9,0.4
			c-0.1,0.1-0.8,0.9-1,0.9c-0.2,0-0.5,0.3-0.7,0.4c-0.1,0-0.4,1-0.4,1.4c0,0.1-0.2,0.3-0.3,0.4s-0.2,0.3-0.2,0.4
			c0,0.1,0.2,1.4,0.3,1.6c0.1,0.2,0.2,0.1,0.3,0.1c0.1-0.1,0.3,0.2,0.5,0.2c0.1,0.1,0.3,0,0.3,0.1c0,0.1,0.2-0.1,0.4-0.2
			s0.5,0.4,0.4,0.5c-0.1,0.1-0.3,0.1-0.3,0.2c0,0.1-0.1,0.2-0.2,0.3c-0.1,0.1-0.3,0.4-0.3,0.6c0,0.1-0.9,0.7-0.9,0.8
			c-0.1,0.1-0.4,0.5-0.5,0.7c-0.3,0.5-0.8,0.8-0.9,1c-0.1,0.2-0.1,0.2-0.2,0.2c-0.1,0,0-0.1-0.1-0.2c0-0.1-0.3,0-0.4-0.2
			c0-0.1-0.7-0.3-0.9-0.5c-0.2-0.2-0.2-0.1-0.3-0.2c-0.1-0.1-0.2-0.1-0.2-0.1c0-0.1-0.3-0.4-0.3-0.5c-0.1-0.5-0.3-1-0.5-1.2
			c-0.1-0.1-0.4-0.2-0.6-0.3c-0.2-0.1,0-0.3,0.1-0.4c0.1-0.1,0.2-0.5,0.4-0.6c0.1-0.1,0.2-0.2,0.2-0.3c0-0.1,0.2-0.4,0.4-0.4
			c0.2,0,0.4,0,0.5-0.1c0.2,0,0.2,0.2,0.2,0.2c0,0,0.3,0,0.4,0c0.1,0,0.5-0.1,0.6-0.2c0.2-0.1,0.8-0.5,0.8-0.7
			c0-0.1-0.2-1.1-0.2-1.3c-0.1-0.2-0.1-0.3-0.3-0.3c-0.1,0-0.4-0.5-0.6-0.6c-0.2-0.1-0.3-0.1-0.4-0.1c-0.1,0-0.3,0-0.5,0.1
			c-0.2,0.1-0.6,0.1-0.7,0.2c-0.1,0.1-0.4,0.3-0.5,0.4c-0.1,0.1-0.6,0.3-0.8,0.4c-0.1,0.1-0.9,0.4-1.1,0.6c-0.4,0.2-1.1,0.8-1.2,1
			c0,0.2-0.9,0.7-0.9,0.9c0,0.2-0.5,0.7-0.5,0.8c0,0.1-0.4,0.4-0.5,0.5c-0.2,0.1-0.3,0.8-0.4,0.9c-0.1,0.1-0.3,0.9-0.4,1
			c-0.1,0.1-0.4,1.2-0.5,1.3c-0.1,0.1,0.1,1.5,0.1,1.6c0,0.2,0.3,0.4,0.3,0.6c0,0.2,0.3,0.2,0.3,0.3c0,0.2,0.2,0.3,0.4,0.4
			c0.1,0.1,0.2,0.3,0.3,0.4c0.1,0.1,0.3,0,0.3,0.1c0,0.1,0.3,0.3,0.4,0.4c0,0.1,0.2,0.2,0.4,0.3c0.2,0.1,0.4,0,0.5,0.1
			s0.3,0.2,0.5,0.3c0.2,0.1,0.4,0.1,0.5,0.3c0.1,0.1,0.4,0.1,0.4,0.2c0.1,0.1-0.2,0.3-0.3,0.4c-0.1,0.1-0.2,0.1-0.2,0.2
			c-0.1,0.1-0.3,0.1-0.5,0.3c-0.2,0.3-0.2,0.2-0.2,0.3c0,0.1-0.4,0.2-0.5,0.4c-0.1,0.2-0.7,0.8-1.1,1.1c-0.2,0.1-0.4,0.3-0.4,0.3
			c0,0.2-0.4,0.4-0.6,0.5c-0.2,0-0.3,0.2-0.4,0.3c-0.1,0.1-0.3,0.4-0.5,0.5c-0.4,0.3-0.7,0.6-0.8,0.7c-0.1,0.1-0.3,0.5-0.4,0.5
			c-0.1,0.1-0.5,0.9-0.8,1c-0.3,0.1-0.2,0.9-0.2,1.1c0,0.2-0.2,0.4,0,0.7c0.1,0.2,0.5,0.6,0.4,0.7c0,0.1,0,0.1,0.2,0.4
			c0.1,0.1-1.2,0.1-1.3,0.1c-0.1,0.1-0.4,0-0.5,0.1c-0.1,0.1-0.2,0.1-0.3,0.1c-0.2,0-0.2,0.1-0.4,0.2c-0.1,0.1-0.3,0-0.5,0.1
			c-0.2,0-0.2,0-0.4,0c-0.3,0-0.3,0-0.4,0c-0.1,0-0.7,0.1-0.9,0.1c-0.2,0-1.2,0.2-1.3,0.3c-0.1,0-0.2,0-0.3,0.1
			c-0.1,0.1-0.2,0.1-0.3,0.1c-0.1,0.1-0.1,0-0.2,0.1c-0.1,0-0.2,0.1-0.3,0c-0.1-0.1,0-0.2,0-0.5c0-0.3,0-0.4,0.1-0.5
			c0.1-0.1,0-0.8-0.1-1c-0.1-0.2-0.1-0.5-0.1-0.7c0-0.2-0.1-0.6-0.1-0.9c0-0.5,0-0.9,0-1.2c0-0.1,0.1-0.5,0.1-0.7
			c0-0.1-0.1-1.4-0.2-1.5c0-0.2,0-0.2,0-0.3c0-0.1,0.1-0.3,0-0.5c0-0.2-0.1-1.2-0.2-1.5c0-0.3-0.2-1.8-0.2-1.9c0-0.1,0-0.4,0-0.6
			c0-0.1,0.1-0.5,0.1-0.5c0-0.1,0-0.5-0.1-0.7c0-0.2-0.1-0.6-0.2-0.8c-0.1-0.2-0.1-0.4-0.2-0.6c-0.1-0.2-0.2-0.5-0.2-0.8
			c0-0.2,0-0.3,0-0.5c0-0.1-0.2-0.6-0.3-0.8c-0.2-0.4-0.2-0.6-0.2-0.8c0-0.2-0.1-0.7-0.1-0.9c-0.1-0.2-0.1-0.5,0-0.6
			c0.1-0.1,0-0.6,0-0.7c0-0.3-0.2-1.2-0.3-1.6c-0.1-0.4-0.3-1.6-0.4-2C35.8,89.2,35.2,86.4,35.1,86.1 M52.4,107.1
			c-0.1,0.1-0.1,0.2-0.3,0.3c-0.1,0.1-0.3,0.3-0.4,0.3c-0.1,0.1-0.2,0.2-0.2,0.3c-0.1,0.1-0.4,0.1-0.4,0.2c-0.1,0.1-0.2,0.2-0.5,0.3
			c-0.2,0.1-0.3,0.2-0.3,0.2c-0.1,0.1-0.1,0.1-0.3,0.2c-0.1,0.1-0.3,0.2-0.5,0.3c-0.1,0-0.1,0.1-0.3,0.2c-0.1,0.1-0.3,0-0.4-0.1
			c-0.1-0.1,0-0.1-0.1-0.1c-0.1-0.1-0.2-0.1-0.2-0.2c-0.1-0.1,0-0.3,0.1-0.3c0.1-0.1,0.3-0.1,0.4-0.2c0.1,0,0.4-0.3,0.4-0.4
			c0.1-0.1,0.2-0.3,0.2-0.3c0.1-0.1,0.3-0.1,0.5-0.2c0.2-0.1,0.6-0.5,0.7-0.6c0.1-0.1,0.4-0.3,0.5-0.4c0-0.1,0.1-0.1,0.2-0.2
			c0.1-0.1,0.1-0.2,0.1-0.2c0.1-0.1,0.3-0.1,0.4-0.2c0.1,0,0.2-0.4,0.2-0.5c0-0.1,0.4-0.3,0.5-0.4c0.1-0.1,0.4-0.3,0.6-0.4
			c0.1-0.1,0.8-0.4,0.8-0.4c0,0,0.1-0.2,0.1-0.2c0,0,0.2-0.2,0.2-0.2c0.1,0,0,0.3,0.1,0.5c0,0.2-0.2,0.3-0.2,0.4c0,0,0,0.1,0,0.2
			c0,0.1-0.1,0.3-0.2,0.4c-0.1,0.1-0.5,0.5-0.5,0.7c0,0.2-0.1,0.1-0.2,0.2c-0.1,0.1-0.4,0.3-0.5,0.4C52.8,106.9,52.5,107,52.4,107.1
			 M52.2,110.4c-0.1,0.1-0.2,0-0.2,0.1c-0.1,0.1-0.1,0-0.2,0c-0.1,0,0-0.1,0-0.2c0.1-0.2,0.4-0.2,0.5-0.2
			C52.4,110.1,52.4,110.3,52.2,110.4 M60.4,138c-0.1,0.1-0.5,0.8-0.6,0.9c-0.1,0.1-0.5,0.8-0.5,0.9c0,0.1-0.1,0.2-0.3,0.3
			c-0.1,0-0.4,0-0.5,0c-0.1,0-0.5,0-0.7,0.1c-0.2,0-2.1,0.5-2.2,0.5c-0.1,0-1,0.2-1.2,0.3c-0.2,0-2.3,0.4-2.5,0.4
			c-0.2,0-3.6,0.5-3.8,0.5c-0.2,0-0.8,0.2-0.9,0.2c-0.1,0-1.3,0.1-1.6,0.1c-0.3,0-3.2,0.3-3.3,0.3c-0.2,0-2.1,0.2-2.3,0.2
			c-0.2,0-1.2,0.1-1.3,0c-0.1-0.1-0.6,0-0.7,0c-0.1,0-0.8,0.1-1,0.1c-0.2,0-0.7-0.1-0.9,0c-0.2,0-1.3,0-1.3,0c0-0.1,0.2-0.6,0.3-0.6
			c0.1-0.1,0.3-0.6,0.4-0.8c0.1-0.2,0.2-0.8,0.3-0.9c0-0.1,0.2-0.9,0.1-1c0-0.1,0.1-0.5,0.1-0.6c0-0.2,0.1-0.6,0.2-0.8
			c0.1-0.2,0.3-0.9,0.3-1c0-0.1,0.1-0.9,0.1-1c0-0.1,0.2-0.8,0.3-1.1c0.1-0.3,0.2-0.8,0.2-1c0-0.2,0-0.7,0-0.8
			c0-0.1,0.1-0.7,0.2-0.8c0.1-0.1,0.3-0.9,0.3-1.1c0-0.2,0.1-1.2,0.2-1.3c0-0.1,0.2-2.6,0.2-2.9c0-0.3,0.1-0.7,0.2-0.8
			c0.1-0.1,0.1-1.3,0.1-1.5c0-0.1,0-1,0-1.2c0-0.2,0.1-1.5,0.1-1.6c0.1-0.2,0.1-1,0-1.2c0-0.2-0.2-1.3-0.2-1.5
			c0-0.1,0.2-0.9,0.2-1.1c0.1-0.5-0.1-1.3-0.1-1.5c0-0.2-0.1-0.5-0.1-0.7c-0.1-0.2-0.1-1.3-0.1-1.3c0-0.1,0-0.1,0.1-0.1
			c0.1,0,0.2,0,0.5-0.1c0.3-0.1,0.6,0,0.8,0c0.2,0,1.1-0.2,1.5-0.2c0.4-0.1,1.7-0.3,1.9-0.3c0.2-0.1,1.3-0.3,1.4-0.3
			c0.2-0.1,0.8-0.2,1.1-0.2c0.3-0.1,0.8,0.1,1,0.1c0.2,0,0.8-0.1,1.1-0.1c0.3,0,0.9-0.3,1.1-0.3c0.2-0.1,0.7-0.2,0.9-0.3
			c0.2,0,1.4-0.3,1.6-0.3c0.2,0,1.3-0.4,1.6-0.4c0.3,0,1.1-0.3,1.4-0.4c0.2-0.1,1.1-0.2,1.4-0.3c0.3,0,1.2-0.2,1.4-0.3
			s1.5-0.4,1.6-0.4c0.1,0,1.8-0.4,2-0.4c0.2,0,1.8-0.3,2.1-0.5c0.3-0.1,0.6-0.3,0.9-0.4c0.2-0.1,0.7-0.2,1.1-0.3
			c0.3,0,0.5-0.1,0.8-0.2c0.2-0.1,1-0.2,1.2-0.3c0.2-0.1,0.6-0.2,0.8-0.3c0.2-0.1,0.8-0.1,0.8-0.1S68,110,68,110.2
			c0,0.2-0.5,0.3-0.6,0.4c-0.2,0.1-0.7,0.3-0.9,0.4c-0.3,0.1-0.4,0.2-0.6,0.3c-0.2,0.1-0.7,0.3-1,0.4c-0.3,0.1-0.6,0.4-0.8,0.5
			c-0.2,0.2-0.5,0.3-0.8,0.5c-0.2,0.1-0.8,0.4-1,0.4c-0.2,0.1-0.5,0.3-0.7,0.4c-0.2,0.1-0.4,0.1-0.5,0.3c-0.2,0.2-0.3,0.4-0.4,0.5
			c-0.1,0.1-0.7,0.3-0.9,0.4c-0.2,0.1-0.3,0.4-0.5,0.5c-0.2,0.1-0.6,0.6-0.9,0.8c-0.2,0.2-0.5,0.3-0.6,0.5c-0.1,0.2-0.3,0.5-0.5,0.7
			c-0.2,0.1-0.2,0.3-0.4,0.4c-0.2,0.1-0.4,0.2-0.6,0.4c-0.2,0.2-0.3,0.3-0.4,0.5c-0.1,0.2-0.3,0.3-0.4,0.5c-0.1,0.1-0.3,0.4-0.5,0.5
			c-0.1,0.1-0.4,0.5-0.4,0.6c-0.1,0.2-0.4,0.6-0.5,0.7c-0.2,0.2-0.3,0.3-0.4,0.4c-0.1,0.1-0.3,0.5-0.4,0.6c-0.1,0.1-0.4,0.7-0.5,0.9
			c-0.1,0.1-0.6,0.6-0.7,0.7c-0.1,0.1-0.3,0.5-0.4,0.7c-0.1,0.2-0.2,0.3-0.4,0.5c-0.2,0.1-0.3,0.4-0.4,0.5c-0.1,0.1-0.3,0.3-0.5,0.4
			c-0.2,0.2-0.3,0.4-0.4,0.6s-0.1,0.3-0.3,0.5c-0.2,0.2-0.6,0.6-0.7,0.8c-0.1,0.2,0,0.2-0.3,0.5c-0.5,0.5-0.3,0.4-0.4,0.6
			c-0.1,0.2-0.4,0.7-0.7,0.7c-0.2,0.1-0.6,0.5-0.7,0.7c-0.1,0.2-0.3,0.4-0.4,0.7c-0.1,0.2-0.4,0.4-0.6,0.6c-0.3,0.3-0.2,0.4-0.4,0.6
			c-0.1,0.1-0.2,0.4-0.4,0.4c-0.2,0.1-0.2,0.3-0.3,0.4c-0.2,0.2-0.3,0.5-0.4,0.7c-0.1,0.1-0.3,0.3-0.4,0.5s-0.4,0.7-0.5,0.9
			c-0.2,0.3-0.7,1.2-0.9,1.3c-0.1,0.1-0.2,0.4-0.3,0.5c-0.1,0.2-0.2,0.3-0.3,0.5c-0.1,0.1-0.4,0.4-0.5,0.6c-0.1,0.2-0.3,0.6-0.4,0.7
			c-0.1,0.1-0.5,1.1-0.6,1.4c-0.2,0.4-0.4,1-0.4,1.3c0,0.2,0.1,0.4,0,0.6c-0.1,0.2,0.1,0.6,0.1,0.7c0,0.1,0.3,0.3,0.5,0.3
			c0.1,0.1,1.2,0.1,1.5,0c0.3-0.1,0.5-0.1,0.6-0.1c0.1,0,1.8-0.3,2.1-0.3c0.2-0.1,0.3-0.1,0.6-0.2c0.2-0.1,0.2-0.1,0.4-0.2
			c0.1,0,0.3-0.2,0.3-0.3c0.2-0.1,0.3-0.1,0.4-0.2c0.1-0.1,0.3-0.1,0.4-0.2c0.3-0.2,0.7-0.6,0.7-0.6c-0.1,0.1,0.3-0.3,0.4-0.4
			c0-0.1,0.5-0.2,0.7-0.3c0.2-0.2,0.3-0.2,0.4-0.4c0.1-0.1,0.2-0.2,0.3-0.3c0.1-0.1,0.1-0.2,0.3-0.3c0.1-0.1,0.5-0.4,0.7-0.6
			c0.4-0.3,0.6-0.5,0.7-0.7c0.1-0.1,0.4-0.6,0.6-0.6c0.1-0.1,0.4-0.4,0.5-0.5c0.3-0.2,0.3-0.3,0.4-0.4c0-0.1,0.2-0.1,0.3-0.2
			c0.1-0.1,0.2-0.2,0.3-0.3c0.1-0.1,0.2-0.1,0.2-0.2c0.1-0.1,0.2-0.2,0.2-0.2c0.1,0,0.2-0.2,0.3-0.3c0.1-0.1,0.3-0.3,0.3-0.4
			c0-0.1,0.1-0.2,0.1-0.3c0-0.1,0.2-0.1,0.2-0.2c0-0.1,0.2-0.3,0.3-0.3c0.1-0.1,0.2-0.1,0.2-0.2c0-0.1,0.3-0.2,0.3-0.3
			c0-0.1,0.2-0.3,0.3-0.4c0.1-0.1,0.2-0.3,0.3-0.3c0.1-0.1,0.3-0.3,0.4-0.3c0.1,0,0.3-0.4,0.4-0.5c0-0.1,0.3-0.4,0.4-0.4
			c0.1-0.1,0.2-0.3,0.3-0.4c0.1-0.1,0.2-0.3,0.3-0.4c0.1-0.1,0.3-0.3,0.3-0.4c0-0.1,0.1-0.2,0.2-0.3c0.1-0.1,0.2-0.3,0.3-0.4
			c0.1-0.1,0.2-0.1,0.3-0.1c0.1-0.1,0.4-0.1,0.6-0.2c0.2-0.1,1-0.4,1.1-0.5c0.1,0,0.7-0.7,0.8-0.8c0.1-0.1,0.5-0.8,0.3-1.5
			c0-0.1-0.1-0.3-0.2-0.4c-0.1-0.1-0.3-0.2-0.4-0.3c-0.2-0.2-0.3-0.2-0.5-0.3s0.1-0.6,0.1-0.7c0-0.2,0-0.4-0.1-0.5
			c-0.1-0.2-0.2-0.1-0.2-0.3c0-0.1-0.3-0.1-0.2-0.2c0-0.1,0.3-0.2,0.4-0.2c0.1-0.1,0.1-0.1,0.2-0.2c0-0.1,0.1-0.1,0.2-0.2
			c0.1,0,0.7-0.3,0.7-0.4c0.2-0.1,0.4-0.2,0.4-0.3c0.4-0.3,0.4-0.5,0.6-0.6c0.3-0.2,0.8-0.3,0.9-0.4c0.1-0.1,0.2-0.1,0.3-0.2
			c0-0.1,0.1-0.2,0.1-0.2c0.1,0,0.2-0.1,0.3-0.2c0.1-0.1,0.5-0.3,0.6-0.4c0.1-0.1,0.2-0.2,0.3-0.3c0.1-0.1,0.5-0.2,0.6-0.3
			c0.1,0,0.4-0.2,0.5-0.3c0.1-0.1,0.3-0.4,0.4-0.5c0.1-0.1,0.3-0.1,0.4-0.2c0.2-0.1,0.2-0.3,0.3-0.4c0.1-0.1,0.3-0.3,0.3-0.4
			c0.1-0.2,0.3-0.5,0.4-0.6c0.1-0.1,0.2-0.2,0.3-0.2c0.1-0.1,0.2-0.2,0.3-0.2c0.1,0,0.3,0,0.3,0s-0.2,1.2-0.3,1.4
			c-0.1,0.2-0.3,1.5-0.4,1.9c-0.1,0.4-0.4,1-0.4,1c-0.1,0.1-0.1,0.4-0.2,0.5c-0.1,0.2,0,0.5,0,0.6c0,0.1-0.6,2.3-0.8,2.9
			c-0.2,0.6-1,2.6-1.2,3.1c-0.2,0.5-1.2,2.9-1.3,3c-0.1,0.2-0.2,0.4-0.3,0.6c-0.2,0.3-0.5,0.9-0.6,1.1c-0.1,0.2-0.2,0.6-0.3,0.7
			c0,0.1-0.7,1.2-0.8,1.3c-0.1,0.1-0.3,0.8-0.4,0.9c-0.2,0.3-0.3,0.5-0.4,0.7c-0.2,0.3-0.3,0.5-0.6,1
			C60.8,137.6,60.5,137.9,60.4,138 M54.1,128c0.1,0.1,0.2,0.3,0.4,0.3c0.2,0,0.5,0.1,0.5,0.2c0,0.1,0.5,0.2,0.8,0.4
			c0.1,0.1-0.5,0.4-0.6,0.5c-0.1,0.1-0.3,0.4-0.5,0.5c-0.2,0.1-0.5,0.7-0.6,0.9c-0.1,0.2-0.3,0.4-0.4,0.5c-0.1,0.1-0.5,0.8-0.7,0.9
			c-0.2,0.1-0.3,0.4-0.5,0.5c-0.2,0.1-0.5,0.7-0.7,0.9c-0.2,0.2-0.3,0.4-0.6,0.5c-0.3,0.1-0.6,0.4-0.8,0.5c-0.2,0-0.5,0.6-0.7,0.8
			c-0.2,0.2-0.2,0.3-0.5,0.5c-0.4,0.3-0.3,0.2-0.5,0.3c-0.3,0.1-0.3,0.3-0.5,0.4c-0.2,0.1-0.5,0.6-0.7,0.7c-0.2,0.1-0.3,0.2-0.5,0.3
			c-0.2,0.1-0.4,0.2-0.5,0.4c-0.1,0.1-0.3,0.3-0.5,0.4c-0.2,0.2-0.3,0.1-0.4,0.4c-0.1,0.2-0.3,0.3-0.4,0.4c-0.1,0.1-0.2,0.1-0.3,0
			c-0.2-0.1,0.2-0.6,0.2-0.7c0-0.1,0.1-0.2,0.2-0.4c0.1-0.1,0.2-0.3,0.2-0.4c0-0.1,0.4-0.4,0.4-0.5c0.1-0.1,0.3-0.4,0.3-0.5
			c0-0.1,0.3-0.5,0.4-0.6c0,0,0.2-0.3,0.2-0.3c0-0.1,0.3-0.4,0.4-0.6c0.1-0.2,0.3-0.7,0.4-0.8c0.1-0.1,0.4-0.3,0.4-0.4
			c0.1-0.2,0.2-0.5,0.4-0.7c0.2-0.1,0.3-0.3,0.4-0.4c0.1-0.2,0.4-0.5,0.6-0.7c0.2-0.2,0.5-0.5,0.6-0.6c0.1-0.2,0.4-0.7,0.5-0.8
			c0.1-0.1,0.6-0.5,0.7-0.6c0.1-0.1,0.3-0.5,0.5-0.7c0.1-0.1,0.4-0.5,0.4-0.7c0.1-0.2,0.4-0.4,0.5-0.5c0.1-0.1,0.3-0.5,0.4-0.6
			c0.1-0.1,0.3-0.5,0.4-0.7c0.1-0.1,0.2-0.5,0.4-0.6c0.1-0.2,0.7-1.4,0.8-1.5c0.1-0.1,0.4-0.6,0.5-0.8c0.1-0.2,0.3-0.9,0.4-1
			c0-0.1,0.4-0.7,0.5-0.9c0.1-0.1,0.3-0.4,0.5-0.5c0.1-0.1,0.2-0.2,0.3-0.4c0.1-0.1,0.5-0.2,0.6-0.3c0.1-0.1,0.3-0.3,0.3-0.3
			c0.1-0.1,0.2-0.3,0.4-0.4c0.2-0.2,0.5-0.7,0.6-0.8c0.1-0.1,0.5-0.7,0.6-0.8c0.1-0.1,0.2-0.3,0.3-0.5c0.3-0.4,0.2-0.5,0.3-0.6
			c0.1-0.1,0.6-0.4,0.7-0.5c0.1-0.1,0.3-0.5,0.3-0.4c-0.1,0.1,0.1-0.1,0.3-0.3c0.2-0.2,0.4-0.3,0.6-0.4c0.2-0.1,0.6-0.3,0.7-0.4
			c0.1-0.1,0.7-0.5,0.8-0.6c0.1-0.1,0.5-0.4,0.6-0.5c0.1-0.1,0.4-0.2,0.6-0.3c0.3-0.1,0.4-0.2,0.5-0.3c0.1,0,0.5-0.1,0.6-0.2
			c0.2-0.1,0.5-0.2,0.7-0.2c0.2,0,0.3,0,0.4,0c0.1,0,0.6,0,0.7,0c0.1,0,0.4,0.2,0.5,0.3c0.1,0.1,0,0.4,0,0.5c0,0.1-0.3,0.5-0.4,0.7
			c-0.1,0.2-0.2,0.3-0.3,0.4c-0.1,0.1-0.3,0.4-0.4,0.6c0,0.2-0.5,0.4-0.7,0.5c-0.2,0.1-0.1,0.2-0.5,0.6c-0.4,0.3-0.4,0.4-0.7,0.6
			c-0.3,0.2-0.5,0.3-0.7,0.5c-0.2,0.1-0.4,0.2-0.6,0.4c-0.2,0.2-0.7,0.5-1,0.6c-0.3,0.1-0.5,0.3-0.6,0.4c-0.1,0.2-0.7,0.5-1,0.6
			c-0.2,0.1-0.6,0.4-0.9,0.5c-0.3,0.1-0.7,0.5-0.9,0.7c-0.2,0.2-0.5,1.2-0.7,1.5c-0.2,0.3-0.5,0.5-0.8,0.6c-0.2,0.1-0.4,0.2-0.6,0.2
			c-0.2,0.1-0.2,0.1-0.5,0.3c-0.2,0.1-0.5,0.3-0.6,0.4c-0.1,0.1-0.4,0.3-0.6,0.5c-0.2,0.1-0.5,0.4-0.7,0.6c-0.1,0.2-0.2,0.3-0.4,0.5
			c-0.1,0.1-0.2,0.5-0.4,0.8C53.9,127.3,54.1,127.9,54.1,128 M70.5,134.9c-0.1,0.2-1.3,1.6-1.5,1.8c-0.2,0.2-0.4,0.5-0.5,0.6
			c-0.1,0.1-1.1,0.4-1.5,0.6c-0.2,0.1-1,0.3-1.3,0.4c-0.2,0.1-0.7,0.2-1,0.3c-0.3,0.1-0.4,0.1-0.6,0.2c-0.2,0.1-2.2,0.5-2.3,0.6
			c-0.2,0-0.3,0.1-0.4,0.1c-0.1,0-0.4,0.2-0.5,0.1c-0.1-0.1,0.4-0.6,0.5-0.7c0.1-0.1,0.4-0.4,0.5-0.5c0.1-0.1,0.6-0.8,0.6-0.9
			c0-0.1,0.4-0.8,0.5-0.9c0.1-0.1,0.5-0.9,0.6-1c0.1-0.1,0.3-0.2,0.3-0.2s0.1,0,0.2,0c0,0,0.4,0,0.6,0c0.2,0,1.4-0.4,1.6-0.5
			c0.2-0.1,0.6-0.2,0.7-0.3c0.2-0.1,0.4-0.2,0.5-0.3c0.1-0.1,0.5-0.3,0.6-0.4c0.1-0.1,0.5-0.3,0.7-0.4c0.2-0.1,0.3-0.2,0.5-0.4
			c0.2-0.2,0.6-0.3,0.8-0.4c0.2-0.1,0.5-0.4,0.6-0.4c0.1-0.1,0.1-0.2,0.2-0.3c0.1-0.1,0.3-0.3,0.4-0.4c0.1-0.1,0.6-0.3,0.7-0.5
			s0.3-0.3,0.4-0.4c0.1-0.1,0.3-0.1,0.4-0.3c0.2-0.1,0.3-0.3,0.4-0.4c0.1-0.1,0.3-0.4,0.5-0.5c0.2-0.1,1-0.6,1.2-0.8
			c0.2-0.2,0.3-0.3,0.5-0.4c0.2-0.1,0.4-0.4,0.5-0.5c0.1-0.1,0.2-0.3,0.3-0.3c0.1-0.1,0.2-0.1,0.3-0.2c0.1-0.1,0.3-0.2,0.4-0.2
			c0.1,0,0.2,0,0.2,0c0.1,0,0,0.2-0.2,0.4c-0.1,0.2-0.3,0.3-0.4,0.6c-0.2,0.2-0.3,0.4-0.4,0.6c-0.2,0.2-0.4,0.5-0.5,0.6
			c-0.2,0.1-0.3,0.5-0.5,0.6c-0.1,0.1-0.3,0.2-0.4,0.3c-0.2,0.1-0.5,0.7-0.6,0.8c-0.1,0.2-0.4,0.5-0.6,0.6c-0.2,0.1-0.5,0.6-0.6,0.7
			c-0.1,0.1-0.1,0.2-0.2,0.3c-0.1,0.2-0.4,0.5-0.5,0.6c-0.2,0.2-0.4,0.4-0.5,0.6c-0.1,0.1-0.3,0.3-0.5,0.4
			C70.9,134.4,70.6,134.7,70.5,134.9 M83.8,129.8c-0.2,0.3-0.5,0.8-0.7,1c-0.2,0.2-0.6,0.7-0.6,0.8c-0.1,0.1-0.3,0.3-0.4,0.3
			c-0.1,0.1-1.5,0.7-1.8,0.9c-0.3,0.1-1.2,0.6-1.4,0.7c-0.2,0.1-1.8,0.9-2.2,1c-0.4,0.1-1.6,0.6-1.8,0.7c-0.2,0.1-0.7,0.2-0.9,0.3
			c-0.4,0.1-1.2,0.5-1.5,0.6c-0.4,0.1-0.6,0.2-0.7,0.3c-0.2,0.1-0.4,0.2-0.4,0.2c-0.1,0,0.1-0.1,0.2-0.2c0.1-0.1,0.5-0.4,0.6-0.5
			c0.2-0.1,0.4-0.4,0.5-0.5c0.1-0.2,0.4-0.4,0.6-0.7c0.2-0.3,0.2-0.2,0.4-0.4c0.1-0.2,0.3-0.3,0.4-0.4c0.1-0.1,0.4-0.3,0.5-0.4
			c0.1-0.1,0.4-0.5,0.5-0.7c0.1-0.1,0.3-0.3,0.4-0.4c0.1-0.2,0.1-0.2,0.3-0.3c0.1-0.2,0.6-0.9,0.7-1c0.1-0.2,0.3-0.2,0.3-0.3
			c0.1-0.1,0.2-0.2,0.3-0.4c0.1-0.2,0.6-0.6,0.7-0.6c0.1-0.1,0.4-0.3,0.6-0.4c0.2-0.2,0.4-0.4,0.4-0.4c0.1-0.1,0.5-0.6,0.6-0.8
			c0.1-0.2,0.5-0.7,0.8-0.9c0.1-0.1,0.5-0.4,0.6-0.5c0.1-0.1,0.3-0.4,0.4-0.6c0.2-0.2,0.8-0.5,1.1-0.7c0.3-0.2,1.1-0.6,1.2-0.7
			c0.2-0.2,0.4-0.4,0.5-0.6c0.1-0.2,0.3-0.2,0.4-0.3c0.1-0.1,0.2-0.2,0.3-0.3c0.1-0.1,0.4-0.3,0.5-0.4c0.1-0.1,0.4-0.4,0.5-0.5
			c0.1-0.1,0.2-0.2,0.3-0.4c0.1-0.2,0.4-0.3,0.5-0.4c0.1-0.1,0.2-0.2,0.3-0.3c0.1-0.1,0.5-0.5,0.6-0.6c0.1-0.1,0.2-0.2,0.3-0.3
			c0.1-0.1,0.3-0.3,0.5-0.5c0.2-0.2,0.3-0.4,0.3-0.4c-0.1,0.2,0.6-1.4,0.7-1.6c0.1-0.2,0.3-0.6,0.2-0.6c0,0-0.3,0.1-0.5,0.2
			c-0.2,0.1-0.5,0.3-0.7,0.3c-0.2,0.1-0.3,0.3-0.4,0.3c-0.1,0.1-0.2,0.1-0.2,0c0-0.1,0.2-0.4,0.3-0.5c0.1-0.1,0.4-0.5,0.5-0.6
			c0.1-0.2,0.4-0.5,0.5-0.6c0.1-0.1,0.5-0.8,0.6-1c0.1-0.2,0.2-0.6,0.4-0.8c0.1-0.2,0.6-0.3,0.7-0.5c0.1-0.1,0.3-0.6,0.4-0.7
			c0.1-0.2,0.5-1.1,0.7-1.2c0.1-0.1,0.6-1.6,0.5-1.7c-0.1-0.1-0.5,0.3-0.7,0.4c-0.2,0.1-0.4,0.2-0.6,0.4c-0.3,0.2-0.4,0.3-0.6,0.4
			c-0.3,0.1-0.7,0.6-0.8,0.8c-0.1,0.1-0.2,0.2-0.4,0.3c-0.2,0.1-0.3,0.3-0.4,0.4c-0.1,0.1-0.2,0.3-0.4,0.4c-0.2,0.1-0.3,0.3-0.4,0.4
			c-0.1,0.2-0.3,0.5-0.4,0.8c-0.1,0.2-0.3,0.7-0.4,0.8c-0.1,0.1-0.3,0.4-0.4,0.6c-0.1,0.2-0.4,0.7-0.5,0.8c-0.1,0.2-0.1,0.3-0.3,0.6
			c-0.2,0.3-0.3,0.4-0.4,0.6c-0.1,0.1-0.2,0.3-0.4,0.5c-0.1,0.1-0.4,0.4-0.5,0.6c-0.2,0.2-0.4,0.6-0.5,0.7c-0.1,0.1-0.6,0.6-0.8,0.8
			c-0.2,0.2-0.3,0.3-0.4,0.4c-0.1,0.1-0.4,0.5-0.6,0.7c-0.2,0.2-0.6,0.7-0.7,0.8c-0.1,0.2-0.4,0.3-0.6,0.5c-0.2,0.2-0.3,0.2-0.4,0.3
			c-0.2,0.1-0.2,0.2-0.4,0.3c-0.2,0.1-0.3,0.1-0.4,0.1c-0.1-0.1,0.2-0.1,0.2-0.2c0.1-0.1,0.3-0.2,0.5-0.3c0.2-0.1,0.4-0.4,0.6-0.5
			c0.1-0.1,0.3-0.4,0.4-0.6c0.1-0.1,0.2-0.3,0.3-0.4c0.1-0.1,0.3-0.3,0.6-0.5c0.2-0.2,0.4-0.6,0.5-0.8c0.1-0.1,0.5-0.5,0.6-0.6
			c0.1-0.2,0.5-0.5,0.6-0.8c0.1-0.3,0.7-0.9,0.9-1.1c0.1-0.2,0.7-1.5,0.8-1.7c0.1-0.2,0.3-0.7,0.5-0.9c0.1-0.2,0.4-1.3,0.5-1.5
			c0-0.2,0.1-0.7,0.1-0.7c0-0.2-0.2-0.2-0.2-0.2c-0.1-0.1-0.4,0-0.5,0.1c-0.1,0-0.3,0.2-0.5,0.3c-0.2,0.1-0.4,0.2-0.7,0.3
			c-0.2,0.1-0.2,0.2-0.4,0.3c-0.2,0.1-0.1,0.2-0.3,0.3c-0.1,0.2-0.2,0.2-0.3,0.3c-0.1,0.1-0.2,0.1-0.3,0.3c-0.1,0.2-0.2,0.2-0.3,0.3
			c-0.1,0.1-0.3,0.3-0.5,0.4c-0.1,0.1-0.4,0.2-0.5,0.3c-0.1,0.1-0.2,0.2-0.4,0.4c-0.2,0.2-0.3,0.2-0.4,0.4c-0.1,0.1-0.2,0.2-0.4,0.3
			c-0.1,0.1-0.4,0.4-0.6,0.5c-0.2,0.1-0.3,0.2-0.4,0.3c-0.1,0.1-0.3,0.3-0.4,0.4c-0.1,0.1-0.3,0.3-0.4,0.5c-0.1,0.2-0.1,0.1-0.2,0.3
			c-0.1,0.1-0.2,0.3-0.3,0.4c-0.2,0.1-0.3,0.4-0.5,0.6c-0.2,0.2-0.3,0.3-0.4,0.3c-0.1,0.1-0.1,0.2-0.3,0.3c-0.1,0.1-0.3,0.3-0.4,0.4
			c-0.1,0.1-0.3,0.4-0.4,0.6c-0.1,0.2-0.2,0.3-0.3,0.4c-0.1,0.2-0.3,0.4-0.4,0.5c-0.6,0.9-0.7,1.5-0.7,1.7c-0.1,0.2-0.1,0.5,0,0.6
			c0.1,0.1,0.6,0,0.7,0c0.2,0,0.8-0.3,0.8-0.3c0,0-0.2,0.3-0.3,0.4c-0.1,0.1-0.3,0.6-0.5,0.7c-0.2,0.1-0.4,0.5-0.6,0.6
			c-0.2,0.1-0.6,0.5-0.8,0.7c-0.2,0.1-0.5,0.4-0.7,0.6c-0.2,0.2-0.9,0.7-1,0.8c-0.1,0.1-0.8,0.4-0.9,0.5c-0.2,0-0.6,0.3-0.9,0.5
			c-0.4,0.2-0.6,0.4-0.7,0.5c-0.1,0.1-0.5,0.3-0.6,0.4c-0.1,0.1-0.8,0.4-1,0.5c-0.1,0.1-0.4,0.2-0.6,0.3c-0.2,0.1-0.3,0.2-0.4,0.3
			c-0.1,0.1-0.3,0.3-0.5,0.4c-0.1,0.1-0.3,0.3-0.4,0.4c-0.1,0.1-0.5,0.4-0.8,0.5c-0.2,0.1-0.5,0.5-0.6,0.6c-0.1,0.1-0.4,0.3-0.5,0.3
			c-0.1-0.1,0-0.2,0.1-0.3c0.1-0.1,0.3-0.3,0.3-0.3c0.1-0.1,0.2-0.4,0.3-0.6c0.1-0.2,0.8-1.7,0.9-1.8c0.1-0.1,0.5-1.2,0.6-1.3
			c0-0.1,0.5-1.4,0.6-1.8c0.1-0.4,0.5-1.1,0.7-1.6c0.2-0.5,0.5-1.2,0.6-1.6c0.1-0.4,0.4-1.4,0.5-1.7c0.1-0.3,0.6-2.1,0.7-2.2
			c0.1-0.2,0.3-1.2,0.4-1.4c0.1-0.2,0.3-0.5,0.3-0.6c0.1-0.1,0.1-0.8,0.1-0.9c0-0.1,0-0.2,0.1-0.4c0.1-0.1,0.2-0.7,0.3-1
			c0.1-0.2,0-0.5,0-0.6c0-0.1,0.3-1.2,0.3-1.4c0-0.2,0.2-0.5,0.3-0.6c0.1-0.2,0.4-1.5,0.3-1.8c0-0.2-0.2-0.3-0.1-0.5
			c0.1-0.1-0.3-0.4-0.4-0.5c-0.1-0.1,0-0.4,0.1-0.4c0-0.1,0.2-0.2,0.4-0.3c0.1-0.1,0.2-0.3,0.4-0.4c0.2,0,0.3-0.3,0.4-0.3
			c0.1-0.1,0.2-0.2,0.4-0.3c0.2-0.1,0.4-0.2,0.5-0.3c0.1-0.1,0.3-0.3,0.3-0.3c0.1-0.1,1.1-0.9,1.2-1c0.1-0.1,1-0.8,1.1-1
			c0.1-0.1,0.7-0.5,0.8-0.6c0.1-0.1,0.3-0.3,0.3-0.4c0-0.1,0.2-0.2,0.3-0.2c0.1-0.1,0.1-0.2,0.3-0.3c0.2-0.1,0.3-0.1,0.5-0.2
			c0.2-0.1,0.4-0.2,0.5-0.2c0.1-0.1,0.3-0.2,0.5-0.3c0.1-0.1,0.3,0,0.4-0.1c0.2,0,0.3,0,0.5-0.1c0.2,0,1.2-0.5,1.4-0.5
			c0.2-0.1,1.1-0.5,1.3-0.6c0.2-0.1,0.9-0.3,1.1-0.4c0.5-0.2,0.7-0.3,0.8-0.4c0.1,0,0.5-0.3,0.8-0.4c0.3-0.1,0.6-0.3,0.9-0.3
			c0.2-0.1,1.5-0.6,1.6-0.6c0.1,0,0.7-0.2,1-0.5c0.3-0.2,0.8-0.3,1.1-0.5c0.3-0.2,1.5-0.9,1.7-1c0.2-0.1,0.6-0.3,0.7-0.4
			c0.1-0.1,0.4-0.2,0.6-0.3c0.2-0.1,0.7-0.3,0.8-0.3c0.1,0,1.5-0.7,1.6-0.7c0.1-0.1,0.7-0.6,0.7-0.5c0,0.1,0,0.2-0.1,0.4
			c-0.1,0.2,0,0.6-0.1,0.7c-0.1,0.2-0.1,0.6-0.2,0.7c-0.1,0.1-0.2,0.9-0.2,1.2c-0.1,0.2,0,1.1-0.1,1.4c-0.1,0.3-0.3,1.8-0.4,2
			c-0.1,0.2-0.3,1.5-0.5,1.9c-0.1,0.4-0.5,1.7-0.5,1.9c0,0.2-0.1,0.5-0.1,0.7c0,0.2-0.2,0.7-0.3,1.1c0,0.2-0.1,0.6-0.2,0.9
			c-0.1,0.2-0.2,0.6-0.3,0.9c0,0.1-0.5,1.1-0.5,1.4c-0.1,0.2-0.6,2-0.8,2.3c-0.1,0.3-0.6,1.4-0.6,1.5c-0.1,0.2-0.3,0.8-0.4,1.1
			c-0.1,0.3-0.3,0.9-0.4,1.1c-0.1,0.1-1.2,2.4-1.3,2.6c-0.2,0.2-0.3,0.9-0.5,1.1c-0.1,0.2-0.5,0.8-0.6,0.9c-0.1,0.1-1,2.1-1.2,2.3
			c-0.2,0.2-0.3,0.6-0.4,0.7c-0.1,0.1-1,1.6-1.1,1.7c-0.1,0.2-1,1.4-1.3,1.7C84.3,129.1,84.1,129.5,83.8,129.8 M77.3,123.8
			c0.1-0.2,0.1-0.2,0.2-0.4c0.1-0.2,0.2-0.4,0.3-0.5c0.1-0.1,0.4-0.5,0.4-0.7c0.1-0.2,0.3-0.3,0.4-0.4c0.1-0.1,0.2-0.1,0.3-0.2
			c0.1-0.1,0.1-0.3,0.2-0.4c0.1-0.2,0.2-0.2,0.3-0.3c0.1-0.1,0.3-0.3,0.4-0.5c0.1-0.1,0.3-0.3,0.4-0.3c0.1-0.1,0.3-0.2,0.4-0.2
			c0,0,0.1,0,0.2,0c0.1,0,0.1,0.1,0.1,0.2c0,0.1-0.2,0.3-0.4,0.4c-0.1,0.1-0.1,0.1-0.3,0.3c-0.2,0.1-0.1,0.2-0.4,0.4
			c-0.2,0.2-0.2,0.2-0.3,0.3c-0.1,0.1-0.2,0.2-0.3,0.3c-0.1,0.2-0.3,0.4-0.4,0.5c-0.1,0.1-0.4,0.3-0.4,0.4c0,0.1-0.3,0.4-0.4,0.5
			c-0.2,0.2-0.2,0.2-0.3,0.4c-0.1,0.1-0.2,0.4-0.4,0.4C77.1,124.1,77.2,124,77.3,123.8 M101.5,117.6c-0.4,0.5-0.6,1-1,1.3
			c-0.4,0.4-1.3,1.6-1.8,2c-0.5,0.4-1.3,1.2-2,1.7c-0.7,0.5-1.7,1.4-2.1,1.7c-0.4,0.3-1.5,1.1-2,1.5c-0.5,0.4-2.1,1.4-2.6,1.7
			c-0.5,0.3-2,1.4-2.3,1.6c-0.3,0.2-2.6,1.6-2.8,1.7c-0.2,0.1-0.7,0.3-0.7,0.2c-0.1-0.1,0.7-1,0.9-1.3c0.2-0.2,0.8-0.9,1-1.1
			s1.3-1.9,1.4-2.1c0.2-0.2,0.8-1.2,1-1.4c0.2-0.2,0.8-1.2,0.9-1.3c0.1-0.1,0.8-1.5,0.9-1.8c0.2-0.3,0.7-1.2,0.9-1.4
			c0.2-0.2,1.3-2.5,1.4-2.8c0.1-0.3,0.8-1.9,0.8-2.1c0-0.2,0.5-1.1,0.6-1.2c0.1-0.2,0.7-1.7,0.7-1.9c0.1-0.2,0.6-1.8,0.7-2.1
			c0.1-0.3,0.3-0.8,0.4-1c0.1-0.2,0.9-2.9,0.9-3.1c0.1-0.2,0.6-2.2,0.6-2.5c0.1-0.3,0.4-2.4,0.5-2.8c0.1-0.4,0.4-1.8,0.4-2
			c0-0.3,0.2-0.6,0.2-0.8c0-0.2,0.1-0.5,0.2-0.5c0.1-0.1,0.3-2,0.3-2c0.1-0.1,0.8-0.6,1-0.6c0.2-0.1,0.6-0.5,0.9-0.6
			c0.2-0.1,0.2-0.2,0.4-0.4c0.2-0.1,1.4-0.8,1.5-0.8c0.1,0,0.6-0.2,0.8-0.4c0.3-0.2,0.8-0.6,1-0.7c0.2-0.2,0.6-0.4,0.8-0.5
			c0.3-0.1,0.5-0.3,0.7-0.4c0.2-0.2,0.6-0.5,0.8-0.7c0.2-0.2,1.4-1.2,1.8-1.5c0.2-0.2,0.6-0.7,0.9-0.9c0.3-0.3,0.7-0.5,1.1-0.7
			c0.4-0.3,0.6-0.4,0.9-0.7c0.3-0.2,0.8-1,1-1.1c0.1-0.2,0.5-0.5,0.7-0.6c0.1-0.1,0,0.1,0,0.2c0,0.2-0.2,0.5-0.2,0.8
			c-0.1,0.3-0.3,0.9-0.4,1.1c-0.1,0.2-0.1,0.7-0.2,1c-0.1,0.3-0.2,1.8-0.2,2.3c-0.1,0.5-0.3,1.3-0.4,1.8c-0.1,0.5-0.2,1.5-0.3,1.7
			c0,0.2-0.3,1.6-0.5,2c-0.2,0.4-0.3,0.8-0.5,1.1c-0.6,0.8-0.8,1.4-1.1,1.7c-0.3,0.3-0.4,0.4-0.5,0.5c-0.1,0.1-0.3,0.1-0.4,0.1
			c-0.1,0-0.1,0-0.2-0.2c-0.1-0.1-0.2-0.1-0.3,0c-0.1,0.1-0.3,0.4-0.6,0.7c-0.2,0.2-0.7,0.9-0.8,1.1c-0.1,0.2-0.4,0.5-0.5,0.6
			c-0.2,0.2-0.6,0.6-0.7,0.7c-0.2,0.1-0.5,1-0.7,1.1c-0.2,0.1-0.3,0.4-0.6,0.6c-0.2,0.3-0.2,0.4-0.4,0.8c-0.3,0.5-0.4,0.8-0.6,1
			c-0.2,0.3-0.2,0.2-0.4,0.4c-0.2,0.2-0.8,1-1,1.2c-0.2,0.2-0.4,0.7-0.6,0.9c-0.2,0.2-0.3,0.6-0.4,0.8c-0.1,0.2-0.7,1.4-0.9,1.6
			c-0.2,0.2-0.3,0.9-0.5,1.1c-0.2,0.3-0.8,1.1-1.1,1.4c-0.3,0.3-1,1.4-1.2,1.6c-0.2,0.2-0.5,0.9-0.6,1.2c-0.1,0.2-0.6,0.8-0.7,0.9
			c-0.1,0.1-0.3,0.6-0.5,0.9c-0.1,0.2-0.3,0.6-0.6,1c-0.3,0.3-1.1,2.2-1.4,2.7c-0.3,0.5-2.1,3.2-2.3,3.5c-0.2,0.3-0.4,0.8-0.6,1.1
			c-0.2,0.3-0.3,0.6-0.3,0.7c0,0.1,0.2,0,0.3,0c0.2,0,0.8-0.3,0.9-0.3c0.2-0.1,0.7-0.5,1.2-0.8c0.5-0.4,0.7-0.7,1.2-1.1
			c0.5-0.4,1.2-1.3,1.7-1.7c0.4-0.4,1.7-1.5,2.1-2c0.4-0.5,1-1.2,1.4-1.7c0.4-0.6,1.1-1.4,1.5-2c0.4-0.6,1.2-1.3,1.4-1.8
			c0.3-0.4,0.9-1.2,1.2-1.6c0.3-0.5,0.8-1.5,1.1-1.9c0.3-0.4,1.3-1.9,1.5-2.2c0.2-0.3,0.8-1,1-1.3c0.2-0.3,0.5-1.2,0.8-1.7
			c0.3-0.5,1-1.8,1.1-2c0.1-0.2,0.6-1.1,0.7-1.2c0.1-0.1,0.1,0.1,0.1,0.1s-0.3,0.6-0.4,0.7c-0.1,0.2-0.3,0.8-0.6,1.3
			c-0.2,0.5-0.4,1.2-0.8,1.9c-0.3,0.7-0.3,0.8-0.6,1.4c-0.3,0.6-1,1.9-1.4,2.6c-0.4,0.7-1.1,2.1-1.5,2.8
			C103.1,114.9,101.9,117,101.5,117.6 M106.7,102.3c0.5-0.1,0.7,0.3,0.8,0.8c0,0.1,0,0.3-0.1,0.5c-0.1,0.2-0.3,0.4-0.4,0.6
			c-0.1,0.3-0.8,2-1,2.2c-0.2,0.3-0.6,0.6-0.7,0.9c-0.1,0.2-0.5,0.7-0.6,1c-0.1,0.3-0.6,1-0.7,1.2c-0.2,0.3-0.4,1-0.6,1.3
			c-0.2,0.3-0.6,0.8-0.7,1c-0.2,0.2-0.6,0.9-0.8,1.2c-0.2,0.2-0.6,0.7-0.7,0.9c-0.1,0.2-0.3,0.4-0.5,0.7c-0.2,0.3-0.4,0.5-0.5,0.7
			c-0.1,0.2-0.5,0.5-0.7,0.7c-0.2,0.3-0.7,1.1-1,1.5c-0.3,0.4-0.9,1.3-1.2,1.6c-0.3,0.3-0.7,0.7-0.9,0.9c-0.2,0.2-0.6,0.5-0.8,0.7
			c-0.2,0.1-0.6,0.6-0.6,0.5c0-0.1,0.3-0.4,0.4-0.6c0.1-0.3,1-1.7,1.1-1.9c0.1-0.2,0.7-1.5,0.9-1.7c0.1-0.2,0.5-0.9,0.9-1.4
			c0.3-0.5,0.9-1.3,1-1.6c0.1-0.4,0.6-1.3,0.8-1.6c0.2-0.3,0.8-1.5,1-1.8c0.2-0.2,0.7-0.8,0.8-1.1c0.2-0.3,0.5-1.3,0.7-1.6
			c0.2-0.3,0.9-1.4,1.1-1.8c0.2-0.3,0.2-0.6,0.4-0.8c0.2-0.2,0.4-0.9,0.8-1.1c0.3-0.2,0.7-1,0.8-1.2c0.2-0.2,0.4-0.5,0.5-0.6
			C106.4,102.4,106.2,102.4,106.7,102.3 M119.4,87.9c-0.2,1.7-0.7,4.2-0.8,4.6c-0.1,0.7-0.5,2.1-0.7,2.7c-0.1,0.3-0.9,2.7-1.4,3.5
			c-0.1,0.2-1.1,2.2-1.4,2.6c-0.2,0.4-1.3,2-1.8,2.8c-0.1,0.2-0.4,0.5-0.5,0.7c0.2-0.3,0.4-0.7,0.6-1c0.2-0.4,1-1.9,1.2-2.2
			c0.2-0.3,0.6-1.3,0.8-1.8c0.3-0.5,0.7-1.3,0.8-1.6c0.1-0.4,0.6-1.3,0.7-1.9c0.1-0.6,0.6-1.3,0.7-1.8c0.1-0.4,0.4-1.6,0.6-1.9
			c0.1-0.4,0.3-1.6,0.4-2c0.1-0.4,0.3-1.5,0.4-1.7C119.1,88.5,119.5,87.6,119.4,87.9 M119.8,84.3c0,0.2-0.1,1.1-0.1,1.1
			c-0.1,0.2-0.2,0.6-0.3,0.9c-0.1,0.3-0.2,0.8-0.2,1.1c-0.1,0.3-0.2,1.1-0.2,1.3c-0.1,0.2-0.2,0.6-0.4,0.9c-0.1,0.3-0.3,0.7-0.3,0.9
			c0,0.2-0.2,0.6-0.4,0.8c-0.1,0.2-0.2,0.6-0.3,0.8c-0.1,0.1-0.1,0.2-0.2,0.5c-0.1,0.3-0.5,1.1-0.6,1.2c-0.1,0.1-0.1,0.7-0.3,1.1
			c-0.1,0.4-0.5,1.3-0.7,1.7c-0.1,0.4-0.3,1.1-0.4,1.4c-0.1,0.3,0,0.2,0.1,0.2c0.1,0,0.3-0.2,0.4-0.1c0.1,0.1-0.3,0.5-0.4,0.7
			c-0.1,0.2-0.2,0.4-0.3,0.6c-0.1,0.2-0.3,0.6-0.4,0.9c-0.1,0.4-0.7,1.5-0.8,1.7c-0.1,0.2-0.7,1.1-0.7,1.3c-0.1,0.1-0.4,0.6-0.6,0.8
			c-0.1,0.2-0.5,1-0.7,1.3c-0.2,0.3-0.6,1-0.8,1.3c-0.2,0.4-0.7,1.1-0.9,1.3c-0.2,0.3-0.6,0.9-0.8,1.1c-0.2,0.3-1.4,2-1.5,2
			c-0.2,0,0.8-1.4,1-1.6c0.1-0.2,1-1.7,1.2-2c0.2-0.3,0.8-1.3,0.9-1.6c0.1-0.3,1.1-2.1,1.2-2.4c0.1-0.3,0.5-1.1,0.7-1.6
			c0.2-0.4,1.1-2.3,1.3-2.6c0.2-0.4,1-2.4,1.1-2.6c0.1-0.2,0.6-1.6,0.7-1.9c0.1-0.3,0.8-2,0.9-2.3c0.1-0.3,0.5-1.7,0.7-2.2
			c0.2-0.5,0.3-1.1,0.4-1.6c0.1-0.4,0.4-1.3,0.6-1.7s0.4-1.8,0.5-2.2c0.1-0.4,0.3-1.2,0.3-1.5c0-0.3,0.2-1.4,0.3-1.7
			c0.1-0.3,0.2-0.7,0.3-0.9C120.2,80.6,119.9,83,119.8,84.3 M120,79.1c-0.1,0.3-0.2,1-0.3,1.4c-0.1,0.3-0.6,2.3-0.7,2.8
			c-0.1,0.5-0.2,1.1-0.3,1.5c-0.1,0.4-0.5,2-0.7,2.8c-0.3,0.8-0.6,1.9-0.8,2.5c-0.2,0.6-0.6,1.5-0.7,1.7c-0.1,0.2-0.3,1-0.4,1.3
			c-0.1,0.3-0.5,1.5-0.6,1.9c-0.1,0.4-0.5,0.9-0.7,1.5c-0.2,0.6-0.7,1.8-1.2,2.9c-0.5,1.1-1.1,2.4-1.3,2.8c-0.3,0.4-0.6,1-0.7,1.4
			c-0.2,0.3-1.1,2.1-1.2,2.3c-0.1,0.2-0.5,1-0.7,1.3c-0.2,0.3-0.5,0.8-0.6,1.2c-0.1,0.4-1,1.7-1.3,2.1c-0.3,0.4-0.7,1.3-0.9,1.6
			c-0.2,0.4-0.6,0.9-0.8,1.2c-0.2,0.3-0.7,0.8-0.9,1.1c-0.2,0.3-1.1,1.4-1.1,1.2c-0.1-0.2,0.5-0.8,0.7-1.3c0.3-0.4,0.6-1,0.8-1.3
			c0.2-0.3,0.4-0.8,0.6-1.1c0.2-0.4,0.8-1.6,1-1.8c0.1-0.2,0.3-0.8,0.5-1.1c0.2-0.3,0.5-0.7,0.7-1c0.2-0.3,0.5-0.8,0.7-1.1
			c0.2-0.3,0.4-1,0.6-1.4c0.2-0.3,0.2-1.3,0.4-1.6c0.1-0.3,0.4-1.1,0.7-1.8c0.2-0.6,1-2.8,1.1-3.1c0.1-0.3,0.4-1,0.5-1.2
			c0.1-0.2,0.2-0.8,0.3-1.1c0.1-0.3,0.8-2.9,0.9-3.2c0.1-0.3,0.2-1.4,0.3-1.7c0.1-0.3,0.3-1.9,0.3-2.1c0.1-0.2,0.3-2.5,0.4-2.7
			c0-0.2,0-0.5,0-0.6c0-0.1,0.2-0.4,0.2-0.5c0-0.1,0.2-0.9,0.2-1.1c0-0.3,0-0.8,0-0.9c0-0.1,0-0.5,0-0.7c0-0.1,0.1-0.2,0.1-0.3
			c0-0.1,0.6-0.6,0.8-0.9c0.2-0.2,0.5-0.8,0.7-1c0.1-0.2,0.7-0.7,0.8-1c0.1-0.2,0.4-0.7,0.5-0.9c0.1-0.3,0.3-0.6,0.4-0.7
			c0.1-0.1,0.4-0.5,0.5-0.7c0.1-0.2,0.3-0.6,0.4-1c0.2-0.3,0.6-1.6,0.7-1.9c0.1-0.2,0.3-0.7,0.4-1c0,0,0,0,0,0c0,0,0,0,0-0.1
			c0.1-0.3,0.1,2.6,0.2,3.9C120.2,77.9,120.1,78.8,120,79.1"/>
		<path class="st1" d="M40.1,52.5c0,0,0,0.5,0.1,0.6c0.1,0.1,0.2,0.4,0.3,0.4c0.1,0,0.3,0.2,0.4,0.1c0.1-0.1,1.2-0.7,1.3-0.7
			c0.1,0,0.7-0.3,0.6-0.4c0-0.1,0.8-0.5,0.9-0.6c0.2-0.1,0.3-0.1,0.4-0.2c0.1,0,0.7-0.3,1.3-0.6c0.1-0.1,0.7-0.4,0.8-0.4
			c0.2-0.1,0.4,0.1,0.5,0.1c0.2,0.1,0.2,0,0.4,0c0.1,0,0.2,0,0.4,0c0.1,0,0.3-0.1,0.3,0c0.1,0.1,0.3,0.2,0.4,0.2
			c0.1,0.1,0.3-0.1,0.4,0.1c0.1,0.1,0.2,0.1,0.2,0.2c0,0.1,0.1,0.3,0.2,0.4c0.1,0.1,0.3,0.6,0.2,0.6c-0.1,0.1-0.1,0.1-0.2,0.3
			c0,0.1,0.1,0.3,0.1,0.5c0,0.1,0,0.2-0.1,0.4c-0.1,0.2,0,0.1-0.1,0.3c0,0.1-0.1,0.2-0.2,0.3c-0.1,0.1-0.1,0.1-0.2,0.3
			c0,0.1,0,0.2-0.1,0.3c0,0-0.3,0.1-0.3,0.1c-0.1,0-0.2,0-0.2-0.1c0-0.1-0.3,0.1-0.4,0.1c-0.1,0-0.2,0-0.3-0.1
			c-0.1-0.1-0.2-0.4-0.4-0.5c-0.2-0.1-0.2-0.1-0.3-0.1c-0.2,0-0.5,0.2-0.7,0.2c-0.1,0.1-0.4,0.2-0.5,0.3c-0.1,0.1-0.4,0.2-0.5,0.2
			c-0.1,0.1-0.4,0.2-0.4,0.2c0,0.1,0,0.2,0,0.2c0,0.1,0.1,0.1,0,0.3c-0.1,0.1-0.1,0.2,0,0.3c0.1,0.1,0.1,0.2,0.1,0.4
			c0,0.1,0,0.3,0,0.4s0,0.3-0.1,0.3c-0.1,0.1-0.1,0.1-0.1,0.3c0,0.2,0.5,1.1,0.6,1.3s0.2,0.1,0.4,0.2c0.2,0,0.2,0,0.4,0.1
			c0.1,0.1,0.2,0.1,0.3,0c0.1,0,0.2-0.1,0.4,0c0.2,0.1,0.5,0,0.7-0.1c0.1-0.1,1.7-0.9,1.9-0.9s1.3-0.5,1.5-0.6
			c0.2-0.1,0.6-0.5,0.7-0.6c0.2-0.1,0.2-0.1,0.3-0.2c0.1-0.1,0.1-0.3,0.2-0.4c0.1-0.1,0.2-0.2,0.2-0.3c0-0.1,0-0.2,0.2-0.3
			c0.2-0.1,0.2-0.2,0.3-0.2c0.1-0.1,0.2-0.1,0.2-0.2c0-0.2-0.1-0.4,0-0.5c0.1-0.1,0.1-0.2,0.1-0.3c0-0.1-0.2-0.5-0.2-0.6
			c0-0.1,0-0.2,0-0.4c0-0.2-0.1-0.3-0.1-0.5c0-0.2,0-0.6-0.1-0.7c-0.1-0.1-0.3-0.4-0.3-0.6c0-0.1-0.4-1.2-0.5-1.3
			c-0.1-0.1-0.6-0.8-0.8-0.8c-0.1,0-0.4-0.2-0.4-0.3c-0.1-0.1-0.1-0.1-0.3-0.2c-0.1-0.1-0.5-0.4-0.6-0.5C49.3,48,49.1,48.1,49,48
			c-0.1,0-0.1,0-0.4,0c-0.2,0-0.3,0-0.3,0c0,0-0.2,0-0.3,0c-0.1,0-0.5,0-0.6,0c-0.1,0-0.6,0.1-0.7,0.1c0,0-0.1,0-0.2,0
			c0,0-0.3,0-0.3,0c0,0-0.4,0-0.5,0.1c-0.1,0.1-0.6,0.3-0.6,0.3S45,48.6,45,48.6c0,0-0.4,0.1-0.5,0.2c-0.1,0-0.7,0.4-0.7,0.4
			s-0.2,0.2-0.3,0.2c-0.1,0-1,0.5-1.2,0.6c-0.2,0.1-0.8,0.5-1,0.5c-0.2,0.1-1.1,0.6-1.2,0.7c0,0,0,0.2-0.1,0.3
			c0,0.1-0.1,0.2-0.1,0.2c0,0.1,0.1,0.4,0.1,0.4C40,52.2,40.1,52.4,40.1,52.5"/>
		<path class="st1" d="M94.8,24.7c0.1,0.1,0.3,0.3,0.5,0.4c0.1,0.1,0.2,0.2,0.3,0.3c0.1,0.1,0.4,0.2,0.4,0.2c0.1,0,0.1-0.1,0.2-0.2
			c0.1-0.1,0.2-0.1,0.2-0.2c0-0.1-0.1-0.2-0.2-0.3c-0.1-0.1-0.3-0.3-0.4-0.4c-0.1-0.1-0.5-0.5-0.6-0.5c-0.1,0-0.2-0.1-0.3-0.1
			c-0.1,0-0.2,0.1-0.3,0.1c-0.1,0.1-0.1,0.1-0.2,0.2c0,0.1-0.1,0.1,0,0.2C94.7,24.5,94.8,24.7,94.8,24.7"/>
	</g>
</g>
<rect class="st2" width="402" height="221.1"/>
</svg>
