<?xml version="1.0" encoding="utf-8"?>
<!-- Generator: Adobe Illustrator 27.0.1, SVG Export Plug-In . SVG Version: 6.00 Build 0)  -->
<svg version="1.1" id="Layer_1" xmlns="http://www.w3.org/2000/svg" xmlns:xlink="http://www.w3.org/1999/xlink" x="0px" y="0px"
	 viewBox="0 0 882.45 200" style="enable-background:new 0 0 882.45 200;" xml:space="preserve">
<style type="text/css">
	.st0{fill:#FFFFFF;}
</style>
<path class="st0" d="M118.79,109.54c0,24.21-1.37,35.18-8.68,42.72c-5.94,6.17-12.11,8.23-25.59,8.23h-46.6
	c-13.48,0-19.65-2.06-25.59-8.23C3.88,143.58,0,130.56,0,96.52c0-34.04,3.88-47.06,12.33-55.74c5.71-6.17,12.11-8.23,25.59-8.23
	h46.6c13.48,0,19.65,2.06,25.59,8.23c7.08,7.31,8.91,17.82,8.68,40.89H76.76c-0.45-9.59-0.68-11.88-1.6-13.02
	c-1.37-1.6-3.2-2.06-8-2.06h-11.2c-4.8,0-6.62,0.23-7.99,2.06c-1.37,1.6-2.29,5.49-2.29,27.87s0.91,26.27,2.29,27.87
	c1.37,1.83,3.19,2.06,7.99,2.06h11.2c4.8,0,6.62-0.46,8-2.06c1.14-1.14,1.37-3.88,1.6-14.85H118.79z M143.88,32.55h45.23v129.3
	c0,17.59-2.75,24.44-8.23,29.92c-4.8,4.8-11.88,8.22-27.41,8.22c-10.51,0-18.27-1.37-28.56-3.42v-32.67h8c5.71,0,8-0.45,9.14-1.6
	c1.37-1.37,1.83-3.65,1.83-8.68V32.55z M303.23,150.43c-2.74,8.68-6.62,10.51-15.3,10.51h-30.61c-8.68,0-12.56-1.83-15.3-10.51
	L203.17,32.55h48.43l20.78,82.24h2.52l20.56-82.24h46.6L303.23,150.43z M432.23,66.59V32.55h-30.61V0.57l-32.8,0l-13.57,41.18v24.83
	v61.23c0,15.99,2.29,21.93,6.39,26.04c4.34,4.34,11.2,8,26.5,8c12.79,0,25.36-1.6,32.9-3.43l10.96-2.51v-29.7h-19.42
	c-5.71,0-8-0.45-9.13-1.6c-1.37-1.37-1.83-3.65-1.83-8.68V66.59H432.23z M482.07,76.82c0.44,7.93,6.9,13.37,17.04,13.37
	c7.93,0,13.66-3.38,13.66-9.99c0-7.78-7.93-8.96-19.24-12.34C483.98,64.92,474,61.54,474,49.65c0-12.93,11.75-17.77,23.35-17.77
	c13.66,0,23.5,6.61,24.38,20.12h-10.72c-0.44-6.76-5.43-11.6-13.95-11.6c-6.9,0-12.34,2.94-12.34,8.67c0,7.2,8.23,8.37,19.83,11.75
	c9.25,2.79,18.95,6.17,18.95,18.8c0,14.39-12.63,19.09-24.68,19.09c-15.28,0-26.44-7.34-27.47-21.88H482.07z M534.07,33.34h11.9
	l17.77,52l17.63-52h11.31l-23.5,63.89h-11.6L534.07,33.34z M643.93,88.86c-3.23,4.41-11.02,9.84-21.74,9.84
	c-14.25,0-20.42-8.52-20.42-17.63c0-15.72,15.13-18.95,24.97-19.83l15.42-1.32v-1.91c0-11.16-1.62-17.18-13.22-17.18
	c-10.43,0-14.1,4.99-14.1,13.95h-10.72c0.15-18.95,14.39-22.91,26-22.91c17.63,0,23.06,9.11,23.06,24.82v29.23
	c0,2.64,1.03,3.97,3.67,3.97c1.91,0,3.97-0.59,5.43-1.47v8.23c-1.76,1.03-5.14,2.06-8.81,2.06c-7.93,0-9.55-4.7-9.55-8.67V88.86z
	 M642.17,67.27l-13.51,1.47c-9.84,1.03-15.72,4.55-15.72,11.9c0,5.73,3.97,9.4,11.6,9.4c7.34,0,12.78-2.64,17.63-6.76V67.27z
	 M676.24,0h11.02v97.23h-11.02V0z M747.18,88.86c-3.23,4.41-11.02,9.84-21.74,9.84c-14.25,0-20.42-8.52-20.42-17.63
	c0-15.72,15.13-18.95,24.97-19.83l15.42-1.32v-1.91c0-11.16-1.62-17.18-13.22-17.18c-10.43,0-14.1,4.99-14.1,13.95h-10.72
	c0.15-18.95,14.39-22.91,26-22.91c17.63,0,23.06,9.11,23.06,24.82v29.23c0,2.64,1.03,3.97,3.67,3.97c1.91,0,3.97-0.59,5.43-1.47
	v8.23c-1.76,1.03-5.14,2.06-8.81,2.06c-7.93,0-9.55-4.7-9.55-8.67V88.86z M745.42,67.27l-13.51,1.47
	c-9.84,1.03-15.72,4.55-15.72,11.9c0,5.73,3.97,9.4,11.6,9.4c7.34,0,12.78-2.64,17.63-6.76V67.27z M818.78,56.26v40.98h-9.4V67.79
	c-2.13,2.06-6.24,3.67-10.5,3.67v-7.64c5.58-0.15,10.06-3.52,11.6-7.56H818.78z M830.39,87.54h9.69v9.69h-9.69V87.54z M882.45,76.75
	c0,12.85-5.07,21.22-16.96,21.22s-16.96-8.37-16.96-21.22c0-12.85,5.07-21.22,16.96-21.22S882.45,63.89,882.45,76.75z M857.85,76.75
	c0,8.08,1.54,13.81,7.64,13.81s7.64-5.73,7.64-13.81c0-8.08-1.54-13.81-7.64-13.81S857.85,68.67,857.85,76.75z"/>
</svg>
