<?xml version="1.0" encoding="utf-8"?>
<!-- Generator: Adobe Illustrator 28.0.0, SVG Export Plug-In . SVG Version: 6.00 Build 0)  -->
<svg version="1.1" id="Layer_1" xmlns="http://www.w3.org/2000/svg" xmlns:xlink="http://www.w3.org/1999/xlink" x="0px" y="0px"
	 viewBox="0 0 882.5 200" style="enable-background:new 0 0 882.5 200;" xml:space="preserve">
<style type="text/css">
	.st0{fill:#FFFFFF;}
</style>
<path class="st0" d="M118.8,109.5c0,24.2-1.4,35.2-8.7,42.7c-5.9,6.2-12.1,8.2-25.6,8.2H37.9c-13.5,0-19.6-2.1-25.6-8.2
	C3.9,143.6,0,130.6,0,96.5c0-34,3.9-47.1,12.3-55.7c5.7-6.2,12.1-8.2,25.6-8.2h46.6c13.5,0,19.6,2.1,25.6,8.2
	c7.1,7.3,8.9,17.8,8.7,40.9h-42c-0.5-9.6-0.7-11.9-1.6-13c-1.4-1.6-3.2-2.1-8-2.1H56c-4.8,0-6.6,0.2-8,2.1
	c-1.4,1.6-2.3,5.5-2.3,27.9s0.9,26.3,2.3,27.9c1.4,1.8,3.2,2.1,8,2.1h11.2c4.8,0,6.6-0.5,8-2.1c1.1-1.1,1.4-3.9,1.6-14.9H118.8z
	 M143.9,32.6h45.2v129.3c0,17.6-2.7,24.4-8.2,29.9c-4.8,4.8-11.9,8.2-27.4,8.2c-10.5,0-18.3-1.4-28.6-3.4v-32.7h8
	c5.7,0,8-0.5,9.1-1.6c1.4-1.4,1.8-3.7,1.8-8.7V32.6z M303.2,150.4c-2.7,8.7-6.6,10.5-15.3,10.5h-30.6c-8.7,0-12.6-1.8-15.3-10.5
	L203.2,32.6h48.4l20.8,82.2h2.5l20.6-82.2h46.6L303.2,150.4z M432.2,66.6v-34h-30.6v-32h-32.8l-13.6,41.2v24.8v61.2
	c0,16,2.3,21.9,6.4,26c4.3,4.3,11.2,8,26.5,8c12.8,0,25.4-1.6,32.9-3.4l11-2.5v-29.7h-19.4c-5.7,0-8-0.5-9.1-1.6
	c-1.4-1.4-1.8-3.7-1.8-8.7V66.6H432.2z M482.1,76.8c0.4,7.9,6.9,13.4,17,13.4c7.9,0,13.7-3.4,13.7-10c0-7.8-7.9-9-19.2-12.3
	C484,64.9,474,61.5,474,49.6c0-12.9,11.8-17.8,23.4-17.8c13.7,0,23.5,6.6,24.4,20.1H511c-0.4-6.8-5.4-11.6-14-11.6
	c-6.9,0-12.3,2.9-12.3,8.7c0,7.2,8.2,8.4,19.8,11.8c9.3,2.8,18.9,6.2,18.9,18.8c0,14.4-12.6,19.1-24.7,19.1
	c-15.3,0-26.4-7.3-27.5-21.9H482.1z M534.1,33.3H546l17.8,52l17.6-52h11.3l-23.5,63.9h-11.6L534.1,33.3z M643.9,88.9
	c-3.2,4.4-11,9.8-21.7,9.8c-14.2,0-20.4-8.5-20.4-17.6c0-15.7,15.1-18.9,25-19.8l15.4-1.3V58c0-11.2-1.6-17.2-13.2-17.2
	c-10.4,0-14.1,5-14.1,14h-10.7c0.1-18.9,14.4-22.9,26-22.9c17.6,0,23.1,9.1,23.1,24.8v29.2c0,2.6,1,4,3.7,4c1.9,0,4-0.6,5.4-1.5v8.2
	c-1.8,1-5.1,2.1-8.8,2.1c-7.9,0-9.5-4.7-9.5-8.7V88.9z M642.2,67.3l-13.5,1.5c-9.8,1-15.7,4.6-15.7,11.9c0,5.7,4,9.4,11.6,9.4
	c7.3,0,12.8-2.6,17.6-6.8V67.3z M676.2,0h11v97.2h-11V0z M747.2,88.9c-3.2,4.4-11,9.8-21.7,9.8c-14.2,0-20.4-8.5-20.4-17.6
	c0-15.7,15.1-18.9,25-19.8l15.4-1.3V58c0-11.2-1.6-17.2-13.2-17.2c-10.4,0-14.1,5-14.1,14h-10.7c0.1-18.9,14.4-22.9,26-22.9
	c17.6,0,23.1,9.1,23.1,24.8v29.2c0,2.6,1,4,3.7,4c1.9,0,4-0.6,5.4-1.5v8.2c-1.8,1-5.1,2.1-8.8,2.1c-7.9,0-9.5-4.7-9.5-8.7V88.9z
	 M745.4,67.3l-13.5,1.5c-9.8,1-15.7,4.6-15.7,11.9c0,5.7,4,9.4,11.6,9.4c7.3,0,12.8-2.6,17.6-6.8V67.3z M818.8,56.3v41h-9.4V67.8
	c-2.1,2.1-6.2,3.7-10.5,3.7v-7.6c5.6-0.1,10.1-3.5,11.6-7.6H818.8z M830.4,87.5h9.7v9.7h-9.7V87.5z M863.6,56.3v41h-9.4V67.8
	c-2.1,2.1-6.2,3.7-10.5,3.7v-7.6c5.6-0.1,10.1-3.5,11.6-7.6H863.6z"/>
</svg>
