<svg width="131" height="20" viewBox="0 0 131 20" fill="none" xmlns="http://www.w3.org/2000/svg">
<path d="M32.5173 7.98016H31.8862V2.03467H33.7878C35.1496 2.03467 35.7641 2.44155 35.7641 3.67051C35.7641 4.66696 35.3572 5.17349 34.5019 5.33126L35.8886 7.98016H35.1662L33.8376 5.39769H32.5173V7.98016ZM32.5173 4.86625H33.738C34.6431 4.86625 35.1247 4.69187 35.1247 3.71203C35.1247 2.7654 34.668 2.57441 33.738 2.57441H32.5173V4.86625Z" fill="white"/>
<path d="M37.0681 7.98016V2.03467H40.6304V2.57441H37.6992V4.71678H40.2401V5.24822H37.6992V7.44041H40.6304V7.98016H37.0681Z" fill="white"/>
<path d="M42.5234 7.98016H41.8923V2.03467H43.7524C45.1142 2.03467 45.7287 2.45816 45.7287 3.73694C45.7287 5.03232 45.1142 5.53055 43.7524 5.53055H42.5234V7.98016ZM42.5234 4.99081H43.7026C44.6077 4.99081 45.0893 4.80812 45.0893 3.77846C45.0893 2.78201 44.6326 2.58272 43.7026 2.58272H42.5234V4.99081Z" fill="white"/>
<path d="M50.7029 5.91252C50.7029 7.44872 49.9223 8.0798 48.5937 8.0798C47.315 8.0798 46.5759 7.45702 46.5759 6.00386V2.03467H47.207V5.93743C47.207 7.07505 47.6803 7.53175 48.6353 7.53175C49.5902 7.53175 50.0718 7.06674 50.0718 5.93743V2.03467H50.7029V5.91252Z" fill="white"/>
<path d="M54.0991 7.98016H52.2058V2.03467H54.0991C55.436 2.03467 55.984 2.5578 55.984 3.57917C55.984 4.26838 55.7515 4.70017 55.2533 4.90777V4.94098C55.8263 5.15688 56.092 5.57207 56.092 6.36093C56.092 7.48193 55.5024 7.98016 54.0991 7.98016ZM54.1655 2.57441H52.8369V4.69187H54.1655C54.8962 4.69187 55.3446 4.43445 55.3446 3.63729C55.3446 2.81522 54.9045 2.57441 54.1655 2.57441ZM54.2402 5.21501H52.8369V7.44041H54.2402C55.054 7.44041 55.4526 7.09166 55.4526 6.31941C55.4526 5.55546 55.054 5.21501 54.2402 5.21501Z" fill="white"/>
<path d="M57.3706 7.98016V2.03467H58.0017V7.44041H60.7752V7.98016H57.3706Z" fill="white"/>
<path d="M61.8049 7.98016V2.03467H62.436V7.98016H61.8049Z" fill="white"/>
<path d="M64.0801 2.03467H64.7112V4.65866H65.2675L67.2023 2.03467H67.933L65.7824 4.90777L67.9828 7.98016H67.2189L65.226 5.1984H64.7112V7.98016H64.0801V2.03467Z" fill="white"/>
<path d="M72.0516 6.527H69.5273L69.0705 7.98016H68.4229L70.3742 2.03467H71.2212L73.1809 7.98016H72.5166L72.0516 6.527ZM69.6933 6.00386H71.8855L70.806 2.59932H70.7728L69.6933 6.00386Z" fill="white"/>
<path d="M77.4076 8.07984C76.7765 8.07984 76.27 7.9885 75.78 7.80581L75.9129 7.26607C76.3696 7.43215 76.9342 7.53179 77.4823 7.53179C78.3376 7.53179 78.7279 7.31589 78.7279 6.46891C78.7279 5.7797 78.4704 5.52228 77.4657 5.23995C76.353 4.93271 75.8215 4.54244 75.8215 3.53768C75.8215 2.48311 76.4111 1.93506 77.665 1.93506C78.1798 1.93506 78.7196 2.0347 79.168 2.20908L79.06 2.74052C78.6116 2.58275 78.1964 2.49141 77.6899 2.49141C76.8014 2.49141 76.4692 2.77374 76.4692 3.49616C76.4692 4.2269 76.8429 4.41788 77.6152 4.65039C79.0102 5.08218 79.3673 5.40603 79.3673 6.41078C79.3673 7.61483 78.8358 8.07984 77.4076 8.07984Z" fill="white"/>
<path d="M80.5381 7.98016V2.03467H81.1692V7.44041H83.9426V7.98016H80.5381Z" fill="white"/>
<path d="M84.3662 5.02406C84.3662 2.71561 85.1052 1.93506 86.658 1.93506C88.1942 1.93506 88.9333 2.70731 88.9333 4.99914C88.9333 7.3242 88.2192 8.07984 86.658 8.07984C85.1052 8.07984 84.3662 7.3242 84.3662 5.02406ZM88.269 4.99084C88.269 3.1391 87.887 2.49141 86.6497 2.49141C85.4125 2.49141 85.0305 3.1308 85.0305 4.99084C85.0305 6.82597 85.4125 7.52349 86.6497 7.52349C87.887 7.52349 88.269 6.82597 88.269 4.99084Z" fill="white"/>
<path d="M89.5146 2.03467H90.1623L91.7567 7.36568H91.7899L93.3676 2.03467H93.9821L92.1968 7.98016H91.3083L89.5146 2.03467Z" fill="white"/>
<path d="M94.887 7.98016V2.03467H98.4493V2.57441H95.5181V4.71678H98.059V5.24822H95.5181V7.44041H98.4493V7.98016H94.887Z" fill="white"/>
<path d="M100.326 2.70727H100.293V7.98016H99.7114V2.03467H100.641L103.307 7.29925H103.34V2.03467H103.921V7.98016H103L100.326 2.70727Z" fill="white"/>
<path d="M105.565 7.98016V2.03467H106.197V7.98016H105.565Z" fill="white"/>
<path d="M108.647 2.03467V7.50684C108.647 8.62785 108.306 9.20911 107.177 9.53296L107.011 9.00152C107.766 8.77732 108.016 8.37043 108.016 7.55667V2.03467H108.647Z" fill="white"/>
<path d="M113.039 6.527H110.515L110.058 7.98016H109.41L111.362 2.03467H112.209L114.168 7.98016H113.504L113.039 6.527ZM110.681 6.00386H112.873L111.793 2.59932H111.76L110.681 6.00386Z" fill="white"/>
<path d="M33.0571 11.999L34.2612 14.6977H34.3027L35.4984 11.999H36.8353V17.9445H35.7891V13.5435H35.7476L34.7345 15.8603H33.7547L32.7333 13.5518H32.6918V17.9445H31.6787V11.999H33.0571Z" fill="white"/>
<path d="M38.0811 17.9445V11.999H39.2353V17.9445H38.0811Z" fill="white"/>
<path d="M41.5687 13.4854H41.5272V17.9445H40.4976V11.999H42.0254L44.035 16.591H44.0765V11.999H45.1061V17.9445H43.5699L41.5687 13.4854Z" fill="white"/>
<path d="M46.3682 17.9445V11.999H47.5224V17.9445H46.3682Z" fill="white"/>
<path d="M50.2379 18.0442C49.557 18.0442 49.0007 17.9529 48.519 17.7951L48.7266 16.7986C49.175 16.9481 49.7895 17.0644 50.3044 17.0644C50.8607 17.0644 51.251 16.9149 51.251 16.3087C51.251 15.8437 51.0185 15.6776 50.2462 15.4534C49.1584 15.1379 48.5606 14.7808 48.5606 13.6266C48.5606 12.3644 49.2581 11.8994 50.6033 11.8994C51.1762 11.8994 51.6579 11.9991 52.181 12.2067L52.0398 13.1616C51.633 12.9955 51.1181 12.8959 50.6282 12.8959C50.1217 12.8959 49.7563 12.9789 49.7563 13.5353C49.7563 14.0916 50.1134 14.2411 50.8109 14.4487C52.0315 14.8057 52.455 15.1379 52.455 16.2174C52.455 17.5377 51.8322 18.0442 50.2379 18.0442Z" fill="white"/>
<path d="M55.4775 13.0038V17.9445H54.3233V13.0038H52.7705V11.999H57.0303V13.0038H55.4775Z" fill="white"/>
<path d="M61.0326 15.4368L62.3446 17.9445H61.016L59.8618 15.6112H58.9816V17.9445H57.8274V11.999H59.8784C61.4977 11.999 61.9876 12.6135 61.9876 13.7677C61.9876 14.5898 61.7052 15.1711 61.0326 15.4368ZM59.8037 12.9872H58.9816V14.6645H59.8037C60.6008 14.6645 60.8084 14.4403 60.8084 13.8009C60.8084 13.1532 60.551 12.9872 59.8037 12.9872Z" fill="white"/>
<path d="M64.5866 18.0442C63.9056 18.0442 63.3493 17.9529 62.8677 17.7951L63.0753 16.7986C63.5237 16.9481 64.1382 17.0644 64.653 17.0644C65.2093 17.0644 65.5996 16.9149 65.5996 16.3087C65.5996 15.8437 65.3671 15.6776 64.5949 15.4534C63.5071 15.1379 62.9092 14.7808 62.9092 13.6266C62.9092 12.3644 63.6067 11.8994 64.9519 11.8994C65.5249 11.8994 66.0065 11.9991 66.5296 12.2067L66.3885 13.1616C65.9816 12.9955 65.4668 12.8959 64.9768 12.8959C64.4703 12.8959 64.1049 12.9789 64.1049 13.5353C64.1049 14.0916 64.462 14.2411 65.1595 14.4487C66.3802 14.8057 66.8037 15.1379 66.8037 16.2174C66.8037 17.5377 66.1809 18.0442 64.5866 18.0442Z" fill="white"/>
<path d="M69.8181 13.0038V17.9445H68.6639V13.0038H67.1111V11.999H71.3709V13.0038H69.8181Z" fill="white"/>
<path d="M75.0412 17.9445H73.3058L71.6948 11.999H72.9155L74.1777 16.9398H74.2192L75.4896 11.999H76.6605L75.0412 17.9445Z" fill="white"/>
<path d="M77.0588 14.9884C77.0588 12.5969 77.856 11.8994 79.4918 11.8994C81.1111 11.8994 81.9082 12.5886 81.9082 14.9635C81.9082 17.3716 81.136 18.0442 79.4918 18.0442C77.856 18.0442 77.0588 17.3716 77.0588 14.9884ZM80.7042 14.9552C80.7042 13.3692 80.4551 12.9042 79.4835 12.9042C78.512 12.9042 78.2629 13.3609 78.2629 14.9552C78.2629 16.5329 78.512 17.0394 79.4835 17.0394C80.4551 17.0394 80.7042 16.5329 80.7042 14.9552Z" fill="white"/>
<path d="M84.499 17.9445V16.9315L87.1562 12.9872H84.6236V11.999H88.4516V12.9955L85.7612 16.9564H88.5097V17.9445H84.499Z" fill="white"/>
<path d="M92.4791 16.6906H90.4529L90.1208 17.9445H88.9084L90.7104 11.999H92.2632L94.0734 17.9445H92.8278L92.4791 16.6906ZM90.7187 15.7191H92.2133L91.4826 13.0453H91.4411L90.7187 15.7191Z" fill="white"/>
<path d="M96.5645 11.999H97.7187V14.4071H98.0508L99.6368 11.999H100.932L98.9725 14.8306L101.024 17.9445H99.6618L98.0259 15.3371H97.7187V17.9445H96.5645V11.999Z" fill="white"/>
<path d="M106.006 11.999V15.8188C106.006 17.3882 105.175 18.0442 103.722 18.0442C102.319 18.0442 101.505 17.438 101.505 15.852V11.999H102.659V15.7274C102.659 16.782 103.033 17.0394 103.755 17.0394C104.503 17.0394 104.86 16.7571 104.86 15.7855V11.999H106.006Z" fill="white"/>
<path d="M107.202 17.9445V11.999H108.356V16.9398H110.83V17.9445H107.202Z" fill="white"/>
<path d="M113.172 13.0038V17.9445H112.018V13.0038H110.465V11.999H114.725V13.0038H113.172Z" fill="white"/>
<path d="M119.948 11.999V15.8188C119.948 17.3882 119.118 18.0442 117.664 18.0442C116.261 18.0442 115.447 17.438 115.447 15.852V11.999H116.601V15.7274C116.601 16.782 116.975 17.0394 117.698 17.0394C118.445 17.0394 118.802 16.7571 118.802 15.7855V11.999H119.948Z" fill="white"/>
<path d="M124.349 15.4368L125.661 17.9445H124.332L123.178 15.6112H122.298V17.9445H121.144V11.999H123.195C124.814 11.999 125.304 12.6135 125.304 13.7677C125.304 14.5898 125.021 15.1711 124.349 15.4368ZM123.128 12.9872H122.306V14.6645H123.128C123.925 14.6645 124.133 14.4403 124.133 13.8009C124.125 13.1532 123.867 12.9872 123.128 12.9872Z" fill="white"/>
<path d="M126.151 14.9884C126.151 12.5969 126.948 11.8994 128.584 11.8994C130.203 11.8994 131 12.5886 131 14.9635C131 17.3716 130.228 18.0442 128.584 18.0442C126.948 18.0442 126.151 17.3716 126.151 14.9884ZM129.796 14.9552C129.796 13.3692 129.547 12.9042 128.575 12.9042C127.604 12.9042 127.355 13.3609 127.355 14.9552C127.355 16.5329 127.604 17.0394 128.575 17.0394C129.547 17.0394 129.796 16.5329 129.796 14.9552Z" fill="white"/>
<path d="M15.2706 10.7617C14.9966 15.0215 12.1318 18.6585 7.92178 19.8792C3.86125 18.7333 0.822072 15.171 0.548048 10.7617L0 1.91817C2.56586 0.672604 4.98225 0 7.92178 0C10.5873 0 13.203 0.59787 15.8187 1.91817L15.2706 10.7617ZM14.6976 2.04272L14.1496 10.6869C13.9254 14.2991 11.5837 17.4877 7.92178 18.7084C4.45912 17.5874 1.91817 14.4984 1.66906 10.6869L1.12101 2.04272C0.97154 2.11746 0.747338 2.19219 0.622782 2.26693L1.14592 10.7118C1.39503 14.6976 4.11036 18.1354 7.92178 19.2564C11.6336 18.1354 14.4236 14.7724 14.6727 10.7118L15.1959 2.26693C15.0464 2.19219 14.8969 2.11746 14.6976 2.04272ZM6.30255 10.1389L5.18154 8.64421L2.49113 12.2314C2.69042 13.1532 3.13882 13.5766 4.25983 13.5766C5.03208 13.5766 5.18154 13.1033 6.07835 13.1033C7.02498 13.1033 7.0748 13.5766 7.92178 13.5766C8.69403 13.5766 8.79368 13.1033 9.71539 13.1033C10.662 13.1033 10.7617 13.5766 11.5588 13.5766C12.6549 13.5766 13.203 13.0535 13.3275 12.2065L10.6371 8.64421L9.51611 10.1389L7.92178 6.92533L6.30255 10.1389ZM11.5588 14.8471C11.8079 14.8471 12.0321 14.7724 12.2314 14.6976C12.3809 14.4485 12.4805 14.2742 12.63 14.025C12.3062 14.1745 11.9574 14.2991 11.5588 14.2991C10.662 14.2991 10.6122 13.8258 9.71539 13.8258C8.86841 13.8258 8.79368 14.2991 7.89687 14.2991C7.00007 14.2991 6.97516 13.8258 6.07835 13.8258C5.20646 13.8258 5.10681 14.2991 4.25983 14.2991C3.78651 14.2991 3.48758 14.1247 3.18864 14.0001C3.3132 14.2243 3.43776 14.4734 3.58722 14.6976C3.81142 14.7724 4.03563 14.8222 4.25983 14.8222C5.20646 14.8222 5.18154 14.3489 6.07835 14.3489C6.92533 14.3489 7.04989 14.8471 7.89687 14.8471C8.79368 14.8471 8.86841 14.3489 9.71539 14.3489C10.5873 14.3489 10.662 14.8471 11.5588 14.8471ZM9.71539 15.0713C8.89332 15.0713 8.86841 15.5446 7.92178 15.5446C7.00007 15.5446 6.8506 15.0713 6.07835 15.0713C5.28119 15.0713 5.25628 15.5446 4.21 15.5446C5.18154 16.6656 6.42711 17.5624 7.92178 18.0856C9.34173 17.5874 10.5873 16.7404 11.6087 15.5446C10.5873 15.5446 10.5624 15.0713 9.71539 15.0713ZM5.70468 1.84343L5.00717 1.7687L5.43066 2.31675L4.98225 2.8648L5.70468 2.79006L5.9787 3.43776L6.25273 2.79006L6.92533 2.8648L6.52675 2.31675L6.92533 1.7687L6.25273 1.84343L5.9787 1.22065L5.70468 1.84343ZM7.64776 4.40929L6.95024 4.33456L7.37374 4.88261L6.92533 5.43066L7.64776 5.35592L7.92178 6.00362L8.19581 5.35592L8.86841 5.43066L8.46983 4.88261L8.86841 4.33456L8.19581 4.40929L7.92178 3.78651L7.64776 4.40929ZM9.54102 1.84343L8.8435 1.7687L9.26699 2.31675L8.81859 2.8648L9.54102 2.79006L9.81504 3.43776L10.0891 2.79006L10.7617 2.8648L10.3631 2.31675L10.7617 1.7687L10.0891 1.84343L9.81504 1.22065L9.54102 1.84343Z" fill="white"/>
</svg>
