<svg version="1.1" id="Layer_1" xmlns="http://www.w3.org/2000/svg" x="0" y="0" viewBox="0 0 256.07 100" xml:space="preserve">
  <style>
      .st0{fill:#2c67b0}
  </style>
                        <path class="st0" d="M0 98.59V33.8h47.89v19.72H21.13v45.07H0zM44.37 98.59V78.87h13.81c3.24 0 5.77-3.1 5.77-7.18V59.72c0-14.93 10.99-25.92 25.92-25.92h14.51v19.72H90.85c-3.24 0-5.77 3.1-5.77 7.18v12.4c0 13.66-10.99 25.49-25.92 25.49H44.37zM175.64 98.59h-32.39c-17.89 0-32.4-14.51-32.4-32.39s14.51-32.39 32.4-32.39h11.27V0h21.12v98.59zm-21.12-19.72V53.52h-9.16c-7.6 0-12.68 5.63-12.68 12.68s5.07 12.68 12.68 12.68h9.16zM221.42 100c-19.16 0-34.37-14.93-34.37-33.8s15.21-33.8 34.37-33.8h.28c19.16 0 34.37 14.93 34.37 33.8S240.86 100 221.7 100h-.28zm.28-21.13c6.9 0 12.54-5.92 12.54-12.68 0-6.9-5.64-12.68-12.54-12.68h-.28c-6.9 0-12.54 5.63-12.54 12.68 0 6.9 5.64 12.68 12.54 12.68h.28z"></path>
</svg>
